<svg width="1727" height="856" viewBox="0 0 1727 856" fill="none" xmlns="http://www.w3.org/2000/svg">
<path opacity="0.04" fill-rule="evenodd" clip-rule="evenodd" d="M1186.63 2.91912C1121.83 11.9976 1087.2 34.6445 1062.45 84.1182C1049.63 109.752 1046.9 120.679 1046.9 146.3C1046.9 168.855 1047.12 169.877 1055.35 186.111C1076.42 227.632 1116.21 246.064 1150.4 230.136C1156.9 227.11 1170.01 219.163 1179.55 212.475C1199.81 198.271 1216.89 189.845 1225.49 189.815C1234.29 189.784 1243.16 195.009 1258.39 209.189C1281.53 230.721 1297.14 235.389 1329.12 230.326C1338.69 228.812 1341.33 229.144 1344.82 232.308C1349.7 236.73 1353.65 253.019 1353.65 268.733V279.723L1346.86 278.231C1335.82 275.803 1317.41 266.948 1290.51 251.114C1256.61 231.169 1248.72 227.33 1236.03 224.606C1221.42 221.473 1211.36 224.383 1184.91 239.396C1158 254.675 1152.48 255.357 1117.04 247.795C1101.9 244.565 1087.52 242.56 1085.07 243.335C1071.39 247.681 1071.37 265.01 1085.01 305.84C1094.2 333.329 1102.98 351.87 1125.28 390.808C1140.22 416.907 1142.37 423.567 1135.87 423.604C1116.93 423.718 1093.22 425.702 1085.45 427.823C1067.82 432.639 1050.11 453.699 1042.41 479.016C1040.53 485.18 1037.6 507.694 1035.9 529.045C1032.14 576.07 1029.19 584.597 1011.1 600.84C995.593 614.771 995.59 614.771 944.007 593.359C900.957 575.486 855.125 558.996 830.859 552.647C814.694 548.417 807.826 549.472 807.826 556.186C807.826 561.264 830.386 603.768 868.583 670.651L901.747 728.725L898.239 735.761C895.597 741.061 894.918 747.546 895.49 762.037C896.154 778.867 897.206 783.163 903.891 796.343C910.24 808.862 913.194 812.271 921.358 816.51C930.255 821.126 933.159 821.498 952.121 820.445C976.517 819.09 984.674 816.21 984.674 808.952C984.674 802.34 978.469 799.233 962.002 797.601L948.649 796.279L961.424 794.824C976.799 793.072 984.303 787.415 979.665 781.068C977.552 778.173 971.303 776.394 956.166 774.375L935.549 771.626L950.832 770.761C965.544 769.929 966.142 769.675 966.792 764.025C967.664 756.478 962.103 752.779 942.531 747.891C927.659 744.175 914.838 737.329 913.157 732.206C911.644 727.595 932.032 728.97 955.507 735.059C986.543 743.113 986.335 742.932 994.658 769.605C1001.32 790.948 1012.13 800.817 1044.02 814.665C1091.15 835.125 1113.86 847.461 1104.41 847.461C1102.88 847.461 1090.47 842.943 1076.83 837.419C1027.42 817.405 1003.92 816.979 957.738 835.259C908.291 854.829 896.427 853.669 831.842 822.94C775.672 796.216 756.878 791.603 711.919 793.513C680.259 794.857 676.259 795.715 615.694 814.193C595.88 820.237 571.809 826.372 562.203 827.825C522.115 833.889 489.477 824.6 441.258 793.412C400.033 766.747 371.993 756.421 334.769 754.197C297.256 751.955 275.132 758.287 220.012 787.032C157.406 819.682 140.623 825.103 96.0657 827.076C69.5756 828.249 11.017 825.005 2.98459 821.919C1.08074 821.19 0 822.339 0 825.096C0 828.758 2.00646 829.645 13.1414 830.906C47.1006 834.75 85.6448 836.111 107.225 834.225C142.83 831.114 162.984 824.218 218.757 796.058C277.658 766.321 292.575 761.48 325.314 761.475C364.128 761.473 392.302 771.006 436.184 798.991C480.477 827.238 498.485 834.118 532.829 835.912C560.978 837.38 575.412 834.701 629.886 817.895C680.958 802.137 701.61 798.547 732.501 800.057C762.832 801.54 781.041 807.156 829.508 829.973C894.835 860.728 909.271 862.409 954.485 844.514C988.992 830.854 996.767 829.204 1020.28 830.543C1035.16 831.389 1044.86 833.375 1057.81 838.226C1112.53 858.716 1108.63 857.617 1112.57 853.686C1115.77 850.488 1117 850.426 1123.5 853.14C1132.33 856.835 1140.39 856.865 1150.61 853.245C1156.78 851.051 1159.13 851.084 1162.84 853.409C1166.87 855.93 1171.17 854.965 1197.77 845.552C1252.89 826.053 1333.03 792.757 1388 766.511C1427.06 747.863 1432.71 743.974 1431.83 736.34C1431.18 730.729 1430.77 730.573 1416.97 730.833C1406.29 731.035 1398.89 732.793 1387.07 737.935C1356.5 751.232 1354.01 745.134 1383.14 728.314C1403.59 716.507 1407.6 712.633 1405.38 706.83C1403.15 701.016 1393.63 702.597 1367.76 713.076C1342.97 723.114 1323.09 727.698 1323.09 723.376C1323.09 720.293 1341.62 711.796 1364.57 704.359C1392.52 695.3 1403.74 687.121 1400.35 678.286C1397.95 672.017 1384.26 674.497 1353.78 686.722C1337.5 693.253 1322.21 698.772 1319.81 698.99C1312.65 699.643 1309.99 699.012 1309.99 696.667C1309.99 692.697 1323.7 685.948 1348.2 677.866C1361.4 673.507 1376.96 667.405 1382.76 664.304C1401.1 654.505 1409.11 639.892 1396.14 639.892C1393.35 639.892 1383.07 642.841 1373.3 646.447C1345.6 656.67 1335.77 654.609 1348.2 641.187C1360.64 627.748 1398.57 615.724 1430.07 615.232C1447.31 614.964 1459.13 617.913 1471.18 625.489L1478.45 630.059L1477.14 645.354C1476.11 657.373 1474.35 662.989 1468.91 671.573C1456.29 691.47 1451.9 701.608 1451.9 710.835C1451.9 721.836 1454.83 725.105 1464.69 725.105C1474.33 725.105 1485.31 716.859 1491.77 704.767C1495.95 696.936 1496.66 692.28 1496.63 672.666C1496.61 650.543 1495.7 646.449 1487.36 630.746C1486.92 629.92 1489.02 627.639 1492.01 625.674C1499.57 620.719 1505 624.086 1512.44 638.332C1517.75 648.496 1518.4 652.082 1518.44 671.573C1518.47 683.591 1517.07 699.58 1515.32 707.105C1512.4 719.71 1512.45 721.084 1515.94 724.582C1521.95 730.591 1536.67 728.83 1555.27 719.878C1576.02 709.891 1616.22 683.538 1628.46 671.899C1640.11 660.823 1648.35 644.194 1648.38 631.698C1648.4 623.481 1648.97 622.432 1653.31 622.578C1667.14 623.046 1678.38 630.835 1687.75 646.447C1691.72 653.056 1697.02 660.802 1699.52 663.662C1707.35 672.596 1727 678.622 1727 672.087C1727 670.566 1722.33 667.66 1716.63 665.628C1707.53 662.386 1705.11 660.061 1696.82 646.604C1685.04 627.459 1677.51 621.055 1661.58 616.622L1649.03 613.131L1646.48 601.93C1645.08 595.771 1637.16 576.474 1628.89 559.049C1620.62 541.624 1607.29 509.177 1599.27 486.946C1572.92 413.909 1548.29 375.465 1519.01 361.683C1512.72 358.72 1493.33 352.126 1475.92 347.026C1420.88 330.91 1419.99 330.737 1406.27 333.604C1381.94 338.688 1366.42 355.844 1356.76 388.337C1346.08 424.294 1344.41 428.35 1333.55 444.595C1321.64 462.422 1305.77 475.977 1290.2 481.625C1275.31 487.033 1247.71 488.191 1233.35 484.016C1216.15 479.012 1200.68 465.819 1195.3 451.565C1194.04 448.246 1194.76 448.115 1202.27 450.282C1214.44 453.796 1251.85 452.985 1269.82 448.823C1291.37 443.828 1310.34 432.088 1322.05 416.49C1337.71 395.648 1351.7 352.779 1358.07 306.106C1359.94 292.402 1361.74 285.931 1363.67 285.931C1365.23 285.931 1369.19 283.623 1372.47 280.8C1377.38 276.577 1379.43 276.048 1384.08 277.807C1397.39 282.835 1424.7 263.207 1430.27 244.616C1432.66 236.632 1432.4 234.818 1427.54 225.36C1419.05 208.855 1400.44 200.519 1389.38 208.271C1385.36 211.09 1381.2 221.964 1379.38 234.429C1379.04 236.748 1378.72 216.1 1378.67 188.545C1378.58 138.989 1378.5 138.163 1371.48 112.26C1362.89 80.583 1352.89 59.2295 1339.53 44.0791C1327.73 30.7007 1304.99 15.1636 1288.15 8.97579C1262.97 -0.279637 1225.44 -2.51921 1186.63 2.91912ZM1271.78 11.9407C1306.35 20.202 1336.36 44.2801 1350.65 75.2146C1369.81 116.733 1376.52 166.639 1371.17 228.03C1369.97 241.878 1369.88 255.536 1370.96 260.255C1372.5 266.963 1372.07 269.439 1368.55 273.911C1366.19 276.918 1363.46 279.376 1362.5 279.376C1361.53 279.376 1360.31 270.774 1359.78 260.258C1358.63 237.473 1354.49 227.975 1343.71 223.47C1338.03 221.097 1334.01 220.863 1326.94 222.497C1301.5 228.37 1284.95 223.461 1262.52 203.39C1242.51 185.484 1238.46 183.256 1225.93 183.297C1212.05 183.343 1203.09 187.486 1173.13 207.705C1138.66 230.964 1122.87 234.088 1099.24 222.323C1065.23 205.391 1045.68 160.567 1055.51 122.06C1065.9 81.3346 1093.42 43.889 1124.34 28.4C1162.39 9.34286 1229.54 1.8463 1271.78 11.9407ZM1406.89 214.673C1416.46 218.674 1423.52 228.895 1423.52 238.738C1423.52 252.422 1403.63 270.636 1388.7 270.636C1380.83 270.636 1380.9 271.263 1385.56 242.92C1388.98 222.067 1392.94 211.643 1397.44 211.643C1398.65 211.643 1402.9 213.006 1406.89 214.673ZM1244.99 235.002C1250.12 237.034 1262.66 243.549 1272.87 249.484C1307.2 269.441 1327.9 279.985 1340.27 283.822C1354.14 288.127 1353.51 285.837 1349.03 315.427C1341.72 363.726 1325.06 406.904 1307.56 422.872C1299.07 430.611 1280.5 438.883 1263.58 442.46C1248.14 445.724 1216.38 445.519 1196.22 442.023C1190.03 440.948 1188.04 441.442 1186.93 444.335C1184.74 450.055 1191.93 462.9 1204.28 475.33C1219.26 490.413 1232.03 494.296 1262.91 493.151C1282.68 492.419 1286.73 491.54 1299.6 485.2C1317.53 476.368 1338.66 454.34 1348.46 434.264C1352.21 426.586 1358.37 409.666 1362.16 396.664C1371.29 365.286 1379.04 353.247 1395.59 344.723C1405.64 339.551 1425.72 339.2 1439.07 343.963C1444.33 345.84 1461.9 351.108 1478.13 355.67C1522.69 368.203 1532.33 374.207 1550 400.413C1567.9 426.956 1579.27 451.792 1598.16 505.518C1603.23 519.938 1614.24 546.223 1622.63 563.93C1631.02 581.637 1638.4 599.92 1639.02 604.561L1640.15 612.997L1616.44 614.684C1574.96 617.636 1573.53 617.17 1554.75 594.6C1540.99 578.069 1534.51 573.67 1515.22 567.725C1507.41 565.322 1499.32 562.038 1497.22 560.427C1487.67 553.073 1478.02 513.552 1474.75 468.374C1472.93 443.253 1471.39 437.926 1464.91 434.457C1455.18 429.248 1438.8 441.87 1438.8 454.569C1438.8 458.069 1442.73 468.085 1447.52 476.827C1455.27 490.968 1456.49 495.237 1458.49 515.507C1463.86 569.954 1468.74 577.387 1505.13 586.535C1513.08 588.535 1519.59 591.174 1519.59 592.4C1519.59 596.518 1486.43 592.374 1464.42 585.506C1452.68 581.846 1438.32 578.222 1432.51 577.448C1418.35 575.569 1399.96 581.005 1382.7 592.173C1375.26 596.988 1367.4 600.587 1365.25 600.174C1359.25 599.016 1337.48 567.345 1323.7 539.703C1316.89 526.06 1309.05 513.405 1306.27 511.581C1301.9 508.714 1298.79 508.636 1283.22 511.008C1253 515.614 1230.17 523.454 1187.35 543.931C1164.79 554.72 1126.18 571.846 1101.55 581.988C1039.61 607.493 1032.71 611.431 1032.71 621.28C1032.71 623.845 1039.46 635.719 1047.72 647.666C1055.98 659.613 1076.26 691.019 1092.78 717.457C1130.79 778.284 1137.34 788.009 1153.91 808.2C1172.53 830.904 1173.64 833.259 1167.68 837.437C1163.1 840.649 1162.68 840.374 1157.01 830.465C1153.76 824.791 1139.92 805.181 1126.25 786.884C1099.37 750.911 1077.91 716.476 1050.32 665.019C1040.65 646.993 1031.15 631.076 1029.21 629.647C1026.39 627.569 1022.56 628.176 1010.12 632.664C981.032 643.165 977.694 648.579 989.093 666.76C993.014 673.013 1003.1 689.927 1011.51 704.348C1030.73 737.325 1037.98 748.108 1071.3 793.255C1086.1 813.313 1098.21 830.297 1098.21 830.996C1098.21 831.695 1096 830.832 1093.29 829.077C1090.59 827.323 1075.78 820.399 1060.37 813.689C1010.81 792.104 1008.2 789.844 999.678 761.156C997.18 752.744 994.075 744.562 992.78 742.971C985.593 734.15 944.599 722.332 921.072 722.297L906.596 722.277L870.399 658.689C826.661 581.853 815.004 559.892 816.928 557.958C820.078 554.788 886.885 577.774 948.649 603.279C969.063 611.708 989.276 618.704 993.566 618.822C1008.4 619.235 1033.29 593.064 1038.97 571.066C1040.22 566.259 1042.25 546.774 1043.5 527.765C1046.81 477.124 1056.64 452.065 1078.14 439.456C1086.62 434.483 1091.37 433.548 1115.41 432.112C1130.56 431.208 1143.18 430.393 1143.43 430.301C1143.69 430.211 1145 428.081 1146.35 425.568C1149.59 419.509 1147.42 414.346 1126.24 377.589C1097.82 328.255 1080.54 279.645 1082.61 254.795C1083.04 249.573 1093.03 249.783 1117.22 255.523C1130.73 258.726 1141.03 259.799 1152.01 259.143C1165.96 258.311 1169.53 257.074 1185.73 247.491C1195.7 241.594 1206.85 235.616 1210.52 234.204C1220.27 230.459 1234.35 230.783 1244.99 235.002ZM1464.74 445.978C1465.74 448.683 1467.16 461.218 1467.88 473.836C1469.46 501.076 1476.24 537.874 1482.07 550.851C1488.03 564.124 1494.28 568.846 1514.55 575.379C1531.96 580.99 1532.92 581.672 1550.24 600.659C1572.26 624.802 1576.18 626.297 1608.01 622.681C1640.8 618.958 1641.85 619.074 1641.85 626.384C1641.85 638.74 1635.41 654.548 1626.72 663.504C1607.88 682.931 1543.61 720.735 1529.42 720.735C1525.61 720.735 1521.96 720.197 1521.3 719.54C1520.64 718.88 1522.04 709.786 1524.41 699.329C1529.44 677.121 1528.68 659.982 1521.88 641.797C1513.53 619.46 1498.66 610.205 1486.7 619.902C1481.81 623.865 1481.55 623.843 1474.12 618.798C1456.21 606.633 1431.96 604.305 1397.42 611.437C1354.61 620.275 1325.34 644.017 1339.62 658.309C1344.43 663.126 1348.66 662.674 1371.18 654.931C1382.07 651.186 1391.45 648.581 1392.01 649.143C1394.1 651.234 1367.07 663.852 1343.85 671.619C1315.37 681.152 1309.19 684.146 1304.66 690.62C1300.36 696.764 1300.37 699.868 1304.68 704.192C1310.46 709.967 1320.77 708.088 1350.97 695.752C1366.91 689.243 1383.12 683.304 1387 682.557L1394.04 681.196L1389.1 685.502C1386.38 687.871 1376.06 692.477 1366.17 695.737C1341.92 703.734 1322.84 712.563 1318 718.038C1314.79 721.665 1314.48 723.453 1316.44 727.108C1321.15 735.913 1340.2 733.018 1375.16 718.187C1397.84 708.565 1403.99 708.394 1386.39 717.872C1362.67 730.643 1354.75 736.822 1354.75 742.556C1354.75 746.301 1356.57 748.864 1360.63 750.81C1365.69 753.236 1368.22 753.009 1378.64 749.2C1385.31 746.764 1396.3 742.75 1403.06 740.281C1409.82 737.812 1417.92 736.095 1421.07 736.466C1426.58 737.113 1426.44 737.369 1417.3 743.301C1392.09 759.67 1253.01 819.005 1187.86 841.188C1166.2 848.563 1162.17 849.05 1171.89 843.116C1182.51 836.637 1181.3 830.784 1165.23 810.929C1145.23 786.215 1134.89 771.056 1101.85 718.078C1085.58 691.981 1064.8 659.65 1055.68 646.235C1040.12 623.35 1039.32 621.599 1042.66 617.9C1047.13 612.956 1056.86 608.383 1103.51 589.288C1124.01 580.896 1161.41 564.419 1186.63 552.673C1211.85 540.925 1235.43 530.218 1239.03 528.881C1253.42 523.535 1274.18 519.449 1288.95 519.049L1304.53 518.627L1315.94 541.126C1328.59 566.056 1351.74 601.159 1358.8 606.108C1365.52 610.821 1368.38 610.176 1382.99 600.654C1409.61 583.295 1426.45 581.324 1458.99 591.755C1498.88 604.542 1530.14 604.48 1530.47 591.615C1530.57 587.827 1520.85 582.983 1504.3 578.565C1490.45 574.868 1484.02 571.892 1478.93 566.829C1471.63 559.569 1469.99 552.702 1465.41 510.305C1463.69 494.357 1461.79 488.106 1454.34 473.818C1449.4 464.336 1445.35 455.677 1445.35 454.578C1445.35 450.424 1454.57 441.062 1458.66 441.062C1461.09 441.062 1463.71 443.179 1464.74 445.978ZM1044.71 669.699C1069.58 716.723 1093.16 754.936 1116 785.191C1137.71 813.94 1154.97 839.406 1154.97 842.668C1154.97 843.817 1150.53 845.877 1145.1 847.245C1131.37 850.706 1116.33 844.324 1107.81 831.42C1104.51 826.423 1088.47 804.143 1072.17 781.911C1055.87 759.677 1035.25 729.197 1026.35 714.178C1017.45 699.156 1005.85 680.156 1000.57 671.951C987.982 652.401 988.571 649.416 1006.51 641.83C1014.31 638.531 1022.17 636.018 1023.97 636.247C1025.78 636.477 1035.08 651.485 1044.71 669.699ZM1490.4 677.388C1488.75 699.351 1476.73 718.55 1464.64 718.55C1454.89 718.55 1457.61 703.458 1471.12 682.498C1480.24 668.366 1484.53 657.861 1484.87 648.852C1485.04 644.353 1485.75 645.219 1488.29 653.001C1490.42 659.515 1491.13 667.745 1490.4 677.388ZM929.613 752.003C935.279 753.747 944.051 756.301 949.103 757.68C963.214 761.525 962.679 764.434 947.865 764.434C931.414 764.434 927.908 765.806 927.908 772.238C927.908 779.409 933.91 781.907 951.234 781.946C968.292 781.985 975.971 784.856 964.928 787.067C961.079 787.837 954.548 788.468 950.415 788.468C941.337 788.468 934.458 791.822 934.458 796.246C934.458 800.518 941.11 802.849 958.544 804.689C978.229 806.765 981.525 809.43 966.943 811.48C932.451 816.326 919.522 812.041 909.747 792.523C902.811 778.673 899.586 752.364 903.573 742.16L905.874 736.274L912.592 742.554C916.286 746.006 923.945 750.26 929.613 752.003Z" fill="black"/>
</svg>
