<svg width="242" height="229" viewBox="0 0 242 229" fill="none" xmlns="http://www.w3.org/2000/svg">
<path fill-rule="evenodd" clip-rule="evenodd" d="M154.299 0.804988C153.975 1.32664 154.611 1.54426 156.023 1.39421C157.844 1.20094 158.212 1.4327 158.004 2.63864C157.801 3.81472 158.044 3.98755 159.185 3.47847C159.976 3.12572 161.565 2.8484 162.718 2.86254C164.229 2.88139 164.691 2.57186 164.376 1.75088C164.075 0.969185 163.244 0.751566 161.72 1.0556C160.5 1.29915 159.291 1.15616 159.032 0.738211C158.4 -0.280743 154.941 -0.232035 154.299 0.804988ZM48.4808 17.1664C43.5887 18.674 43.9225 17.985 41.4844 31.6132C40.6515 36.2657 40.2311 40.2323 40.5483 40.4287C40.8656 40.6243 42.2913 36.6412 43.7155 31.5763C45.1397 26.5122 46.3442 22.3067 46.393 22.2321C46.467 22.1158 60.6464 25.0187 66.347 26.3165C67.3216 26.5381 68.1183 26.3668 68.1183 25.9363C68.1183 25.5058 63.8317 23.8316 58.5932 22.2164C50.8961 19.843 49.3767 19.1422 50.6765 18.5632C51.8196 18.0541 55.5418 18.6638 63.5475 20.6703C76.6657 23.9581 84.5265 25.505 85.1185 24.9142C86.0183 24.0162 57.7209 15.6093 54.3412 15.7703C53.4752 15.8112 50.8379 16.4397 48.4808 17.1664ZM88.9352 25.8302C89.465 26.6858 96.1859 29.0466 98.0903 29.0466C98.8327 29.0466 99.6593 29.6162 99.9269 30.3122C100.289 31.2526 100.08 31.4506 99.1129 31.0806C97.2621 30.3711 79.5037 26.8806 74.8101 26.3032C68.46 25.5223 72.2042 27.1289 83.9793 30.2392C96.2158 33.4712 99.6089 34.5185 99.6089 35.0613C99.6089 36.1926 96.2882 54.1889 95.645 56.5434C95.2325 58.0557 94.8924 60.2162 94.89 61.3444C94.8861 63.1395 94.624 63.3461 92.7999 62.9981C91.3607 62.7239 90.8876 62.8795 91.2718 63.5001C91.5788 63.9951 92.3393 64.3997 92.9636 64.3997C93.5942 64.3997 94.0981 65.1381 94.0981 66.0628C94.0981 67.3387 93.732 67.6301 92.5235 67.3143C91.6575 67.0888 90.949 67.257 90.949 67.6891C90.949 68.1211 91.6575 68.6601 92.5235 68.8856C94.5184 69.4064 94.5004 69.8511 92.185 77.5722C91.1324 81.08 90.0295 85.562 89.7335 87.5308C89.4374 89.4995 89.1477 91.1046 89.0879 91.0967C89.0288 91.0896 85.6578 90.0361 81.5955 88.7571C74.5597 86.5417 72.8419 86.39 72.8419 87.9841C72.8419 89.4964 89.7893 92.5823 91.0702 91.3041C91.478 90.8972 92.6227 86.1803 93.6147 80.8208C95.2884 71.7751 95.5395 71.0908 97.1196 71.2644C99.431 71.519 99.2869 70.0451 96.9432 69.4583C95.5687 69.1142 95.1711 68.5839 95.4608 67.4793C95.6781 66.6497 96.1064 65.9709 96.411 65.9709C98.0769 65.9709 104.818 68.7284 105.356 69.6288C106.095 70.8693 107.941 71.0036 109.286 69.9155C113.067 66.8587 123.695 57.7926 124.014 57.3518C124.231 57.0533 126.888 56.7925 129.919 56.772C134.604 56.7414 135.763 57.0156 137.655 58.6033C139.94 60.5226 141.334 60.9783 141.334 59.8077C141.334 58.5845 138.617 56.6998 133.855 54.6202C127.07 51.6576 126.772 51.4424 126.751 49.4979C126.74 48.523 125.593 46.7239 124.179 45.463C121.219 42.8241 117.526 42.4682 114.01 44.4817C112.086 45.5832 111.727 46.3138 111.595 49.3919C111.51 51.3811 111.051 53.9485 110.575 55.0971C109.489 57.7234 110.868 60.8502 112.788 60.1149C113.476 59.8517 112.474 61.0262 110.563 62.7255C108.651 64.424 106.921 65.6535 106.717 65.4571C106.513 65.2607 106.821 64.8066 107.402 64.4484C108.131 63.999 107.078 63.2825 104.004 62.1347C101.554 61.2202 99.2294 60.4715 98.839 60.4715C97.3164 60.4715 97.3101 58.8626 98.813 54.0058C99.6727 51.2279 101.093 45.3891 101.968 41.0313L103.56 33.1059L101.782 30.3389C100.24 27.9412 99.2995 27.4086 94.7302 26.3456C88.5699 24.9118 88.3542 24.893 88.9352 25.8302ZM58.6712 32.9684C51.6653 36.7708 44.7641 43.7126 46.3835 45.3286C46.6315 45.5761 49.6318 43.1124 53.0509 39.8528C56.4692 36.5941 60.0182 33.6888 60.9369 33.3982C61.8556 33.1067 62.6075 32.5395 62.6075 32.1364C62.6075 31.0963 61.81 31.2644 58.6712 32.9684ZM71.4658 37.6665C65.9478 40.1663 57.2194 46.1331 53.1705 50.1728C48.9288 54.4065 45.8435 59.7409 46.5599 61.6044C47.3519 63.6635 48.4249 62.9855 49.9341 59.4738C50.7261 57.6284 52.9281 54.5299 54.8261 52.5886C58.6515 48.6754 71.8382 39.2495 76.0469 37.419C78.5126 36.3474 78.5756 36.2413 76.7782 36.1989C75.6957 36.173 73.3056 36.8337 71.4658 37.6665ZM79.1007 45.7411C63.6152 53.5038 49.6672 67.6624 53.2548 71.977C54.0239 72.9017 55.308 73.1232 58.4066 72.8671C62.1162 72.5599 62.5571 72.6903 62.7673 74.1587C62.9594 75.5005 63.5616 75.7912 66.1502 75.7912C68.8733 75.7912 69.3551 76.0567 69.7141 77.7553C70.1463 79.7979 70.9785 79.9629 75.4005 78.885C77.0876 78.4741 77.5655 78.6383 77.5655 79.6274C77.5655 80.6039 78.363 80.8978 81.0121 80.8978C85.0925 80.8978 87.0489 79.2511 85.6405 77.0011C84.917 75.8454 85.113 75.2805 86.7245 73.8829C87.8062 72.9441 88.5407 71.7515 88.3565 71.2338C87.7787 69.6091 84.1242 70.4702 79.7533 73.2599C77.4395 74.7369 74.6723 76.4008 73.604 76.9571L71.661 77.9682L73.5308 75.9389C74.5589 74.8225 77.4915 72.3902 80.0462 70.5338C82.7898 68.5399 84.591 66.6732 84.4462 65.9748C84.0888 64.2559 81.9057 64.8844 75.2037 68.6342C68.2718 72.5136 66.5438 73.2434 66.5438 72.2944C66.5438 71.1379 75.1935 63.79 81.6719 59.4416C85.013 57.1994 87.759 55.0994 87.7732 54.7758C87.8802 52.4079 78.711 57.0596 71.043 63.2629C66.0455 67.3065 57.5871 71.4357 56.5077 70.3586C56.2432 70.0946 56.5904 68.701 57.2777 67.2617C59.4899 62.632 80.6193 46.1583 87.6559 43.5767L90.5554 42.513L88.1581 42.4572C86.8143 42.4265 82.8362 43.8689 79.1007 45.7411ZM121.179 46.0153C121.684 47.3273 121.566 47.343 118.901 46.3319C117.764 45.9006 117.033 45.2265 117.276 44.8345C117.891 43.8407 120.667 44.6805 121.179 46.0153ZM38.8037 47.9016C37.911 50.9246 38.0377 53.0937 39.047 52.0866C39.5115 51.6231 39.7768 50.0502 39.6375 48.5905C39.3981 46.093 39.3493 46.0522 38.8037 47.9016ZM122.243 49.5584C124.083 50.3448 125.589 51.3536 125.589 51.7998C125.589 52.2461 126.74 53.1252 128.147 53.7529L130.706 54.8952L126.376 54.7373C122.21 54.5856 121.991 54.467 120.604 51.6333C119.707 49.802 118.607 48.6872 117.698 48.6872C116.892 48.6872 115.992 48.2959 115.696 47.8175C115.074 46.8135 117.044 47.3375 122.243 49.5584ZM116.775 51.0912C118.007 53.0592 117.539 53.8872 114.91 54.3885C112.474 54.8535 111.834 53.6916 112.935 50.8021C113.813 48.4978 115.219 48.6039 116.775 51.0912ZM35.1831 61.8464C32.0183 73.7604 31.457 77.6516 32.7284 78.8661C34.414 80.4759 69.237 87.8992 70.2699 86.8693C70.5092 86.6297 70.2117 86.2691 69.6086 86.0679C63.4994 84.0269 54.2168 81.4854 46.319 79.6926C41.0411 78.4945 36.3467 77.2815 35.8861 76.9979C35.1422 76.5391 35.9657 68.2555 37.7835 57.9183C37.9921 56.7304 37.8567 55.7578 37.4819 55.7578C37.1072 55.7578 36.0727 58.498 35.1831 61.8464ZM120.865 56.0548C120.865 56.2174 120.245 56.8365 119.487 57.4296C118.239 58.4061 118.211 58.3786 119.19 57.1326C120.219 55.8238 120.865 55.4082 120.865 56.0548ZM144.004 62.2392C144.713 63.2118 145.49 64.5371 145.732 65.1853C145.973 65.8334 146.501 66.894 146.903 67.5421C149.518 71.7492 153.143 80.4303 153.143 82.4847C153.143 85.9281 151.985 87.8325 147.35 92.012C143.204 95.7508 142.834 97.6127 146.573 95.9118C149.301 94.6713 150.555 96.2583 148.576 98.447C147.397 99.7504 147.208 99.7747 146.982 98.6513C146.653 97.0164 145.27 97.8326 145.27 99.6624C145.27 101.82 142.037 104.338 136.995 106.108C131.395 108.072 129.675 108.124 123.652 106.509C121.071 105.818 118.123 105.252 117.1 105.252C116.078 105.252 114.694 104.706 114.026 104.039C112.958 102.973 112.95 102.664 113.962 101.486C114.73 100.59 114.994 99.037 114.757 96.8066C114.273 92.2594 112.992 92.5737 112.992 97.2387C112.992 101.757 112.036 102.895 108.243 102.895C106.669 102.895 105.146 103.131 104.858 103.419C104.569 103.707 101.941 103.865 99.0185 103.769C93.8587 103.601 93.758 103.634 95.5474 104.911C97.0479 105.983 98.3989 106.127 102.83 105.692C106.129 105.368 108.269 105.452 108.269 105.906C108.269 107.047 106.179 107.609 101.931 107.609C98.8004 107.609 98.1698 107.833 98.5461 108.812C98.9515 109.865 102.023 109.975 123.316 109.697C140.185 109.477 147.96 109.101 148.725 108.468C149.654 107.699 149.827 108.576 149.829 114.064C149.832 123.759 149.891 124.272 150.978 123.914C151.52 123.736 152.4 122.735 152.934 121.688C153.814 119.969 153.916 119.938 153.997 121.357C154.19 124.725 155.348 119.001 155.348 114.68C155.348 108.934 154.564 106.371 152.895 106.661C151.736 106.863 151.688 106.618 152.511 104.697C153.028 103.49 153.81 102.022 154.251 101.436C154.828 100.666 154.676 100.094 153.703 99.385C152.963 98.8438 152.356 98.1147 152.356 97.7635C152.356 97.4131 151.767 96.4775 151.046 95.6832C149.817 94.328 149.89 93.9462 152.227 89.4226C153.597 86.7734 154.717 83.7881 154.717 82.7903C154.717 78.5204 152.871 72.7878 150.702 70.3225C149.447 68.895 148.419 67.2774 148.419 66.7267C148.419 65.3723 144.612 60.4715 143.56 60.4715C143.092 60.4715 143.29 61.2587 144.004 62.2392ZM14.3332 63.8104C15.6637 65.2143 16.5895 66.806 16.3903 67.3457C15.877 68.7347 17.8326 68.5635 20.0306 67.0276C21.0533 66.3126 22.9923 65.465 24.3385 65.1436L26.7869 64.5607L24.57 64.4798C23.3513 64.4358 21.6524 64.7736 20.7959 65.2316C19.5016 65.923 18.8592 65.6574 16.9894 63.6604C15.7518 62.3382 14.1041 61.2572 13.3271 61.2572C12.1737 61.2572 12.3595 61.7277 14.3332 63.8104ZM128.073 62.0946C127.058 62.5008 126.042 63.5386 125.816 64.402C125.59 65.2646 124.759 65.9709 123.968 65.9709C123.179 65.9709 122.326 66.304 122.073 66.7117C121.822 67.1195 118.929 68.9319 115.648 70.7396C109.173 74.3064 110.341 74.2207 101.774 71.7602C101.017 71.5425 100.396 71.6753 100.396 72.0555C100.396 72.8569 107.71 76.184 109.472 76.184C110.868 76.184 118.292 72.5049 120.258 70.8386C121.48 69.8032 122.045 69.9776 125.776 72.5419C128.062 74.1131 130.46 75.4557 131.107 75.5264C131.752 75.5971 130.332 75.8768 127.95 76.1487C123.463 76.6609 123.663 76.8628 129.963 78.174C131.538 78.5016 131.869 78.9298 131.484 80.1381C130.828 82.205 132.384 82.1202 133.506 80.0281C134.156 78.8174 134.629 78.6061 135.266 79.2424C135.746 79.7209 136.687 80.1003 137.358 80.0862C138.254 80.0666 138.084 79.6486 136.72 78.5149C135.199 77.2501 135.107 76.9696 136.214 76.9696C137.065 76.9696 137.405 76.5517 137.132 75.8423C136.894 75.2216 137.122 74.5428 137.638 74.3331C138.156 74.1225 137.494 73.923 136.167 73.8892C133.893 73.8303 126.412 70.7184 124.168 68.8981C123.37 68.25 123.69 67.8344 125.601 67.0323C126.955 66.4643 127.839 65.6402 127.566 65.2002C127.293 64.7595 127.357 64.3918 127.707 64.3824C128.057 64.3729 129.23 63.6737 130.312 62.8284C132.439 61.1684 131.313 60.7991 128.073 62.0946ZM97.2471 62.8284C97.2471 63.2605 96.8716 63.614 96.4134 63.614C95.9552 63.614 95.7985 63.2605 96.0662 62.8284C96.3339 62.3963 96.7086 62.0428 96.8999 62.0428C97.0912 62.0428 97.2471 62.3963 97.2471 62.8284ZM100.675 64.0226C100.45 64.6071 99.764 64.8938 99.1499 64.6589C97.9737 64.208 97.7195 63.4043 98.5051 62.621C99.3397 61.7882 101.098 62.9235 100.675 64.0226ZM104.332 64.3997C104.332 64.8317 103.801 65.1853 103.152 65.1853C102.502 65.1853 101.971 64.8317 101.971 64.3997C101.971 63.9676 102.502 63.614 103.152 63.614C103.801 63.614 104.332 63.9676 104.332 64.3997ZM87.8118 64.9889C87.8188 65.3125 88.1731 66.1084 88.599 66.7565C89.2737 67.7818 89.4697 67.7873 90.1098 66.7942C90.5144 66.1665 90.6703 65.3715 90.457 65.0266C89.9649 64.2323 87.796 64.2017 87.8118 64.9889ZM117.913 75.9185C116.035 76.675 116.941 77.4811 119.283 77.1385C120.577 76.9484 121.442 76.4794 121.204 76.096C120.741 75.3473 119.498 75.2805 117.913 75.9185ZM113.566 77.0733C112.818 77.4913 112.205 78.346 112.205 78.973C112.205 80.4939 112.694 80.4099 114.539 78.5692C116.268 76.8431 115.658 75.9051 113.566 77.0733ZM111.761 86.5794C112.329 90.8492 112.665 91.7001 113.467 90.8995C114.231 90.1367 112.924 82.469 112.03 82.469C111.502 82.469 111.408 83.9193 111.761 86.5794ZM124.069 84.3671C123.543 85.0003 123.221 86.1622 123.355 86.951C123.489 87.739 122.853 89.4391 121.941 90.729C119.889 93.6327 116.929 99.4078 116.929 100.507C116.929 100.956 117.372 101.317 117.913 101.308C118.454 101.3 120.378 98.1178 122.187 94.2376C123.997 90.3574 125.136 87.1827 124.718 87.1827C124.268 87.1827 124.317 86.5142 124.838 85.5439C125.904 83.5555 125.394 82.7738 124.069 84.3671ZM119.864 86.086C119.549 86.401 119.313 87.5724 119.34 88.6888L119.391 90.718L120.15 88.8215C120.969 86.7774 120.8 85.1535 119.864 86.086ZM134.326 97.8311C132.854 98.469 131.867 99.2091 132.133 99.4754C132.84 100.18 138.185 100.399 138.185 99.7236C138.185 99.4078 138.893 98.9655 139.759 98.7393C140.625 98.5138 141.334 97.9418 141.334 97.4697C141.334 96.2583 137.502 96.4562 134.326 97.8311ZM134.406 101.481C133.268 102.617 133.178 103.681 134.221 103.681C134.638 103.681 135.359 102.974 135.823 102.11C136.751 100.379 135.892 99.9978 134.406 101.481ZM37.0214 104.111C30.3682 106.599 30.4044 106.521 29.3778 121.038C28.4544 134.091 29.0267 143.536 30.7209 143.199C32.2734 142.89 32.7717 136.829 32.3718 123.135C32.1482 115.471 32.2167 109.238 32.5253 109.283C32.8331 109.329 40.9671 109.325 50.6017 109.273C68.4616 109.179 73.8866 108.154 61.2298 107.267C57.4414 107.002 52.0384 106.533 49.224 106.225L44.1068 105.665L50.4049 105.262C55.5764 104.932 56.2102 104.76 53.9476 104.305C47.5573 103.018 40.1704 102.934 37.0214 104.111ZM63.5451 103.551C57.0683 105.412 66.7201 106.603 79.9273 105.573C86.3175 105.075 86.9481 104.91 84.2572 104.436C79.2943 103.562 65.5503 102.975 63.5451 103.551ZM144.877 106.038C144.609 106.47 144.036 106.823 143.603 106.823C143.17 106.823 143.034 106.47 143.302 106.038C143.57 105.606 144.143 105.252 144.576 105.252C145.009 105.252 145.144 105.606 144.877 106.038ZM72.8947 107.924C73.1324 108.161 74.7235 108.585 76.4303 108.865C79.3959 109.351 80.9193 109.491 86.9324 109.82L89.6075 109.966L89.1241 116.221C88.6218 122.721 89.2091 124.303 91.4371 122.457C92.3432 121.708 92.496 120.76 92.0496 118.658C91.7229 117.118 91.3749 114.444 91.2765 112.716C91.1773 110.987 91.0639 109.384 91.023 109.152C90.9175 108.55 89.1942 108.347 80.328 107.894C76.002 107.673 72.6569 107.687 72.8947 107.924ZM138.759 108.083C138.497 108.344 137.818 108.373 137.25 108.146C136.622 107.895 136.809 107.709 137.726 107.671C138.556 107.637 139.02 107.823 138.759 108.083ZM92.5235 109.18C93.173 109.599 94.2358 109.923 94.8853 109.898C95.6639 109.87 95.5301 109.626 94.4917 109.18C92.3275 108.252 91.0844 108.252 92.5235 109.18ZM198.017 110.202L195.262 111.082L198.014 111.374C201.38 111.73 203.314 113.055 201.816 113.978C199.9 115.16 202.034 115.779 204.542 114.768C207.421 113.608 207.951 113.569 210.445 114.329C212.149 114.848 212.194 114.767 211.289 112.784C210.697 111.49 209.908 110.854 209.219 111.118C205.515 112.536 204.179 112.478 203.036 110.85C201.723 108.979 201.81 108.99 198.017 110.202ZM153.131 111.733C153.124 112.274 152.775 113.246 152.356 113.894C151.761 114.812 151.59 114.596 151.58 112.912C151.574 111.724 151.923 110.751 152.356 110.751C152.789 110.751 153.137 111.194 153.131 111.733ZM153.659 117.395C153.402 118.062 152.824 118.608 152.374 118.608C151.856 118.608 151.908 118.044 152.516 117.072C153.602 115.336 154.367 115.552 153.659 117.395ZM38.7825 121.492C35.2571 124.975 33.4787 127.346 33.4787 128.562C33.4787 129.569 33.6251 130.392 33.803 130.392C33.9818 130.392 35.7523 128.121 37.737 125.344C39.7225 122.568 42.2338 119.601 43.3171 118.75C44.4012 117.899 45.2877 116.989 45.2877 116.727C45.2877 115.479 43.6627 116.669 38.7825 121.492ZM62.2138 118.423C56.8211 121.826 51.7936 126.37 47.8305 131.424C38.8785 142.839 36.4412 148.985 39.6989 151.927L41.3513 153.419V149.912C41.3513 147.299 42.052 145.243 44.1028 141.845C48.491 134.573 58.6837 122.569 62.8444 119.773C67.3594 116.739 66.7965 115.532 62.2138 118.423ZM125.525 120.124C115.697 126.619 105.06 139.482 103.914 146.254C102.945 151.979 104.682 150.986 108.023 143.905C110.447 138.768 112.963 135.128 117.94 129.561C121.607 125.458 125.892 121.412 127.46 120.569C129.029 119.726 130.312 118.763 130.312 118.429C130.312 117.341 129.068 117.782 125.525 120.124ZM103.822 121.575C101.083 123.938 99.1853 127.096 100.018 127.906C100.314 128.193 101.14 127.608 101.853 126.605C102.567 125.601 104.162 123.569 105.398 122.087C108.085 118.865 107.268 118.601 103.822 121.575ZM69.4897 127.654C58.0248 136.312 50.7985 145.874 50.7985 152.386C50.7985 157.679 54.701 158.664 60.1276 154.742C63.4617 152.331 63.7632 152.379 62.6508 155.139C61.8399 157.153 63.0342 159.46 64.8874 159.46C65.6778 159.46 67.6137 158.587 69.189 157.52C71.3989 156.024 72.0546 155.849 72.0546 156.759C72.0546 157.407 72.5585 158.131 73.1741 158.367C74.7723 158.979 77.5623 157.292 77.5828 155.701C77.5923 154.96 78.2929 153.47 79.14 152.39C79.9871 151.309 80.6878 149.807 80.6972 149.051C80.7271 146.68 77.6419 147.483 72.4073 151.211C69.6763 153.155 67.2161 154.746 66.939 154.746C66.2265 154.746 75.2564 143.974 79.092 140.249C82.6465 136.797 83.5936 133.568 80.5791 135.178C79.6392 135.68 74.6802 139.572 69.5598 143.826C60.5968 151.273 56.6487 153.961 54.6711 153.961C53.0359 153.961 54.4601 148.813 57.3186 144.39C60.633 139.263 75.0329 125.232 78.5433 123.71L81.1082 122.597L78.6881 122.566C76.8995 122.544 74.4983 123.872 69.4897 127.654ZM153.207 123.911C153.172 124.451 152.409 125.625 151.512 126.521C149.983 128.046 149.853 129.308 149.425 146.75L148.968 165.352L135.507 165.482C128.103 165.553 119.425 165.853 116.222 166.149C106.1 167.083 111.679 168.077 127.163 168.096C135.174 168.107 143.5 168.328 145.667 168.588L149.606 169.06L149.669 185.866C149.726 201.049 150.017 204.479 151.15 203.349C151.352 203.147 151.72 197.52 151.967 190.845C152.214 184.17 152.609 176.482 152.846 173.762L153.276 168.815L164.822 169.285C175.653 169.726 176.481 169.657 178.198 168.165C179.206 167.29 179.805 166.211 179.53 165.767C179.23 165.282 179.983 164.959 181.418 164.959C183.604 164.959 183.747 165.117 183.1 166.816C182.41 168.626 182.522 168.684 187.646 169.167C190.536 169.439 196.72 169.665 201.388 169.668L209.877 169.673L209.654 175.369C209.521 178.79 209.746 181.065 210.22 181.065C210.682 181.065 211.057 177.929 211.128 173.472C211.29 163.317 210.95 162.951 200.617 162.177C196.372 161.858 184.86 161.845 175.034 162.149L157.169 162.699L156.771 160.098C156.552 158.667 156.164 150.832 155.909 142.686C155.597 132.736 155.087 127.065 154.358 125.403C153.76 124.042 153.242 123.371 153.207 123.911ZM90.1617 145.983V166.601L82.8795 166.418C74.9384 166.218 66.5438 167.14 66.5438 168.212C66.5438 168.584 71.8578 168.888 78.3528 168.888H90.1617V172.423C90.1617 177.163 91.5528 176.93 92.1976 172.082L92.7125 168.206L99.9002 168.35C105.829 168.47 107.088 168.288 107.088 167.316C107.088 166.335 105.853 166.18 99.7002 166.388C92.396 166.635 92.3173 166.618 92.7699 164.889C93.4722 162.211 91.7977 126.997 90.9269 126.128C90.4317 125.634 90.1617 132.633 90.1617 145.983ZM137.004 127.388C132.926 129.511 118.79 143.642 115.008 149.374C108.283 159.57 111.777 166.82 120.939 161.681C123.794 160.079 124.073 160.055 125.438 161.288C127.24 162.915 127.751 162.917 130.706 161.304C132.005 160.595 133.935 159.979 134.996 159.934C136.295 159.88 137.783 158.73 139.554 156.412C144.006 150.587 141.428 148.993 135.332 153.801C125.187 161.804 125.589 159.408 136.217 148.534C140.763 143.881 144.483 139.841 144.483 139.554C144.483 139.268 143.73 139.034 142.809 139.034C141.736 139.034 137.712 142.362 131.591 148.313C119.099 160.457 114.567 163.197 114.567 158.603C114.567 156.18 116.437 152.361 119.788 147.938C123.346 143.242 137.903 128.089 140.183 126.707C142.795 125.124 140.343 125.649 137.004 127.388ZM30.3296 157.057C30.3296 163.945 30.5957 169.713 30.9201 169.874C31.8128 170.317 59.5631 168.936 61.8202 168.335C64.9464 167.503 56.8227 166.698 44.3973 166.609L33.6661 166.531L33.1433 158.871C32.4324 148.447 31.8546 144.533 31.0271 144.533C30.6437 144.533 30.3296 150.169 30.3296 157.057ZM167.909 165.156C167.731 165.696 166.196 166.249 164.498 166.384C161.582 166.616 161.497 166.561 162.984 165.426C164.912 163.954 168.367 163.764 167.909 165.156ZM174.793 165.745C174.525 166.177 173.176 166.525 171.794 166.519C169.882 166.51 169.564 166.325 170.463 165.745C172.024 164.738 175.416 164.738 174.793 165.745ZM207.858 165.745C208.125 166.177 207.969 166.531 207.511 166.531C207.052 166.531 206.677 166.177 206.677 165.745C206.677 165.313 206.833 164.959 207.024 164.959C207.215 164.959 207.59 165.313 207.858 165.745ZM181.29 173.165C177.447 175.166 170.079 181.206 165.689 185.953C160.763 191.282 157.918 196.516 157.655 200.734C157.354 205.585 159.133 204.78 160.985 199.225C161.919 196.423 163.882 192.565 165.346 190.652C168.984 185.897 181.472 174.465 183.649 173.894C185.523 173.404 186.106 172.027 184.437 172.035C183.896 172.038 182.479 172.546 181.29 173.165ZM30.0139 182.44C29.7526 187.733 29.6282 199.576 29.7376 208.758L29.936 225.453H23.0167C14.4041 225.453 1.07173 226.877 0.0199467 227.91C-0.496499 228.417 9.0231 228.601 27.7065 228.443C43.3667 228.311 56.4456 227.937 56.7699 227.613C58.0445 226.339 55.8031 225.874 44.9806 225.17L33.7259 224.439L33.1992 202.206C32.6662 179.663 32.1742 172.816 31.0893 172.816C30.7587 172.816 30.2745 177.146 30.0139 182.44ZM125.149 176.41C118.005 180.699 112.552 185.148 106.971 191.239C99.0476 199.885 94.4578 210.57 97.4046 213.511C99.0192 215.122 99.6089 214.567 99.6089 211.437C99.6089 206.876 103.703 199.573 110.087 192.749C116.498 185.895 128.242 176.14 130.903 175.457C131.877 175.206 132.674 174.687 132.674 174.302C132.674 172.853 129.671 173.694 125.149 176.41ZM157.652 176.016C155.553 177.742 154.731 179.028 154.764 180.533C154.807 182.517 154.863 182.547 155.748 181.071C156.264 180.21 157.837 178.378 159.244 176.999C163.446 172.883 162.312 172.182 157.652 176.016ZM102.829 178.456C98.0493 181.658 95.6726 184.661 95.6726 187.496C95.6726 188.422 97.24 187.166 100.285 183.8C102.822 180.994 105.833 178.2 106.977 177.588C108.979 176.519 109.768 175.173 108.392 175.173C108.026 175.173 105.523 176.65 102.829 178.456ZM193.905 178.521C182.99 184.685 170.694 196.475 166.553 204.748C164.339 209.174 163.569 214.755 164.946 216.412C166.41 218.171 170.408 217.833 174.283 215.623C178.003 213.501 178.383 213.37 178.242 214.257C177.913 216.342 178.588 217.745 180.296 218.521C181.987 219.29 182.796 219.077 186.2 216.965C188.369 215.62 190.144 214.848 190.144 215.252C190.144 216.48 194.928 218.537 196.724 218.083C198.623 217.601 200.676 214.785 199.965 213.636C199.709 213.222 198.762 212.883 197.863 212.883C196.481 212.883 196.805 212.266 199.943 208.917C202.948 205.713 203.481 204.738 202.727 203.832C201.54 202.405 199.145 203.56 191.291 209.351C185.283 213.781 182.325 215.554 181.807 215.038C181.625 214.857 181.873 213.575 182.357 212.19C182.961 210.461 186.23 207.158 192.786 201.654C203.754 192.445 205.102 191.18 205.102 190.099C205.102 188.454 201.376 189.423 197.383 192.107C195.097 193.643 189.867 198.252 185.762 202.35C177.809 210.286 172.081 214.454 169.127 214.454C166.574 214.454 166.789 212.57 170.096 205.972C171.933 202.309 174.745 198.541 178.368 194.889C185.816 187.383 197.143 178.338 199.788 177.786C200.979 177.537 201.953 177.024 201.953 176.646C201.953 175.208 198.24 176.074 193.905 178.521ZM90.1617 182.636C90.1617 185.445 90.4782 187.743 90.8648 187.743C91.9717 187.743 92.2519 186.104 91.9055 181.654C91.4497 175.803 90.1617 176.529 90.1617 182.636ZM133.95 183.017C127.229 187.395 115.588 198.164 112.078 203.25C109.254 207.342 107.304 212.655 107.917 214.586C108.759 217.233 111.101 217.797 114.35 216.133L117.298 214.623L118.097 217.092C119.114 220.23 122.147 220.747 125.915 218.424C128.49 216.835 128.646 216.828 131.212 218.174C132.665 218.937 133.973 219.825 134.117 220.15C134.262 220.474 135.018 220.739 135.797 220.739C137.554 220.739 143.152 214.697 142.449 213.561C141.921 212.71 139.012 212.953 136.217 214.081C135.351 214.431 136.702 212.539 139.219 209.878C143.615 205.23 144.259 203.455 141.554 203.455C140.859 203.455 137.072 205.87 133.136 208.822C122.048 217.139 119.516 218.006 123.634 212.077C125.952 208.739 139.373 196.128 143.105 193.782C145.41 192.332 145.962 190.885 144.211 190.885C142.26 190.885 133.158 197.315 127.793 202.483C123.026 207.076 113.674 213.667 111.923 213.667C110.819 213.668 112.15 209.578 114.352 206.205C119.52 198.285 139 180.672 142.591 180.672C143.714 180.672 144.365 180.331 144.089 179.886C143.059 178.222 139.733 179.25 133.95 183.017ZM71.1926 183.133C64.852 187.215 54.2947 197.696 50.4238 203.751C43.4675 214.635 47.6959 221.01 57.0029 213.668C61.3337 210.251 61.995 209.944 61.3415 211.643C60.685 213.35 62.4673 216.025 64.2615 216.025C66.2155 216.025 68.6765 214.805 71.1965 212.588C72.7797 211.195 73.012 211.146 72.5994 212.293C72.327 213.049 72.3081 214.198 72.5569 214.847C73.1718 216.445 75.991 216.362 75.991 214.745C75.991 214.041 77.2309 212.096 78.7464 210.422C81.9277 206.909 82.4875 203.455 79.8753 203.455C77.7198 203.455 75.6902 204.578 70.4313 208.681C68.0231 210.559 65.799 212.097 65.4904 212.097C63.9206 212.097 67.9845 206.983 74.7306 200.47C78.8881 196.457 82.2891 192.836 82.2891 192.423C82.2891 192.009 81.6915 191.671 80.9602 191.671C79.551 191.671 74.7022 195.278 62.7326 205.23C58.6885 208.593 54.3483 211.876 53.0887 212.527C50.8205 213.697 50.7985 213.687 50.7985 211.485C50.7985 210.262 51.8928 207.54 53.2304 205.436C56.3369 200.547 73.1482 183.373 76.1059 182.066C77.3419 181.52 78.3528 180.807 78.3528 180.48C78.3528 179.17 75.987 180.046 71.1926 183.133ZM45.4585 188.358C40.8215 192.985 38.2023 197.272 38.2023 200.235C38.2023 203.124 39.7382 202.016 41.634 197.759C42.6448 195.491 45.3278 191.426 47.5967 188.725C52.7785 182.557 51.4921 182.337 45.4585 188.358ZM209.453 195.99C209.144 200.095 209.144 208.346 209.454 214.326L210.015 225.2L195.254 225.69C187.136 225.959 180.304 226.369 180.07 226.602C179.838 226.834 179.908 227.284 180.226 227.601C181.026 228.399 228.5 228.353 236.002 227.546C246.583 226.408 242.774 225.453 227.657 225.453H213.211L212.693 215.829C211.426 192.313 211.135 188.528 210.591 188.528C210.273 188.528 209.761 191.886 209.453 195.99ZM89.8634 198.152C89.6217 201.717 89.2139 209.222 88.9572 214.829C88.7014 220.436 88.3069 225.209 88.0818 225.435C87.8566 225.661 84.1581 225.967 79.8635 226.116C71.5414 226.403 69.711 227.275 75.7076 228.095C80.4264 228.741 97.5352 228.741 102.254 228.095C107.402 227.391 106.798 226.238 101.282 226.238C98.7382 226.238 95.5498 226.017 94.1965 225.747L91.7363 225.256V208.463C91.7363 191.558 90.6986 185.842 89.8634 198.152ZM150.514 208.529C150.228 210.612 149.994 215.448 149.994 219.278V226.238L130.903 226.293C120.403 226.324 111.103 226.625 110.237 226.962L108.662 227.577L110.237 228.025C116.167 229.713 169.389 229.05 172.304 227.252C172.721 226.995 172.407 226.306 171.607 225.721C170.486 224.903 168.212 224.775 161.74 225.167L153.329 225.677L152.744 216.727C152.037 205.915 151.264 203.072 150.514 208.529ZM62.6075 227.024C62.6075 228.029 68.1349 228.029 69.6929 227.024C70.5384 226.479 69.6992 226.259 66.7406 226.25C64.4678 226.244 62.6075 226.592 62.6075 227.024Z" fill="white"/>
</svg>
