<svg width="232" height="172" viewBox="0 0 232 172" fill="none" xmlns="http://www.w3.org/2000/svg">
<path fill-rule="evenodd" clip-rule="evenodd" d="M214.179 0.037435C213.76 0.0659894 212.015 0.160204 210.3 0.247089C198.835 0.827034 181.447 1.86874 170.756 2.61604C168.958 2.74186 165.022 3.01703 162.011 3.2276C154.501 3.75272 146.794 4.31663 142.163 4.68005C140.029 4.84741 136.026 5.15754 133.265 5.36948C124.744 6.02333 112.821 6.95937 110.983 7.11864C110.021 7.20216 108.379 7.3373 107.333 7.4193C101.517 7.87464 91.6591 8.66699 90.1467 8.8009C88.498 8.94673 83.2152 9.37291 72.1997 10.2489C56.3988 11.5053 37.7794 12.9181 26.952 13.6819C24.5262 13.8531 21.5832 14.0619 20.412 14.1461C19.2409 14.2302 16.6744 14.402 14.7086 14.528C12.7428 14.6538 10.1762 14.8254 9.00507 14.9093C7.83395 14.9929 5.75302 15.1319 4.38083 15.2177C1.09365 15.4237 0.826725 15.5517 0.207555 17.2173C0.00694383 17.7571 -0.0357946 18.206 0.0264114 19.126C0.0709747 19.7875 0.178809 21.7718 0.26611 23.5355C0.442082 27.0951 0.941099 35.4995 1.17274 38.8052C1.25502 39.981 1.4278 42.4547 1.55662 44.3023C2.57047 58.844 3.88349 74.1054 7.02786 107.901C9.74272 137.08 10.9617 151.265 11.9026 164.628C12.1843 168.626 12.3802 170.581 12.533 170.915C12.8361 171.577 13.6244 171.921 15.0127 171.996C16.6587 172.085 36.849 170.727 58.8155 169.05C73.6429 167.918 96.6199 166.098 113.721 164.702C117.683 164.378 120.205 164.175 127.866 163.563C171.163 160.104 198.024 158.277 227.42 156.792C229.056 156.709 230.317 156.576 230.538 156.461C231.156 156.141 231.878 155.369 231.976 154.922C232.074 154.47 231.892 151.679 231.053 140.807C229.995 127.086 228.644 111.889 225.576 79.1937C222.675 48.2706 220.902 25.293 219.874 5.29558C219.698 1.87057 219.584 1.343 218.946 0.999889C218.767 0.903995 218.466 0.644255 218.276 0.42269C217.95 0.0410989 217.854 0.0191105 216.435 0.00277184C215.612 -0.00669541 214.597 0.0088805 214.179 0.037435ZM216.536 2.55649C216.536 3.01351 216.556 3.02787 217.05 2.93487L217.564 2.83806L217.667 4.78831C218.885 27.9107 220.371 46.9449 223.914 84.8436C224.897 95.3627 226.083 108.172 226.495 112.711C226.703 115.01 226.913 117.384 227.634 125.614C228.211 132.2 229.22 145.073 229.661 151.469C229.801 153.509 229.805 154.227 229.675 154.335C229.47 154.506 228.973 154.541 221.099 154.941C210.637 155.473 194.951 156.418 183.152 157.227C180.726 157.394 177.714 157.6 176.459 157.686C169.547 158.159 147.045 159.847 135.851 160.734C128.743 161.296 116.728 162.256 114.824 162.413C111.367 162.698 109.247 162.871 106.421 163.099C104.873 163.224 100.63 163.568 96.9909 163.863C88.6405 164.54 83.3396 164.958 69.9183 165.998C64.0209 166.455 58.2718 166.901 57.1425 166.99C51.8456 167.408 36.1315 168.53 28.3209 169.049C25.1421 169.26 22.0623 169.468 21.4767 169.511C16.7604 169.856 15.2766 169.904 14.8693 169.723L14.4457 169.535L14.2654 167.005C13.1365 151.172 11.75 134.974 9.08173 106.45C8.50043 100.235 7.88399 93.6046 7.71198 91.7149C7.53996 89.8253 7.26573 86.8363 7.10254 85.0726C6.9395 83.3089 6.63227 79.8732 6.4201 77.4377C6.20793 75.0022 5.96656 72.288 5.88382 71.4062C4.77491 59.5923 2.98021 34.4912 2.36621 22.2061C2.19739 18.8267 2.20256 18.405 2.41564 18.1596C2.54644 18.0089 2.62249 17.7998 2.58462 17.6948C2.54674 17.5897 2.62842 17.5039 2.76606 17.5039C2.90386 17.5039 3.98752 17.4352 5.1743 17.3512C6.36109 17.2672 9.96706 17.0266 13.1876 16.8163C28.1224 15.8415 52.7484 14.0079 74.7532 12.2322C76.2831 12.1088 80.5265 11.7677 84.183 11.4742C87.8394 11.1807 93.3977 10.7318 96.5346 10.4763C99.6715 10.221 103.949 9.87589 106.04 9.70945C108.132 9.54286 111.109 9.30389 112.656 9.17837C123.996 8.25791 142.471 6.83553 154.178 5.98149C160.773 5.5005 164.245 5.25832 176.155 4.44887C185.192 3.83457 199.803 2.97503 209.844 2.46701C214.486 2.23216 215.771 2.16054 216.27 2.10893C216.472 2.08801 216.536 2.19536 216.536 2.55649ZM197.676 15.9096C186.062 16.5305 169.921 17.5042 162.467 18.0341C160.71 18.1588 156.741 18.436 153.646 18.6497C147.994 19.0402 145.184 19.2457 133.797 20.1014C127.295 20.5901 124.856 20.7779 116.991 21.396C114.314 21.6064 109.489 21.9856 106.269 22.2386C103.048 22.4916 98.7362 22.8346 96.6867 23.0007C94.6372 23.1667 91.5916 23.4095 89.9186 23.54C88.2455 23.6706 84.7208 23.9467 82.0858 24.1536C77.6078 24.5051 65.2504 25.4599 58.5113 25.9753C54.9569 26.2471 46.1649 26.8872 41.629 27.2042C39.8305 27.33 37.4351 27.4996 36.3058 27.5813C35.1765 27.663 30.9673 27.9396 26.952 28.1958C22.9368 28.452 19.2913 28.6986 18.8508 28.7438L18.05 28.8261L18.1331 30.2273C18.1787 30.9979 18.353 34.0678 18.5205 37.0492C19.3695 52.171 20.5247 66.6047 22.9932 92.9365C23.2884 96.0859 23.5998 99.3155 23.6849 100.113C23.858 101.733 25.2488 116.555 25.9558 124.316C26.6065 131.457 27.1543 137.831 27.6359 143.861C27.8267 146.253 28.5463 156.013 28.548 156.233C28.549 156.397 29.5931 156.344 40.6404 155.62C53.3479 154.786 83.8882 152.525 96.3065 151.497C97.8122 151.373 101.269 151.098 103.987 150.888C106.706 150.677 109.751 150.437 110.755 150.354C115.039 150 131.524 148.703 139.957 148.056C166.602 146.013 188.807 144.54 206.574 143.638C209.92 143.469 213.207 143.29 213.878 143.241L215.098 143.152L214.987 141.598C213.956 127.173 212.996 116.043 210.758 92.5548C207.352 56.8116 206.222 43.4031 205.283 27.5819C204.65 16.8965 204.647 16.8287 204.815 16.3842C205.063 15.7309 205.017 15.5167 204.635 15.5375C204.447 15.5477 201.315 15.7152 197.676 15.9096ZM202.768 22.0914C203.764 39.7304 205.897 65.8338 208.246 89.1191C208.369 90.3368 208.536 92.0547 208.618 92.9365C208.699 93.8184 208.938 96.3608 209.149 98.5863C210.78 115.808 212.734 138.77 212.734 140.72V141.137L208.817 141.325C189.349 142.257 159.688 144.286 122.543 147.228C118.82 147.523 113.653 147.931 111.059 148.136C108.466 148.34 104.154 148.681 101.478 148.894C98.8008 149.106 93.9756 149.487 90.7551 149.739C87.5345 149.992 83.5991 150.3 82.0097 150.425C64.8652 151.773 33.1673 154.016 31.2683 154.016H30.5904L30.1717 148.48C29.3069 137.049 28.3712 126.456 26.2702 104.312C25.5212 96.418 24.8369 89.2031 24.7497 88.2792C22.6539 66.0843 21.5494 51.8586 20.4089 32.3741L20.3184 30.8292L21.8101 30.7304C22.6305 30.6762 26.4159 30.4256 30.222 30.1738C46.0742 29.1248 60.7217 28.0321 90.679 25.6638C117.697 23.5277 119.402 23.3945 135.47 22.1622C145.9 21.3624 163.183 20.1476 172.429 19.5641C182.598 18.9225 202.35 17.8194 202.499 17.8849C202.517 17.8925 202.638 19.7855 202.768 22.0914ZM151.477 38.8779C149.616 39.0208 148.065 39.166 148.033 39.2006C147.94 39.2972 147.636 56.1211 147.637 61.0609C147.638 64.6507 147.6 65.451 147.432 65.451C147.281 65.451 147.178 64.9742 147.045 63.6568C146.827 61.4889 146.478 59.006 145.667 53.8459C145.33 51.7043 144.69 47.634 144.244 44.8007C143.799 41.9674 143.398 39.613 143.354 39.5686C143.261 39.4757 135.311 40.0595 135.204 40.167C135.165 40.2061 135.102 46.0999 135.063 53.2645C135.024 60.4532 134.933 66.3123 134.86 66.3387C134.71 66.393 134.713 66.4094 134.182 62.5497C133.762 59.4988 130.666 40.5732 130.572 40.4783C130.52 40.4266 122.197 41.0116 122.138 41.0709C122.124 41.0845 122.655 43.1571 123.317 45.6766C126.137 56.4119 127.477 61.5306 129.326 68.635L131.288 76.1708L132.809 76.0732C133.645 76.0195 135.151 75.9106 136.155 75.831C137.159 75.7516 138.356 75.6635 138.816 75.6353L139.653 75.584L139.692 61.8012C139.722 50.8883 139.77 48.0317 139.92 48.0817C140.027 48.1175 140.159 48.5699 140.224 49.1248C140.465 51.1807 141.308 56.9767 142.543 65.0692C143.247 69.6883 143.87 73.8626 143.927 74.3456C144.016 75.106 144.072 75.2233 144.351 75.221C144.975 75.2161 152.384 74.6318 152.423 74.5844C152.459 74.5407 153.083 68.9677 155.474 47.3563C155.929 43.2411 156.341 39.582 156.39 39.2251L156.478 38.5762L155.67 38.5971C155.226 38.6085 153.339 38.735 151.477 38.8779ZM106.5 41.6297C102.465 42.3641 98.9792 45.709 97.3851 50.3759C96.005 54.4164 95.7503 59.7027 96.6979 64.6333C97.897 70.872 101.02 75.6249 105.109 77.4345C108.238 78.8195 112.553 78.4938 115.765 76.6302C117.028 75.8979 119.1 73.7359 120.017 72.1961C122.393 68.2026 123.224 62.4306 122.307 56.2891C121.517 51.0004 119.511 46.8483 116.526 44.3265C115.337 43.322 113.238 42.2432 111.744 41.8688C110.565 41.5732 107.562 41.4364 106.5 41.6297ZM86.9121 43.6126C85.0913 43.7569 83.5585 43.9182 83.5057 43.971C83.4227 44.0544 83.6107 47.0735 84.2253 55.5256C84.3077 56.6594 84.5101 58.8511 84.6753 60.396C84.8405 61.941 84.9755 63.3324 84.9755 63.4882C84.9755 63.847 84.6891 63.8583 84.5778 63.5041C84.4003 62.9389 82.3268 57.6945 81.9366 56.8235C81.7107 56.3196 80.4184 53.3993 79.0646 50.3339C77.711 47.2685 76.5509 44.6771 76.4872 44.5751C76.3969 44.4308 75.4455 44.4587 72.1953 44.701C69.8987 44.8724 68.0077 45.0244 67.9934 45.0391C67.9676 45.0654 68.1594 47.7669 69.2252 62.397C70.3278 77.5275 70.5545 80.4932 70.6143 80.5537C70.6701 80.6102 78.4667 80.1093 78.5456 80.0441C78.5645 80.0287 78.5175 79.2298 78.4413 78.2687C78.3651 77.3078 78.2304 75.5252 78.1417 74.3074C77.653 67.5906 77.4749 65.4227 77.2086 62.9499C77.0469 61.4483 76.9146 60.1943 76.9146 60.1632C76.9146 60.132 77.0098 60.1065 77.1263 60.1065C77.2427 60.1065 77.3837 60.2893 77.4395 60.5126C77.6895 61.5132 79.7689 66.5223 82.5002 72.7041C84.1329 76.3994 85.4923 79.4491 85.5211 79.4811C85.5761 79.5425 92.1397 79.0962 93.3788 78.9468C93.7762 78.8989 94.0747 78.8146 94.0421 78.7595C93.954 78.6109 92.2938 56.2807 91.5881 45.753C91.5402 45.0391 91.4641 44.1974 91.4188 43.8824C91.3216 43.2043 91.747 43.2296 86.9121 43.6126ZM110.2 49.3296C110.746 49.6132 111.744 50.7066 112.255 51.5813C112.806 52.5254 113.387 54.2404 113.746 55.9837C114.189 58.1343 114.307 63.3465 113.955 65.2219C113.308 68.673 111.879 70.5214 109.845 70.5404C108.049 70.557 106.582 69.0019 105.593 66.032C104.78 63.5896 104.352 59.9809 104.492 56.7472C104.706 51.8308 106.294 49.1268 108.976 49.1157C109.419 49.1138 109.97 49.21 110.2 49.3296ZM169.973 87.3624C167.756 87.785 165.908 88.7228 164.243 90.2707C160.176 94.0515 158.465 100.878 159.576 108.893C160.708 117.065 163.931 122.347 168.673 123.804C170.23 124.282 172.336 124.172 173.565 123.548C174.461 123.093 175.692 122.015 176.414 121.052L176.8 120.538L177.832 121.789L178.864 123.041L180.171 122.947C180.89 122.895 181.81 122.814 182.215 122.766L182.952 122.68L182.859 121.513C182.807 120.871 182.597 117.975 182.391 115.078C182.021 109.86 181.789 106.71 181.619 104.589C181.559 103.852 181.472 103.51 181.352 103.549C181.255 103.58 178.916 103.758 176.155 103.945C173.395 104.131 171.117 104.298 171.094 104.315C171.071 104.332 171.156 105.679 171.283 107.307C171.41 108.935 171.515 110.387 171.515 110.533C171.516 110.773 171.649 110.789 172.862 110.703L174.207 110.607L174.305 111.43C174.453 112.666 174.424 114.777 174.251 115.402C173.8 117.033 172.115 117.306 170.682 115.98C169.042 114.462 167.963 110.739 167.632 105.458C167.408 101.875 168.226 98.3197 169.712 96.426C170.59 95.3062 172.463 94.4635 174.074 94.4635C175.433 94.4635 177.895 95.3856 179.235 96.3966C179.507 96.6017 179.729 96.7297 179.729 96.681C179.729 96.3739 179.261 90.1205 179.19 89.4794L179.103 88.6947L178.212 88.293C175.976 87.2858 172.459 86.8886 169.973 87.3624ZM152.733 89.1379C151.98 89.1962 150.185 89.3301 148.744 89.4353C146.215 89.6199 146.126 89.6378 146.187 89.9455C146.222 90.1208 146.289 90.8827 146.337 91.6386C146.639 96.4373 147.222 103.844 147.5 106.419C147.93 110.401 147.855 110.505 146.725 107.494C145.946 105.417 144.781 102.654 142.839 98.2809C142.187 96.8112 141.124 94.4062 140.477 92.9365L139.301 90.2643L137.956 90.2874C136.508 90.3123 132.065 90.6103 131.241 90.7378L130.739 90.8157L130.828 91.838C130.876 92.4003 131.187 96.6394 131.518 101.259C131.849 105.878 132.19 110.585 132.277 111.718C132.363 112.852 132.64 116.593 132.892 120.032C133.144 123.471 133.37 126.304 133.395 126.329C133.44 126.375 139.123 125.979 140.599 125.827L141.393 125.746L141.318 125.107C141.277 124.756 141.039 121.617 140.79 118.132C140.541 114.646 140.234 110.833 140.108 109.657C139.676 105.629 139.682 105.722 139.878 105.787C139.978 105.821 140.49 106.98 141.015 108.364C141.54 109.747 142.481 112.047 143.107 113.474C146.56 121.351 148.159 124.946 148.281 125.106C148.356 125.205 148.635 125.259 148.902 125.225C149.169 125.191 151.03 125.049 153.037 124.909C155.045 124.769 156.705 124.641 156.726 124.624C156.766 124.594 156.324 118.253 155.624 108.817C155.416 106.004 155.005 100.409 154.71 96.3837C154.416 92.3587 154.159 89.058 154.139 89.0487C154.118 89.0394 153.486 89.0795 152.733 89.1379ZM121.259 91.4332C119.256 91.5925 117.585 91.7551 117.545 91.7946C117.506 91.8342 117.731 95.3884 118.045 99.6928C118.358 103.997 118.676 108.378 118.75 109.428C118.825 110.478 118.956 112.333 119.043 113.551C119.129 114.768 119.235 116.177 119.278 116.681C119.387 117.966 119.612 121.091 119.825 124.271C119.925 125.757 120.056 127.055 120.117 127.154C120.201 127.291 121.194 127.261 124.28 127.029C126.509 126.861 128.368 126.688 128.411 126.645C128.454 126.601 128.418 125.716 128.331 124.677C128.244 123.639 127.794 117.532 127.332 111.108C126.528 99.9304 126.157 94.8633 125.951 92.2876L125.857 91.1041L125.378 91.1239C125.115 91.1347 123.261 91.274 121.259 91.4332ZM103.911 92.7192C103.744 92.7449 100.938 92.9472 97.6753 93.1688C94.4129 93.3903 91.6048 93.5982 91.4349 93.6304C91.1393 93.6864 91.1312 93.7551 91.2437 95.2597C91.4048 97.4118 92.9594 118.829 93.3639 124.469C93.5446 126.988 93.733 129.097 93.7828 129.155C93.8324 129.213 95.6525 129.128 97.8274 128.966C100.002 128.804 101.843 128.671 101.919 128.67C101.997 128.669 102.013 128.064 101.956 127.255C101.272 117.553 101.089 115.068 101.021 114.581L100.942 114.009H101.846C103.343 114.009 104.145 114.504 104.817 115.841C105.371 116.944 105.585 117.776 106.666 123.018C107.229 125.747 107.734 128.034 107.789 128.099C107.867 128.192 116.778 127.651 116.859 127.548C116.87 127.534 116.587 126.526 116.23 125.308C115.872 124.091 115.091 121.411 114.494 119.353C113.896 117.296 113.192 115.165 112.929 114.62C112.011 112.717 110.201 111.261 108.272 110.875L107.446 110.709L108.45 110.192C112.293 108.213 114.25 105.211 114.224 101.335C114.197 97.3476 112.243 94.4565 108.778 93.2746C107.359 92.7907 105.116 92.5348 103.911 92.7192ZM81.7223 94.327C79.7238 94.4817 78.0623 94.6345 78.0302 94.6669C77.998 94.6991 78.0754 96.1268 78.2021 97.8393C78.5683 102.789 79.7046 118.412 80.2483 125.972C80.4105 128.227 80.5779 130.106 80.6202 130.148C80.7189 130.248 88.7569 129.656 88.8712 129.541C88.9531 129.459 88.8171 127.33 88.1718 118.581C88.0133 116.435 87.5689 110.251 87.1839 104.839C86.799 99.4263 86.4496 94.7747 86.4073 94.5017C86.3167 93.9156 86.8037 93.9338 81.7223 94.327ZM70.4507 95.1639C69.1959 95.2642 67.365 95.3959 66.3822 95.4563L64.5951 95.5661L64.5963 96.0456C64.5975 96.5158 65.251 105.772 65.4463 108.084C65.5657 109.498 65.9055 109.348 62.0308 109.595C58.8767 109.796 58.9768 109.827 58.966 108.664C58.9544 107.427 58.0812 96.2713 57.9886 96.1783C57.9389 96.1284 56.8214 96.1701 55.5052 96.2707C54.189 96.3715 52.3668 96.498 51.4557 96.5521L49.7995 96.6503L49.8965 98.1147C49.9499 98.92 50.1651 101.915 50.3748 104.771C50.5846 107.626 50.928 112.333 51.1382 115.23C51.3482 118.128 51.6527 122.319 51.8147 124.545C51.9767 126.77 52.156 129.313 52.213 130.195C52.3327 132.043 52.3441 132.147 52.4372 132.24C52.4752 132.278 53.6693 132.217 55.0906 132.103C56.5119 131.989 58.3421 131.85 59.1577 131.794C60.2279 131.721 60.6407 131.638 60.6407 131.493C60.6407 131.178 59.7486 118.933 59.644 117.813L59.55 116.807L62.5669 116.591C64.2261 116.473 65.6862 116.376 65.8115 116.376C66.0498 116.376 66.106 116.912 66.5625 123.552C66.6606 124.98 66.8054 126.904 66.8842 127.828C66.963 128.752 67.0278 129.864 67.0281 130.3C67.0283 130.736 67.0798 131.12 67.1426 131.153C67.2518 131.211 71.4668 130.934 74.1766 130.692L75.4693 130.576L75.4294 130.042C75.4075 129.748 75.2177 127.103 75.0075 124.163C74.7973 121.224 74.4264 116.105 74.1832 112.787C73.94 109.47 73.5555 104.145 73.3286 100.953C73.1018 97.7618 72.8749 95.1125 72.8242 95.066C72.7736 95.0195 71.7054 95.0634 70.4507 95.1639ZM103.793 100.039C105.189 100.455 105.875 101.642 105.866 103.625C105.856 106.032 104.486 107.257 101.539 107.498L100.536 107.58L100.359 105.259C100.261 103.983 100.138 102.272 100.085 101.457L99.9879 99.9756L101.037 99.9217C101.614 99.8921 102.296 99.8543 102.553 99.8378C102.809 99.8214 103.368 99.9118 103.793 100.039Z" fill="white"/>
</svg>
