<svg width="1735" height="704" viewBox="0 0 1735 704" fill="none" xmlns="http://www.w3.org/2000/svg">
<path opacity="0.05" fill-rule="evenodd" clip-rule="evenodd" d="M1198.94 3.10907C1181.46 9.5836 1172.98 19.0279 1159.95 46.5857C1153.45 60.3098 1146.81 72.3591 1145.19 73.3622C1141.49 75.645 1141.32 94.7677 1144.93 101.625C1146.53 104.668 1146.35 113.696 1144.48 123.897C1141.45 140.46 1140.96 141.114 1130.39 142.862C1124.37 143.859 1111.91 144.719 1102.72 144.774C1072.39 144.956 1053.78 158.592 1034.58 194.694C1030.26 202.825 1026.72 211.929 1026.72 214.926C1026.72 217.924 1025.36 221.219 1023.68 222.252C1022.01 223.286 1020.64 232.848 1020.64 243.505C1020.64 264.422 1021.36 263.586 999.9 267.911C977.837 272.361 960.148 297.898 964.195 319.458C965.945 328.796 965.556 329.495 959.483 327.905C955.078 326.753 951.482 328.057 948.752 331.787C943.405 339.104 943.67 363.029 949.208 372.716C951.598 376.896 953.601 384.726 953.662 390.115C953.747 397.985 951.971 400.846 944.648 404.633C924.759 414.919 884.33 428.118 865.632 430.434C847.277 432.708 845 433.863 833.218 446.872C826.251 454.569 818.891 460.867 816.864 460.867C814.836 460.867 806.592 454.07 798.543 445.763C784.645 431.419 783.435 430.823 774.541 433.923C763.433 437.796 759.782 443.748 757.271 462.08L755.405 475.698L747.696 470.646C735.78 462.84 699.178 418.54 690.745 401.721C681.565 383.41 684.255 378.96 705.984 376.513C720.152 374.914 720.365 375.026 737.476 393.006C760.138 416.819 781.253 429.449 790.992 425.011C797.391 422.096 798.236 422.637 799.844 430.689C801.096 436.945 803.419 439.589 807.662 439.589C812.204 439.589 814.554 436.383 817.131 426.671C819.019 419.564 824.415 406.913 829.123 398.554C840.164 378.96 847.375 354.156 847.375 335.781C847.375 326.927 849.867 316.449 853.74 309.02C861.418 294.286 864.799 264.002 859.804 254.673C857.865 251.053 853.755 248.089 850.67 248.089C845.709 248.089 844.918 244.828 843.824 219.823C842.341 185.934 835.115 170.924 811.769 153.23C790.402 137.041 780.654 132.621 766.257 132.6C748.459 132.575 740.03 136.463 722.636 152.731C702.521 171.547 696.813 181.45 685.842 216.544C680.759 232.803 672.689 253.05 667.904 261.537C652.267 289.283 631.979 338.195 611.746 396.927C600.818 428.656 587.054 465.87 581.166 479.631C566.626 513.6 567.499 523.676 585.805 533.236C593.249 537.124 604.712 545.158 611.278 551.088C632.855 570.578 673.391 585.394 705.33 585.458C721.666 585.491 723.809 584.634 736.379 573.05L749.882 560.605L748.252 575.33C747.359 583.427 748.222 601.681 750.176 615.891C756.186 659.574 755.97 661.821 745.164 668.174C736.561 673.232 733.555 673.408 713.246 670.064C694.217 666.93 689.593 664.936 682.693 656.875C673.059 645.625 643.813 629.427 627.748 626.448C621.31 625.253 616.349 622.563 616.349 620.268C616.349 618.031 611.582 612.566 605.758 608.122C589.832 595.978 584.227 584.585 570.554 536.607C557.276 490.012 547.88 470.026 535.414 461.858C528.252 457.168 528.103 456.606 533.277 453.782C542.451 448.772 543.63 444.951 541.642 426.619C539.77 409.317 539.861 409.047 548.622 405.995C557.167 403.016 557.534 402.089 558.565 380.969C560.34 344.484 559.158 326.282 554.075 311.923C542.162 278.249 523.607 264.312 486.634 261.26C440.523 257.455 413.128 276.51 407.693 316.172C406.589 324.215 407.477 346.332 409.666 365.318L413.642 399.842L406.571 405.566C401.191 409.922 399.607 414.083 399.941 422.974C400.367 434.303 400.239 434.458 395.719 428.005C392.169 422.935 387.983 421.351 378.149 421.351C350.383 421.351 315.881 448.532 298.308 484.254C287.936 505.338 278.756 511.323 263.706 506.815C230.758 496.942 193.815 509.475 193.815 530.528C193.815 543.373 200.338 547.127 218.951 544.99C227.696 543.984 237.932 542.267 241.698 541.173C247.407 539.516 249.252 540.887 252.808 549.422C261.612 570.563 266.898 660.328 260.201 675.022L256.675 682.764H127.717C25.9015 682.764 -0.973453 683.563 0.0266453 686.564C1.00547 689.503 29.297 690.543 124.945 691.157C243.753 691.92 248.835 692.187 254.644 697.996C260.466 703.817 264.925 704.039 373.924 703.996C436.203 703.969 489.066 702.741 491.4 701.264C493.732 699.786 494.802 696.385 493.774 693.71C492.747 691.032 492.27 688.843 492.713 688.843C493.157 688.843 506.453 691.923 522.257 695.683C549.221 702.099 557.124 702.498 650.486 702.151C737.446 701.829 750.943 701.148 757.639 696.762C767.351 690.4 767.415 683.597 757.803 679.22L750.31 675.803L756.806 669.055C763.226 662.386 763.412 662.371 772.823 667.924C787.165 676.384 825.907 681.655 840.854 677.177C851.503 673.985 857.74 674.782 896.309 684.254L939.77 694.923H1052.98C1118.89 694.923 1166.92 693.75 1167.93 692.117C1168.88 690.573 1173.84 688.394 1178.95 687.272C1184.6 686.032 1189.54 682.342 1191.59 677.834C1193.87 672.852 1195.7 671.617 1197.21 674.061C1198.44 676.055 1212.91 680.42 1229.36 683.761C1257.41 689.457 1274.01 689.907 1497.13 690.995C1651 691.749 1735 691.108 1735 689.184C1735 687.284 1651.41 685.728 1503.21 684.868C1347.48 683.968 1265.44 682.387 1253.19 680.053C1243.16 678.144 1227.79 675.144 1219.04 673.387L1203.14 670.195L1211.04 654.595C1215.39 646.014 1220.7 628.922 1222.84 616.611C1224.97 604.301 1227.41 593.543 1228.25 592.704C1229.09 591.865 1232.13 598.449 1235.01 607.334C1250.35 654.595 1259.87 664.106 1287.71 659.994C1299.42 658.267 1304.16 655.398 1315.51 643.19C1323.03 635.093 1333.04 627.004 1337.74 625.22C1342.55 623.393 1368.15 621.97 1396.14 621.97H1445.98L1449.51 609.052C1452.89 596.686 1450.61 568.135 1444.83 550.538C1443.74 547.194 1447.63 553.866 1453.48 565.365C1459.33 576.862 1468.98 590.725 1474.93 596.17C1486.42 606.696 1488.3 613.016 1481.62 618.566C1476.33 622.952 1395.64 628.527 1371.74 626.156C1361.43 625.132 1347.94 625.849 1340.7 627.804C1319.97 633.403 1311.92 651.51 1324.94 663.295C1330.87 668.663 1337.81 669.152 1420.07 670.01C1506.44 670.912 1509.03 670.763 1516.96 664.529C1534 651.121 1534.16 623.11 1517.47 570.296C1497.46 506.958 1480.14 486.288 1434.55 471.378C1402.93 461.037 1370.41 475.828 1366.16 502.49C1365.04 509.499 1362.81 516.047 1361.2 517.041C1359.59 518.038 1352.68 515.995 1345.83 512.505C1324.04 501.389 1319.11 506.891 1310.47 551.985L1305.19 579.497L1292.44 553.881C1277.92 524.719 1264.16 503.389 1250.48 488.826L1241.05 478.789L1253.04 483.796C1262.07 487.574 1269.64 488.309 1283.79 486.796C1299.64 485.096 1304.14 485.756 1312.82 491.054C1328.63 500.69 1343.64 499.359 1357.29 487.106C1363.57 481.476 1374.52 473.926 1381.62 470.327C1394.38 463.867 1394.54 463.582 1394.41 447.888C1394.33 439.143 1392.43 427.203 1390.18 421.351C1378.33 390.499 1356.57 346.295 1343 325.516L1327.66 302.013L1328.23 266.692C1328.7 238.417 1327.77 229.404 1323.61 221.507C1317.25 209.452 1291.47 188.515 1272.95 180.368C1255.79 172.818 1256.12 173.164 1260.79 167.538C1263.55 164.206 1264.15 157.042 1262.84 143.004C1261.36 127.089 1262.22 120.055 1267.22 107.373C1276.14 84.7428 1276.4 44.4427 1267.72 27.688C1256.35 5.72016 1223.55 -6.00086 1198.94 3.10907ZM1247.91 15.9669C1261.42 25.8672 1266.91 40.1051 1266.5 64.1885C1266.31 75.8913 1265.11 89.5698 1263.83 94.5853C1261.77 102.668 1261.47 102.036 1261.15 89.0318C1260.67 69.6964 1249.8 58.0483 1229.37 54.9843C1199.3 50.4765 1176.11 59.2459 1161.24 80.7426C1152.7 93.0898 1148.32 95.9988 1148.32 89.3206C1148.32 87.2627 1155.33 71.502 1163.9 54.2973C1183.97 14.0185 1192.34 7.49534 1222.07 8.98782C1233.73 9.57448 1242.38 11.909 1247.91 15.9669ZM1240.74 66.1278C1247.48 69.2009 1256.74 85.9739 1253.48 89.2294C1252.79 89.9194 1251.32 87.6305 1250.21 84.141C1247.64 76.0493 1233.57 68.7389 1220.66 68.7845C1215.15 68.8027 1203.11 70.8393 1193.91 73.3075C1174.11 78.6209 1170.32 78.9522 1174.31 75.0158C1186.13 63.3465 1223.62 58.331 1240.74 66.1278ZM1237.58 81.1286C1244.7 86.7277 1245.59 89.5303 1245.59 106.34C1245.59 122.262 1244.02 127.873 1235.69 141.834C1220.06 168.021 1189.3 185.296 1167.87 179.918C1155.05 176.699 1148.12 157.054 1151.18 132.581C1152.54 121.714 1155.77 107.762 1158.36 101.58C1162.65 91.3511 1164.95 89.7857 1183.81 84.2595C1221.89 73.1008 1227 72.806 1237.58 81.1286ZM1256.44 158.653C1252.77 173.274 1247.55 162.389 1250.24 145.728L1252.61 131.062L1255.56 140.737C1257.18 146.056 1257.58 154.121 1256.44 158.653ZM782.608 143.269C798.443 149.886 826.157 174.541 831.127 186.432C833.458 192.016 835.954 209.2 836.674 224.617C837.693 246.521 837.428 249.254 835.461 237.107C831.194 210.786 823.43 191.892 812.547 181.344C799.75 168.939 794.035 170.58 789.715 187.901C784.259 209.771 775.653 224.985 765.36 230.955C755.748 236.532 755.648 236.526 758.764 230.705C760.503 227.453 764.266 222.854 767.123 220.483C769.984 218.112 774.161 211.771 776.41 206.391C781.958 193.117 781.772 161.647 776.109 155.984C760.749 140.624 720.569 180.648 701.828 229.982C697.092 242.451 687.049 261.716 679.507 272.799C671.968 283.882 662.15 302.497 657.69 314.169C648.954 337.034 626.867 379.167 630.186 366.637C633.876 352.718 662.575 286.38 674.242 264.808C680.571 253.105 688.754 233.271 692.426 220.732C704.205 180.532 720.435 157.112 744.902 145.001C760.138 137.46 767.85 137.104 782.608 143.269ZM1139.2 151.032C1139.2 152.823 1136.9 165.957 1134.1 180.222C1130.05 200.856 1129.68 209.045 1132.31 220.285C1137.15 240.952 1153.09 282.611 1156.61 283.784C1158.28 284.341 1161.44 280.298 1163.65 274.802C1174.11 248.716 1200.72 215.179 1231.19 189.664L1245.8 177.432L1260.14 182.791C1268.02 185.736 1283.16 194.281 1293.78 201.777C1319.45 219.89 1322.25 226.976 1321.02 270.659L1320.07 304.652L1335.89 328.805C1359.52 364.853 1386.12 425.342 1386.58 444.03C1386.93 458.66 1386.58 459.305 1374.76 465.56C1368.07 469.108 1358.25 476.342 1352.96 481.637C1343.29 491.3 1330.8 494.124 1322.1 488.604C1319.38 486.881 1322.36 485.352 1331.22 483.938C1349.02 481.096 1357.49 474.944 1364.33 459.87C1375.48 435.303 1369.7 400.882 1347.12 357.518C1320.74 306.859 1306.36 293.533 1278.37 293.818C1241.87 294.192 1212.07 321.142 1201.21 363.597C1191.09 403.153 1205.04 448.14 1239.39 486.704C1259.34 509.113 1277.02 537.036 1291.6 569.208C1305.48 599.805 1308.19 597.206 1320.03 541.987C1325.76 515.265 1329.11 512.247 1344.76 519.709C1364.26 529.005 1366.56 527.433 1375.17 498.957C1379.28 485.382 1395.22 476.066 1414.34 476.066C1426.45 476.066 1435.34 478.634 1451.9 486.92C1482.26 502.107 1492.02 516.326 1510.15 571.816C1517.93 595.595 1520.16 607.726 1520.39 627.545C1520.85 665.754 1523.59 664.581 1434.48 664.304C1358.27 664.07 1331.67 661.894 1327.77 655.58C1324.44 650.194 1327.43 640.525 1333.36 637.488C1336.08 636.096 1367.82 634.144 1403.89 633.147C1466.76 631.415 1484.41 628.91 1489.43 621.019C1494.49 613.058 1491.29 603.024 1479.66 590.406C1468.94 578.783 1453.7 550.407 1439.06 514.822C1436.48 508.554 1432.93 503.423 1431.17 503.423C1425.91 503.423 1427.52 518.807 1435.71 547.079C1441.36 566.563 1443.21 579.229 1442.55 594.063L1441.66 614.371L1390.94 614.894C1333.94 615.484 1323.18 618.305 1312.59 635.451C1305.19 647.422 1295.03 652.367 1277.84 652.367C1261.4 652.367 1256.88 647.583 1247.47 620.204C1236.91 589.5 1233.09 582.455 1227 582.455C1223.06 582.455 1221.03 585.607 1219.69 593.853C1213.73 630.482 1202.64 665.146 1198.28 660.784C1197.37 659.881 1200.76 638.67 1205.81 613.651C1222.41 531.357 1230.3 485.455 1228.6 481.026C1226.13 474.576 1217.27 473.114 1180.39 473.068C1154.5 473.035 1147.91 472.214 1150.75 469.378C1152.75 467.372 1154.4 461.329 1154.4 455.952C1154.4 450.575 1157.13 439.79 1160.48 431.99C1168.07 414.281 1168.22 399.997 1160.92 390.605C1156.2 384.532 1155 375.71 1153.52 336.249L1151.76 289.146L1142.91 281.246C1132.18 271.653 1055.87 223.942 1044.2 219.525C1034.3 215.774 1033.89 212.103 1041.69 197.053C1058.74 164.139 1072.23 154.026 1099.68 153.576C1110.55 153.397 1122.86 152.157 1127.04 150.819C1137.85 147.354 1139.2 147.379 1139.2 151.032ZM1236.94 175.173C1232.5 179.472 1222.28 188.229 1214.22 194.637C1199.28 206.513 1171.43 241.356 1162.07 259.862L1156.89 270.115L1148.86 249.223C1142.3 232.174 1140.82 223.206 1140.77 200.464C1140.74 185.137 1141.58 171.742 1142.63 170.693C1143.68 169.644 1148.7 172.948 1153.79 178.04C1161.51 185.764 1165.45 187.296 1177.52 187.296C1195.12 187.296 1213.33 178.964 1227.36 164.492L1237.74 153.783L1241.37 160.571C1244.53 166.471 1243.95 168.38 1236.94 175.173ZM773.899 173.641C775.17 189.059 770.163 205.92 761.086 216.796C757.186 221.468 751.575 230.012 748.614 235.782C745.653 241.551 741.358 248.147 739.066 250.439C731.311 258.193 734.248 278.027 747.365 306.506C760.567 335.158 764.923 359.187 760.834 380.775L758.615 392.474L745.413 377.932C729.323 360.214 717.629 337.021 711.005 309.682C706.941 292.916 704.917 289.125 700.017 289.125C690.006 289.125 687.21 303.141 692.876 324.89C697.418 342.32 696.405 342.985 687.59 328.361C683.051 320.832 674.734 324.838 669.755 336.958C666.767 344.225 666.369 351.758 668.263 365.117C669.685 375.148 671.765 406.609 672.88 435.03C674.765 482.938 674.494 487.215 669.162 493.729C653.246 513.177 638.594 479.604 635.588 416.792L633.843 380.316L645.884 357.518C652.507 344.979 660.903 326.744 664.545 316.999C668.184 307.251 678.2 288.307 686.799 274.899C695.402 261.491 705.686 241.575 709.656 230.642C722.225 196.01 754.086 158.02 768.339 160.665C771.276 161.209 773.255 165.832 773.899 173.641ZM808.79 186.648C816.937 195.649 825.448 218.155 827.701 236.639C829.686 252.947 829.02 255.713 817.338 279.623C810.471 293.679 802.869 305.941 800.449 306.868C788.405 311.491 757.432 294.384 751.31 279.732C744.881 264.349 748.678 254.233 766.026 240.49C781.441 228.28 795.606 204.92 795.667 191.603C795.722 180.286 801.169 178.228 808.79 186.648ZM1087.64 252.898C1113.49 268.917 1137.03 284.8 1139.96 288.192C1144.43 293.375 1145.28 300.597 1145.28 333.462V372.564L1135.4 370.367C1122.46 367.491 1105.95 367.628 1097.4 370.683C1090.92 372.996 1090.73 372.671 1093.89 364.564C1098.54 352.594 1098.43 314.914 1093.71 305.801C1081.51 282.234 1064.7 269.167 1040.84 264.689C1032.54 263.133 1029.87 261.324 1031.1 258.108C1032.04 255.667 1032.8 246.943 1032.8 238.721C1032.8 228.544 1034.06 223.772 1036.72 223.772C1038.88 223.772 1061.79 236.879 1087.64 252.898ZM852.846 257.816C857.397 262.367 857.476 271.899 853.102 289.262C848.238 308.579 844.335 303.026 844.335 276.787C844.335 254.293 845.879 250.849 852.846 257.816ZM829.829 346.353C818.442 380.553 805.796 407.116 802.018 404.782C800.595 403.903 797.035 394.332 794.108 383.513C786.554 355.612 789.083 344.663 807.434 325.799C825.102 307.634 831.473 295.973 834.507 276.258C836.574 262.817 836.845 263.747 838.255 289.125C839.644 314.139 838.924 319.042 829.829 346.353ZM513.901 273.474C540.733 284.684 553.832 316.002 552.09 364.777C551.017 394.83 550.81 395.593 542.77 399.11C535.049 402.484 534.493 404.062 533.651 424.947C532.824 445.492 532.225 447.265 525.802 448.173C518.202 449.253 491.817 435.446 470.742 419.369C452.652 405.566 435.389 400.384 428.95 406.819C424.828 410.94 424.74 413.041 428.279 422.826C430.516 429.017 436.699 439.167 442.015 445.38L451.682 456.672L437.021 467.567L422.36 478.461L413.888 448.125L405.416 417.786L417.408 407.481C428.069 398.32 430.805 397.368 442.049 398.928C459.355 401.329 463.173 394.584 456.266 373.808C449.898 354.639 443.861 347.879 434.118 349.016C426.898 349.855 426.336 351.08 426.026 366.637C425.576 389.033 425.272 390.954 422.193 390.954C418.743 390.954 415.335 360.235 415.402 329.741C415.499 285.398 432.352 269.373 478.894 269.37C493.169 269.367 508.326 271.145 513.901 273.474ZM1063.7 281.252C1079.51 292.086 1087.65 305.849 1089.64 325.124C1091.78 345.958 1086.78 366.926 1075.37 384.875C1070.59 392.398 1063.74 406.077 1060.16 415.272C1049.1 443.638 1028.84 460.04 1009.37 456.39C995.286 453.748 973.594 431.917 968.648 415.406C965.596 405.214 965.66 398.915 968.982 382.44C971.244 371.242 972.946 347.715 972.767 330.161C972.387 293.198 974.87 287.195 994.283 278.143C1012.83 269.489 1048.89 271.106 1063.7 281.252ZM823.041 289.769C819.73 294.937 819.642 294.928 821.305 289.636C822.269 286.575 823.165 282.471 823.296 280.517C823.469 277.954 823.953 277.991 825.032 280.65C825.853 282.678 824.959 286.781 823.041 289.769ZM788.001 313.585C795.825 314.759 803.972 314.133 808.27 312.026C812.772 309.819 810.736 312.835 802.814 320.093C795.862 326.468 788.679 334.669 786.855 338.319C781.794 348.451 782.927 372.075 789.515 393.733C792.773 404.454 794.734 414.372 793.871 415.77C790.758 420.807 779.824 418.138 766.762 409.153C751.468 398.633 747.535 393.894 755.916 396.082C765.689 398.639 769.042 387.325 767.665 356.43C766.47 329.659 765.597 326.544 750.651 295.697C749.97 294.296 755.156 297.308 762.169 302.387C769.184 307.47 780.806 312.509 788.001 313.585ZM704.29 312.567C704.695 322.464 717.17 351.585 727.797 367.439C738.403 383.261 738.412 383.304 729.351 374.683C721.186 366.914 718.866 366.233 707.051 368.133C699.798 369.297 690.237 372.002 685.808 374.139C678.13 377.844 677.665 377.601 675.929 368.914C673.169 355.111 673.731 342.614 677.431 335.705C680.626 329.735 680.984 329.866 686.568 339.049C693.11 349.806 700.351 353.767 704.99 349.128C707.118 347.001 707.026 343.997 704.701 339.651C700.026 330.915 695.588 305.81 697.731 300.226C699.159 296.502 699.913 296.739 701.783 301.506C703.044 304.728 704.172 309.707 704.29 312.567ZM817.353 303.615C814.35 306.594 814.003 306.245 815.651 301.913C816.794 298.916 818.493 297.229 819.43 298.165C820.366 299.098 819.432 301.551 817.353 303.615ZM1294.67 302.877C1306.82 306.251 1313.58 313.926 1333.23 346.66C1364.67 399.031 1371.34 445.651 1350.61 468.02C1344.02 475.135 1340.86 476.066 1323.36 476.066C1305.62 476.066 1302.46 475.099 1293 466.795C1281.64 456.818 1277.39 446.775 1274.43 422.871C1270.99 395.003 1269.34 390.343 1258.78 378.659C1248.06 366.786 1235.19 361.664 1224.57 365.035C1210.53 369.491 1208.68 409.956 1221.01 442.945C1225.31 454.453 1225.77 457.533 1222.55 453.268C1220.02 449.924 1215.11 437.839 1211.64 426.409C1197.14 378.723 1212.65 327.641 1247.09 309.67C1266.09 299.755 1277.54 298.119 1294.67 302.877ZM962.991 339.474C965.106 343.426 965.298 347.083 963.508 349.353C961.942 351.335 959.288 357.062 957.604 362.077L954.546 371.197L952.303 359.819C949.847 347.365 952.218 333.2 956.759 333.2C958.34 333.2 961.146 336.024 962.991 339.474ZM835.1 365.673C833.03 372.054 826.737 386.474 821.117 397.718C815.496 408.962 810.897 420.245 810.897 422.795C810.897 425.345 809.529 427.431 807.857 427.431C802.41 427.431 804.65 415.789 812.253 404.587C816.341 398.563 823.521 384.258 828.212 372.798C837.294 350.6 841.347 346.408 835.1 365.673ZM447.01 371.19C453.6 388.936 452.241 394.939 442.462 391.322C437.304 389.413 434.942 385.349 433.224 375.419C428.807 349.873 438.042 347.04 447.01 371.19ZM1254.39 383.018C1258.24 387.115 1262.21 397.28 1264.12 407.925C1272.88 456.764 1273.26 457.934 1283.94 468.615L1294.43 479.105H1274.8C1250.78 479.105 1240.82 472.154 1230.27 448.018C1220.74 426.218 1217.85 379.692 1225.68 373.969C1232.25 369.166 1245.22 373.251 1254.39 383.018ZM627.094 390.195C624.815 406.758 629.663 452.058 636.15 474.825C644.969 505.788 661.517 514.934 675.26 496.447C681.048 488.662 681.516 484.346 680.884 444.772C680.322 409.7 680.905 402.539 683.988 406.633C686.076 409.405 693.916 420.169 701.406 430.555C708.899 440.942 724.493 458.201 736.06 468.91L757.089 488.379L755.253 518.509L753.417 548.638L739.251 561.745C731.46 568.955 722.849 575.785 720.113 576.922C698.147 586.05 642.351 568.29 611.354 542.297C602.803 535.127 591.395 526.846 585.999 523.898C574.253 517.478 574.299 517.147 593.48 468.466C600.73 450.076 611.233 421.701 616.823 405.408C622.413 389.115 627.459 375.78 628.034 375.771C628.608 375.762 628.186 382.252 627.094 390.195ZM1137.48 378.72C1145.04 381.592 1145.28 382.513 1145.28 408.509C1145.28 425.321 1143.91 436.696 1141.63 438.981C1134.12 446.492 1121.56 442.979 1105.76 428.95C1097.29 421.427 1089.38 415.251 1088.18 415.226C1086.98 415.199 1084.17 414.017 1081.93 412.597C1078.64 410.515 1079.16 407.454 1084.65 396.696C1088.39 389.371 1093.64 381.705 1096.32 379.662C1102.21 375.179 1126.68 374.616 1137.48 378.72ZM1157.59 418.992C1152.99 434.352 1152.19 432.987 1153.78 412.442C1154.79 399.326 1155.69 397.061 1158.13 401.426C1160.25 405.214 1160.08 410.67 1157.59 418.992ZM961.389 451.848C988.358 480.233 1032.6 480.728 1059.35 452.952C1066.43 445.602 1073.14 439.589 1074.28 439.589C1075.41 439.589 1084.22 447.113 1093.86 456.308C1105.58 467.488 1109.7 473.111 1106.29 473.284C1103.49 473.424 1069.24 474.5 1030.17 475.67C961.997 477.716 958.917 478.069 953.735 484.47C949.296 489.951 947.722 490.407 944.916 487.03C943.041 484.765 934.669 482.008 926.318 480.899C903.754 477.908 902.091 476.771 902.079 464.342C902.073 458.25 899.389 448.873 896.112 443.498C892.835 438.127 891.13 433.139 892.324 432.413C893.516 431.689 905.435 427.443 918.81 422.981C932.185 418.515 944.497 413.506 946.168 411.846C948.19 409.84 949.725 414.424 950.749 425.552C951.965 438.738 954.215 444.301 961.389 451.848ZM983.613 449.392C990.519 455.618 999.967 461.551 1004.61 462.575C1019.17 465.791 1019.49 466.46 1006.55 466.706C997.149 466.886 990.255 464.451 979.254 457.068C962.21 445.629 956.902 436.799 956.884 419.831L956.869 407.673L963.96 422.871C967.861 431.23 976.703 443.164 983.613 449.392ZM473.794 429.71C488.427 439.322 500.495 447.945 500.617 448.87C500.739 449.794 491.507 453.557 480.107 457.229C468.343 461.016 454.208 468.302 447.429 474.075C436.501 483.373 424.281 491.264 420.807 491.264C420.038 491.264 418.651 489.282 417.721 486.859C416.651 484.072 417.493 483.014 420.01 483.981C422.202 484.823 431.656 480.306 441.018 473.947C457.278 462.91 462.169 454.511 454.941 450.046C450.186 447.107 433.96 420.929 433.96 416.196C433.96 408.01 448.025 412.782 473.794 429.71ZM1087.68 423.932C1095.12 428.692 1103.76 435.483 1106.89 439.015C1114.67 447.815 1130.35 452.651 1139.63 449.122C1146.67 446.447 1146.96 446.803 1145.81 456.63C1144.67 466.409 1143.99 466.947 1132.63 466.947C1117.3 466.947 1107.52 461.691 1090.69 444.392C1083.23 436.735 1075.76 430.47 1074.09 430.47C1072.42 430.47 1064.53 437.31 1056.56 445.669C1048.58 454.028 1040.56 460.867 1038.73 460.867C1036.91 460.867 1040.1 456.42 1045.84 450.988C1051.58 445.556 1059.23 435.297 1062.84 428.191C1066.45 421.084 1070.48 415.272 1071.79 415.272C1073.1 415.272 1080.25 419.169 1087.68 423.932ZM389.132 432.75C391.743 435.677 396.908 448.328 400.604 460.867C412.456 501.061 419.56 505.35 443.73 486.896L457.415 476.446L464.005 485.361C469.93 493.374 470.158 494.966 466.243 501.128C463.255 505.833 461.215 522.485 459.744 554.219C458.461 581.926 456.145 602.447 453.968 605.422C450.645 609.967 448.408 609.736 427.71 602.702C415.265 598.474 401.662 594.583 397.482 594.054C390.068 593.118 389.798 592.191 386.393 556.058C381.113 499.982 372.866 480.71 350.079 471.19C338.817 466.484 330.229 468.552 314.501 479.75L305.273 486.321L310.996 476.634C319.332 462.524 342.425 440.726 356.445 433.735C371.595 426.181 382.961 425.838 389.132 432.75ZM869.972 446.058C867.267 451.289 865.708 458.983 866.504 463.156C867.942 470.682 867.823 470.725 851.174 468.77C841.942 467.685 833.185 466.05 831.71 465.138C830.233 464.226 831.987 459.323 835.604 454.241C842.587 444.438 856.53 436.866 867.972 436.668C874.745 436.553 874.788 436.747 869.972 446.058ZM791.703 449.924C795.357 455.566 802.537 462.04 807.662 464.308C812.784 466.576 816.976 469.29 816.976 470.342C816.976 472.366 804.723 501.11 803.042 503.031C802.498 503.651 793.062 498.9 782.073 492.471L762.093 480.783L764.026 467.026C767.905 439.413 780.04 431.914 791.703 449.924ZM894.34 456.791C897.568 469.646 894.118 475.181 883.816 473.67C875.776 472.488 874.733 471.15 874.733 462.001C874.733 456.317 876.396 449.003 878.429 445.748C881.77 440.401 882.615 440.279 887.275 444.495C890.108 447.058 893.288 452.59 894.34 456.791ZM531.422 468.998C547.187 483.239 549.521 488.136 561.589 532.3C573.828 577.086 582.294 596.477 594.684 608.106C601.606 614.602 603.165 617.703 600.396 619.46C595.985 622.262 555.288 622.162 541.873 619.317C529.909 616.779 529.456 611.581 537.119 564.645C541.803 535.95 542.451 525.582 539.867 520.752L536.481 514.426L531.316 520.804C527.905 525.017 524.404 540.297 520.996 565.837C515.798 604.827 512.059 617.551 506.763 614.277C505.174 613.295 503.876 594.406 503.876 572.299C503.876 548.282 502.216 525.701 499.748 516.195C496.629 504.174 496.398 496.893 498.799 486.4C501.149 476.142 501.033 471.001 498.367 466.731C493.103 458.302 493.559 457.827 506.906 457.827C516.634 457.827 521.525 460.056 531.422 468.998ZM491.716 480.446C491.716 493.799 487.087 496.574 477.165 489.167C466.468 481.181 465.553 476.594 473.982 473.214C487.929 467.624 491.716 469.172 491.716 480.446ZM867.93 480.409C868.474 480.953 867.808 488.063 866.446 496.21C863.628 513.101 860.561 514.508 833.887 511.177C810.161 508.213 809.371 507.046 817.961 487.622L825.369 470.871L846.156 475.148C857.588 477.497 867.389 479.865 867.93 480.409ZM358.028 484.425C369.662 494.906 375.31 515.019 378.961 558.982C381.693 591.862 384.864 600.638 394.053 600.756C396.777 600.793 408.578 604.206 420.281 608.344C444.146 616.779 455.947 617.806 460.868 611.873C462.704 609.663 464.984 590.172 465.942 568.557C468.322 514.685 469.827 504.307 475.584 502.097C482.038 499.62 490.911 508.028 493.294 518.886C494.352 523.701 495.598 547.304 496.063 571.335C496.528 595.37 497.665 616.253 498.592 617.742C499.541 619.268 490.057 620.025 476.861 619.478L453.445 618.508L430.023 641.032C417.141 653.422 406.602 665.83 406.602 668.602C406.602 674.767 390.974 675.335 361.716 670.241C343.325 667.04 341.674 666.055 333.771 653.592C329.15 646.306 318.681 625.609 310.507 607.602C296.062 575.767 295.648 574.05 295.648 545.978C295.648 530.096 296.697 513.353 297.977 508.773C301.151 497.435 328.573 476.066 339.951 476.066C345.273 476.066 352.414 479.367 358.028 484.425ZM889.61 483.975C890.269 484.565 888.448 491.234 885.561 498.796C879.293 515.205 869.766 518.384 872.833 503.043C873.879 497.818 874.733 490.203 874.733 486.121C874.733 479.826 875.772 479.014 881.572 480.798C885.336 481.953 888.95 483.385 889.61 483.975ZM940.262 491.945C941.01 492.69 939.581 500.024 937.089 508.241C934.596 516.457 932.541 526.257 932.523 530.02C932.474 540.23 924.966 538.455 910.043 524.701C902.787 518.013 895.294 512.542 893.391 512.542C888.859 512.542 889.011 510.593 894.707 495.681L899.483 483.178L919.193 486.884C930.036 488.92 939.514 491.197 940.262 491.945ZM1221.27 488.82C1221.27 495.596 1197.25 622.208 1189.07 658.571C1184.65 678.205 1184.43 678.502 1171.77 682.05C1163.27 684.433 1121.63 685.925 1048 686.482L937.049 687.324L896.771 677.092C874.617 671.463 856.494 665.505 856.494 663.848C856.494 662.125 858.771 661.827 861.814 663.149C864.738 664.42 876.426 666.091 887.786 666.863C904.289 667.985 909.578 667.234 914.111 663.131C921.114 656.796 928.604 628.478 943.202 553.185C949.403 521.205 955.568 493.273 956.902 491.112C961.173 484.203 983.163 482.914 1103.48 482.525L1221.27 482.145V488.82ZM783.484 501.398C793.542 506.973 801.13 512.177 800.343 512.961C797.713 515.594 768.339 634.518 768.339 642.537C768.339 646.893 771.416 653.963 775.179 658.252L782.019 666.046L773.659 658.678C765.959 651.89 765.287 649.489 765.135 628.281C765.044 615.614 763.847 594.531 762.473 581.43C760.244 560.164 761.53 491.264 764.157 491.264C764.728 491.264 773.425 495.824 783.484 501.398ZM260.581 514.022C269.549 517.186 275.078 517.642 279.002 515.542C282.085 513.891 285.416 512.542 286.401 512.542C287.386 512.542 287.325 523.144 286.268 536.099C284.669 555.678 285.453 562.925 290.906 579.004C299.527 604.419 328.29 661.538 335.944 668.435C339.255 671.42 350.696 675.758 361.363 678.071C380.401 682.202 379.672 682.284 322.168 682.524L263.575 682.764L268.503 673.232C272.889 664.751 273.044 658.641 269.926 617.846C263.992 540.267 260.447 531.512 236.579 535.415C213.197 539.239 205.427 538.726 201.843 533.117C197.493 526.315 203.67 519.797 219.966 513.992C235.405 508.49 244.917 508.496 260.581 514.022ZM846.818 518.548C860.783 518.612 862.765 519.345 861.376 523.941C860.491 526.868 857.047 541.872 853.725 557.289C850.402 572.706 846.292 587.917 844.593 591.093C842.894 594.267 840.164 602.826 838.526 610.116C836.097 620.922 836.574 625.688 841.116 635.953C844.18 642.877 848.214 649.486 850.077 650.641C852.475 652.121 852.545 654.465 850.317 658.632C843.842 670.727 787.533 664.328 778.45 650.467C774.1 643.829 774.686 639.607 786.514 592.364C793.533 564.344 801.261 535.078 803.692 527.33L808.112 513.241L819.384 515.858C825.585 517.299 837.93 518.509 846.818 518.548ZM874.845 525.926C873.316 529.944 870.565 541.911 868.729 552.523C866.893 563.134 861.722 582.36 857.242 595.245C850.001 616.058 849.475 620.131 852.554 631.722L856.017 644.768L850.174 637.591C842.772 628.494 842.778 617.01 850.208 597.464C853.436 588.966 859.087 567.749 862.762 550.316C867.234 529.108 870.799 518.621 873.535 518.621C876.596 518.621 876.924 520.457 874.845 525.926ZM906.055 530.555C913.177 537.121 922.722 543.422 927.267 544.565C931.811 545.705 935.529 548.471 935.529 550.711C935.529 552.954 932.109 571.612 927.93 592.172C923.75 612.736 920.33 629.953 920.33 630.433C920.33 630.91 917.369 629.719 913.749 627.782C905.633 623.439 870.471 625.797 864.063 631.114C856.679 637.245 858.327 614.821 867.082 590.054C871.219 578.351 874.633 565.447 874.669 561.377C874.788 547.781 884.478 518.621 888.88 518.621C891.206 518.621 898.933 523.992 906.055 530.555ZM533.246 546.738C532.404 548.83 531.714 547.118 531.714 542.939C531.714 538.759 532.404 537.051 533.246 539.139C534.091 541.23 534.091 544.65 533.246 546.738ZM530.27 561.748C529.301 564.171 528.58 563.45 528.434 559.909C528.304 556.705 529.021 554.912 530.03 555.921C531.039 556.93 531.149 559.554 530.27 561.748ZM526.86 624.317C524.215 626.965 516.698 620.742 518.105 617.07C519.497 613.441 520.485 613.617 523.747 618.077C525.917 621.049 527.322 623.858 526.86 624.317ZM511.475 629.603C529.866 632.065 564.49 634.09 588.419 634.105C628.636 634.126 633.116 634.707 647.695 641.762C664.454 649.875 678.99 660.653 676.513 663.134C675.689 663.955 661.916 662.973 645.902 660.948C616.929 657.288 569.396 659.343 499.316 667.28C449.496 672.925 415.721 674.016 415.721 669.982C415.721 667.9 424.917 656.93 436.158 645.604C459.646 621.934 457.531 622.384 511.475 629.603ZM914.25 635.4C914.25 643.917 909.365 646.285 891.887 646.242C870.933 646.191 860.914 642.297 868.653 637.214C872.988 634.369 914.25 632.728 914.25 635.4ZM895.252 653.829C912.174 653.89 916.281 657.057 903.572 660.249C893.257 662.836 870.796 659.21 863.744 653.817C858.522 649.823 858.959 649.628 868.653 651.604C874.505 652.799 886.476 653.799 895.252 653.829ZM623.948 669.715C583.978 670.87 579.871 671.943 579.871 681.244C579.871 686.746 581.941 689.248 587.683 690.688C600.454 693.892 714.021 689.789 726.195 685.685C739.3 681.266 762.056 684.184 756.648 689.591C751.623 694.616 619.55 698.546 575.311 694.987C555.248 693.373 527.914 689.254 514.573 685.831C487.667 678.937 481.174 679.575 484.111 688.828C486.026 694.859 484.868 694.917 372.607 694.427C265.275 693.962 262.442 693.81 319.967 691.643C353.405 690.382 387.603 687.777 395.962 685.852C404.322 683.928 435.1 680.436 464.358 678.092C493.616 675.745 524.394 672.578 532.754 671.052C541.113 669.529 571.891 668.405 601.15 668.56C630.408 668.712 640.667 669.234 623.948 669.715ZM715.441 679.241C713.407 682.533 607.901 686.409 594.556 683.679C584.744 681.673 584.665 681.542 592.03 679.451C602.888 676.366 717.34 676.171 715.441 679.241Z" fill="black"/>
</svg>
