<svg width="1728" height="1181" viewBox="0 0 1728 1181" fill="none" xmlns="http://www.w3.org/2000/svg">
<path opacity="0.05" fill-rule="evenodd" clip-rule="evenodd" d="M722.565 6.44194C716.734 9.98494 698.701 21.6356 682.493 32.3302C605.19 83.3422 581.073 99.1625 569.568 106.406C562.714 110.721 556.515 115.359 555.79 116.711C550.669 126.276 574.248 133.438 645.278 143.895C657.963 145.762 668.594 147.29 668.901 147.29C669.208 147.29 670.405 148.732 671.561 150.496C673.582 153.581 673.422 154 667.281 161.648C658.522 172.559 654.794 180.982 654.01 191.633C653.142 203.432 656.104 212.164 663.922 220.855C672.534 230.43 686.506 238.579 714.58 250.403C756.378 268.005 762.858 272.941 769.951 292.572C772.345 299.2 775.639 310.197 777.271 317.009L780.236 329.395H784.812C787.329 329.395 813.781 328.159 843.595 326.65C873.408 325.139 898.042 324.146 898.336 324.44C898.632 324.735 889.821 332.32 878.758 341.294C856.27 359.538 856.477 359.529 860.565 342.15C861.601 337.751 862.099 333.587 861.673 332.897C861.196 332.127 839.129 331.983 804.514 332.522L748.13 333.402L737.414 340.71C725.418 348.892 695.32 372.714 676.426 388.98C669.584 394.872 659.939 403.006 654.995 407.057C624.977 431.647 610.872 444.147 610.852 446.176C610.816 449.601 614.205 450.83 628.247 452.485C658.609 456.064 732.672 457.949 743.554 455.42C746.98 454.623 763.243 442.255 800.293 412.269C828.859 389.15 852.724 370.234 853.327 370.234C854.408 370.234 856.252 372.711 867.615 389.422C876.822 402.959 876.837 402.852 863.842 415.974C845.265 434.735 812.597 460.918 798.363 468.454C789.729 473.025 779.217 475.09 758.741 476.238L743.901 477.07L734.629 467.558L725.358 458.046L713.302 461.344C687.783 468.325 656.672 471.531 612.167 471.765C584.332 471.911 573.925 470.406 562.516 464.588C549.383 457.892 539.817 444.545 534.235 425.133C531.507 415.654 531.164 411.648 531.249 390.319C531.333 369.038 531.79 364.179 535.148 348.81C537.241 339.236 539.009 329.47 539.076 327.108C539.159 324.186 540.584 321.382 543.534 318.341C548.467 313.253 549.022 310.021 545.305 308.031C540.056 305.224 504.662 300.356 422.685 291.165L381.201 286.514L373.807 290.213C358.055 298.091 309.797 334.662 289.692 353.956C276.141 366.96 275.97 368.456 287.33 374.532C291.751 376.897 295.266 379.608 295.141 380.558C294.766 383.41 288.53 399.475 282.659 412.709C277.473 424.402 264.107 446.285 260.349 449.235C259.412 449.972 255.909 455.997 252.565 462.625C246.961 473.736 246.666 474.809 248.785 476.38C250.811 477.879 251.46 477.345 254.23 471.897C255.96 468.494 257.603 465.939 257.882 466.218C258.161 466.496 257.625 472.312 256.69 479.141C254.877 492.382 255.772 496.404 260.154 494.724C262.036 494.002 269.238 480.625 274.192 468.651C275.427 465.666 275.683 466.202 276.551 473.574C277.71 483.427 280.484 485.679 283.251 479.015C284.243 476.629 287.254 464.734 289.942 452.583C292.632 440.431 295.375 428.682 296.04 426.472C296.703 424.263 298.521 416.139 300.08 408.418C301.638 400.698 303.133 394.162 303.402 393.893C303.776 393.519 345.658 406.67 356.164 410.46C357.704 411.015 357.664 411.525 355.933 413.445C352.204 417.581 351.877 422.229 355.034 426.242C360.737 433.487 399.204 449.818 420.38 453.982C428.039 455.488 429.005 456.067 431.22 460.47C441.404 480.715 451.23 519.548 457.006 562.381C459.229 578.852 459.234 628.698 457.017 646.738C452.309 685.047 441.572 717.432 426.565 738.586C415.261 754.521 396.877 767.714 383.473 769.511L378.165 770.224L377.281 757.689C374.424 717.176 363.902 688.788 349.088 681.619C338.002 676.255 329.698 678.601 319.222 690.059C310.133 700.001 306.527 709.373 305.754 725.07C305.253 735.234 305.63 738.366 308.157 745.076C315.218 763.807 336.028 775.795 363.349 776.869L372.391 777.225V803.42C372.391 832.462 369.994 873.285 364.962 929.937C363.13 950.558 360.423 981.248 358.946 998.138C356.391 1027.33 356.082 1029.08 352.669 1033.62C345.114 1043.67 330.932 1061.57 315.604 1080.41C306.841 1091.18 298.1 1102.58 296.181 1105.75L292.688 1111.5L237.098 1110.73C206.523 1110.31 141.271 1109.34 92.0944 1108.58C42.916 1107.82 2.07762 1107.57 1.34087 1108.02C0.602791 1108.48 0 1109.65 0 1110.64C0 1112.03 5.61399 1112.6 25.786 1113.23C55.2866 1114.16 234.613 1116.76 268.085 1116.74C289.073 1116.73 290.406 1116.88 291.051 1119.34C292.183 1123.67 297.583 1123.89 311.911 1120.19C319.292 1118.29 328.616 1116.73 332.631 1116.73C338.731 1116.73 340.041 1116.3 340.61 1114.13C340.984 1112.7 340.981 1111.22 340.602 1110.84C340.224 1110.46 330.845 1110.52 319.759 1110.98C301.967 1111.71 299.695 1111.57 300.392 1109.75C300.826 1108.62 312.234 1093.91 325.741 1077.06C339.251 1060.21 351.505 1044.76 352.974 1042.73L355.647 1039.02V1069.51C355.647 1086.27 356.098 1101.6 356.651 1103.57C358.577 1110.43 364.041 1115.19 373.298 1118.04C385.34 1121.76 408.158 1124.56 435.112 1125.61L457.801 1126.51L461.949 1133.35C464.231 1137.11 466.472 1142.06 466.928 1144.34C467.72 1148.3 467.263 1148.84 457.246 1155.87C451.465 1159.93 443.721 1164.82 440.037 1166.74C430.533 1171.68 428.651 1173.46 428.651 1177.46C428.651 1180.7 429.109 1181 434.039 1181C442.514 1181 455.775 1174.23 464.196 1165.61C468.206 1161.51 471.854 1156.69 472.301 1154.91C473.185 1151.39 479.259 1148.8 492.949 1146.11C499.325 1144.86 604.121 1141.77 605.198 1142.8C605.416 1143.02 604.26 1145.75 602.63 1148.87C594.736 1164.01 602.225 1170.44 634.94 1176.6C646.418 1178.76 656.786 1178.98 740.763 1178.93C791.967 1178.89 855.26 1178.13 881.414 1177.23C1110.64 1169.34 1260.42 1159.89 1278.95 1152.14C1282.43 1150.69 1295.28 1150.3 1340.57 1150.24C1418.52 1150.14 1529.49 1147.62 1668.38 1142.79C1699.32 1141.71 1725.39 1140.83 1726.32 1140.83C1727.24 1140.83 1728 1139.53 1728 1137.94C1728 1135.05 1727.99 1135.05 1702.88 1135.92C1543.23 1141.42 1464.26 1143.41 1366.8 1144.41C1291.24 1145.19 1281.73 1145.06 1277.72 1143.16C1266.21 1137.73 1225.98 1133.64 1191.13 1134.36C1169.35 1134.8 1166.84 1135.37 1166.76 1139.89C1166.68 1143.93 1188.06 1147.3 1227.01 1149.39L1255.81 1150.94L1231.7 1153.25C1118.97 1164.03 817.718 1175.71 698.567 1173.92C649.893 1173.18 635.222 1171.9 618.301 1166.89C604.74 1162.88 602.988 1159.6 608.963 1149.41C613.259 1142.08 615.477 1140.83 624.192 1140.83C631.868 1140.83 665.426 1137.3 674.953 1135.49C679.941 1134.55 684.559 1135.07 698.567 1138.17C732.973 1145.78 746.225 1147.62 777.06 1149.08C804.557 1150.39 807.768 1150.32 812.1 1148.26C818.409 1145.27 820.229 1140.41 820.063 1127.01C819.932 1116.3 819.979 1116.13 822.203 1119.41C826.39 1125.57 836.415 1135.69 840.359 1137.72C842.597 1138.88 846.041 1139.45 848.437 1139.07C854.24 1138.12 911.858 1121.07 916.097 1119.04C922.431 1116 921.016 1110.1 913.943 1110.05C907.775 1110.01 899.906 1099.11 895.625 1084.68C891.675 1071.36 886.611 1035.7 889.053 1038.4C889.72 1039.13 893.794 1044.14 898.106 1049.51C908.017 1061.88 919.319 1071.8 932.986 1080.16C940.392 1084.68 943.834 1087.61 944.127 1089.64C944.434 1091.76 941.909 1095.37 935.085 1102.57C929.878 1108.07 925.619 1113.72 925.619 1115.13C925.619 1116.54 927.427 1119.97 929.637 1122.75C931.847 1125.53 933.656 1128.52 933.656 1129.4C933.656 1137.74 977.334 1150.38 1007.33 1150.71C1024.98 1150.91 1033.14 1148.41 1040.16 1140.64L1045.03 1135.25L1051.51 1136.81C1056.36 1137.97 1063.62 1137.99 1080.54 1136.89C1108.75 1135.04 1150.86 1130.45 1152.25 1129.06C1152.82 1128.49 1150.62 1120.98 1147.35 1112.38C1137.24 1085.74 1121.33 1037.22 1116.42 1018.08C1112.83 1004.07 1111.55 995.892 1110.92 982.955L1110.11 966.09L1114.39 971.446C1121.88 980.812 1132.2 990.91 1145.3 1001.69C1158.24 1012.34 1165.17 1019.58 1178.91 1036.76C1184.9 1044.25 1187.09 1048.31 1188.84 1055.11C1199.92 1098.29 1211.66 1120.34 1224.89 1122.82C1231.76 1124.11 1237.25 1120.37 1244.65 1109.36C1248.09 1104.25 1251.52 1099.86 1252.29 1099.6C1253.05 1099.35 1257.03 1102.43 1261.12 1106.46C1269.63 1114.83 1285.31 1123.07 1300.02 1126.9C1313.83 1130.49 1332.15 1130.06 1353.91 1125.64C1378.31 1120.69 1413.34 1111.78 1415.01 1110.11C1415.96 1109.16 1415.16 1107.08 1412.46 1103.48C1407.4 1096.74 1371.36 1050.25 1364.22 1041.25C1340.96 1011.95 1306.7 965.119 1301.87 956.03C1295.56 944.156 1291.26 939.925 1288.13 942.521C1286.68 943.722 1286 943.264 1284.89 940.336C1277.17 920.085 1273.14 905.183 1267.2 875.038C1252.71 801.499 1249.48 793.929 1220.52 765.576C1192.69 738.33 1188.96 733.773 1194.55 733.773C1196.76 733.773 1200.63 736.221 1216.78 747.838C1223.43 752.62 1229.23 753.785 1232.1 750.912C1235.64 747.376 1233.74 738.079 1222.14 702.307C1206.74 654.822 1204.27 639.493 1214.11 652.429C1218.95 658.778 1223.72 668.809 1228.94 683.599C1233.79 697.354 1235.24 699.826 1237.61 698.362C1239.77 697.032 1239.48 693.831 1234.97 669.03C1232.71 656.619 1231.09 646.237 1231.36 645.961C1231.64 645.684 1234.73 654.333 1238.22 665.179C1249.89 701.371 1250.29 702.307 1253.92 702.307C1256.85 702.307 1257.19 701.679 1257.58 695.612C1257.94 690.02 1255.91 671.35 1253.06 654.103C1252.62 651.437 1253.45 652.563 1255.55 657.45C1259.38 666.395 1263.73 680.751 1265.9 691.595C1267.78 701.045 1269.3 704.315 1271.79 704.315C1274.91 704.315 1275.38 700.357 1274.52 681.622C1273.61 661.776 1274.48 660.779 1279.3 676.118C1283.71 690.158 1285.93 707.237 1287.31 737.741C1289.15 778.109 1287.87 772.178 1313.03 856.961C1321.88 886.788 1330.2 916.313 1331.51 922.573C1332.83 928.832 1336.12 939.98 1338.82 947.344C1343.44 959.896 1350.45 983.203 1358.95 1014.29C1362.95 1028.93 1364.06 1031.03 1367.83 1031.03C1369.94 1031.03 1370.34 1030 1370.34 1024.58C1370.34 1016.67 1368.3 1009.63 1358 982.158C1349.73 960.086 1335.17 913.556 1335.88 911.444C1337.06 907.912 1360.8 931.547 1375.98 951.361C1399.03 981.459 1414.19 1009.69 1430.98 1053.79C1437.94 1072.1 1438.42 1074.12 1439.29 1089.18C1440.33 1107.07 1442.17 1114.46 1445.76 1115.15C1449.87 1115.94 1452.06 1112.82 1452.06 1106.16C1452.06 1100.61 1448.71 1085.69 1445.41 1076.56C1444.75 1074.72 1443.54 1053.63 1442.74 1029.69C1441.93 1005.76 1440.67 974.124 1439.95 959.395C1430.55 768.626 1407.36 657.951 1367.58 614.109C1361.75 607.677 1359.32 603.578 1356.37 595.187C1344.36 560.967 1309.88 509.003 1268.4 462.625C1244.43 435.814 1229.01 421.786 1223.53 421.786C1221.73 421.786 1210.48 425.925 1198.52 430.982C1163.42 445.83 1146.17 451.212 1139.98 449.247C1134.91 447.639 1129.8 423.504 1128.92 397.014L1128.56 386.302L1142.62 379.329C1156.18 372.604 1199.26 355 1220.6 347.46C1226.95 345.22 1232.2 344.126 1234.2 344.628C1236 345.08 1240.02 348.497 1243.14 352.225C1248.02 358.047 1248.62 359.415 1247.4 361.939C1246.62 363.555 1245.68 367.898 1245.3 371.588C1244.23 382.233 1239.34 393.495 1232.69 400.599C1226.57 407.142 1225.86 411.074 1230.81 411.074C1233.47 411.074 1254.51 403.36 1270.55 396.505C1275.8 394.263 1280.12 391.548 1280.37 390.339C1280.62 389.153 1275.64 381.784 1269.32 373.966C1263 366.147 1257.83 359.096 1257.84 358.297C1257.85 357.498 1260.75 353.831 1264.28 350.149C1276.78 337.121 1302.28 307.195 1307.48 299.449C1313.31 290.755 1314.52 283.499 1310.4 281.915C1308.12 281.036 1262.61 277.887 1193.53 273.827C1154.9 271.556 1113.29 271.196 1106.74 273.076C1104.32 273.767 1099.81 276.993 1096.7 280.242C1093.59 283.492 1085.73 291.212 1079.22 297.395L1067.4 308.64L1072.89 299.267C1083.42 281.31 1088.52 258.063 1087.38 233.225C1086.27 208.951 1079.24 195.749 1063 187.46C1054.3 183.019 1053.11 182.774 1040.28 182.774C1032.84 182.774 1024.76 183.217 1022.33 183.758C1018.48 184.616 1020.91 181.767 1041.2 161.664C1066.56 136.549 1077.06 124.529 1081.34 115.722C1083.74 110.772 1083.88 109.5 1082.42 105.954C1080.45 101.202 1061.42 82.5669 1048.86 73.0801C1044.07 69.4661 1041.35 66.9515 1042.83 67.4924C1051.21 70.5735 1051.61 70.3793 1065.12 56.6478C1080.36 41.1489 1097.84 20.9621 1100.63 15.6369C1103.35 10.4295 1100.96 7.48904 1094.81 8.48659C1084 10.2393 1040.49 29.5478 986.567 56.522C949.417 75.106 943.645 78.266 938.865 82.6392C935.368 85.8408 928.761 88.0715 912.017 91.7056C904.036 93.4369 878.775 102.693 846.586 115.68C840.324 118.207 835.108 120.177 834.995 120.058C834.883 119.938 831.451 113.056 827.369 104.764L819.947 89.6864L824.397 87.8278C826.844 86.8048 837.509 84.0478 848.097 81.6992C876.89 75.3122 908.979 67.2219 914.253 65.0193C920.849 62.2649 920.465 58.5947 913.228 55.2057C885.181 42.0728 750.938 0 737.076 0C734.768 0 728.826 2.63783 722.565 6.44194ZM763.551 11.9493C820.424 27.957 909.544 57.3615 909.544 60.1172C909.544 61.0411 871.675 70.6042 843.197 76.8735C835.071 78.6624 825.854 81.1529 822.714 82.4089C819.574 83.6649 816.835 84.4669 816.627 84.1898C806.247 70.382 802.577 66.3931 797.535 63.4393C791.93 60.156 790.652 59.9445 780.519 60.6247C756.723 62.2194 685.265 85.2275 674.854 94.646C672.859 96.4497 672.461 98.9081 672.535 109.001C672.584 115.699 673.355 126.726 674.248 133.504C675.76 144.991 675.719 145.691 673.633 143.805C672.195 142.503 662.057 140.402 645.265 137.925C597.725 130.91 567.172 124.288 563.036 120.099C561.818 118.867 568.549 113.92 592.506 98.4381C609.582 87.4034 632.294 72.4012 642.977 65.101C653.66 57.8007 667.524 48.5884 673.786 44.6316C680.048 40.6735 696.302 30.2173 709.907 21.3959C723.511 12.5732 735.876 5.35601 737.385 5.35601C738.893 5.35601 750.667 8.32324 763.551 11.9493ZM1090.45 19.9993C1084.16 27.9369 1071.2 42.2951 1060.02 53.7114L1050.04 63.9066L1044.43 61.8298C1040.8 60.4894 1034.29 59.7556 1026.08 59.761C1014.89 59.7677 1011.99 60.3006 1001.97 64.1864C989.236 69.1287 954.741 80.4392 954.165 79.8634C952.641 78.341 1051.18 30.9202 1076.32 21.0813C1096.34 13.2427 1095.77 13.2856 1090.45 19.9993ZM1030.1 65.0353C1030.1 65.4545 1024.22 71.9312 1017.04 79.4296C980.711 117.341 954.36 147.822 952.886 153.636C952.428 155.445 953.226 158.496 954.902 161.335L957.678 166.036L950.689 166.043C944.895 166.047 943.016 166.687 939.684 169.794C930.243 178.592 882.913 212.168 881.682 210.938C880.27 209.527 928.229 108.343 935.976 96.3894C939.749 90.5674 940.382 90.2046 953.184 86.517C960.493 84.4107 975.818 79.4015 987.237 75.3858C998.657 71.3702 1011.01 67.2782 1014.7 66.2927C1021.71 64.4154 1030.1 63.7312 1030.1 65.0353ZM795.986 69.1688C802.095 73.4001 811.281 85.4109 809.593 86.9588C808.942 87.5547 805.094 89.2806 801.042 90.791C764.633 104.373 718.679 122.749 710.864 126.853C705.587 129.623 696.913 135.014 691.59 138.832L681.91 145.772L681.196 141.51C679.523 131.525 677.805 113.999 677.805 106.93C677.805 99.7342 678.055 99.1491 682.265 96.5488C697.643 87.0485 767.354 65.7959 783.556 65.6687C789.33 65.6232 791.922 66.3529 795.986 69.1688ZM1053.54 84.4442C1067.24 95.5552 1076.99 106.303 1076.99 110.3C1076.99 112.362 1073.84 117.642 1068.76 124.104C1059.78 135.519 1019.85 175.52 1008.86 184.113C1004.13 187.814 1002.12 190.296 1002.36 192.147C1002.57 193.764 1003.49 194.616 1004.68 194.297C1005.77 194.007 1010.5 192.669 1015.19 191.326C1028.61 187.482 1041.44 186.78 1051.45 189.342C1062.37 192.139 1068.02 195.659 1072.79 202.645C1079.91 213.069 1081.7 220.957 1081.48 241.02C1081.26 262.337 1078.52 274.728 1070.38 291.233C1063.2 305.796 1053.47 317.09 1035.77 331.403C1019.99 344.16 1016.19 349.256 1017.52 355.891C1018.11 358.834 1017.39 361.501 1014.84 365.858C1010.06 374.007 1010.13 380.794 1015.03 383.857C1017.06 385.125 1018.84 386.215 1018.99 386.281C1019.14 386.346 1017.81 392.705 1016.04 400.411C1008.9 431.52 1004.22 465.777 1004.9 482.041C1005.28 490.999 1005.62 492.126 1008.08 492.478C1010.48 492.821 1011.38 491.171 1014.97 479.771L1019.11 466.67L1020.66 472.682C1021.51 475.988 1023.99 484.116 1026.16 490.744C1032.36 509.667 1037.19 515.595 1040.84 508.774C1042.59 505.518 1040.34 492.169 1033.36 464.367C1027.83 442.283 1027.71 440.532 1031.84 440.532C1033.54 440.532 1035.65 439.809 1036.53 438.925C1038.94 436.523 1038.61 409.919 1036.06 400.072C1034.91 395.65 1034.22 391.783 1034.52 391.477C1034.83 391.173 1040.14 392.076 1046.32 393.485C1066.19 398.008 1093.48 401.883 1102.44 401.452C1110.1 401.082 1111.14 400.711 1111.14 398.36C1111.14 396.37 1109.27 394.945 1103.78 392.768C1087.37 386.261 1052.75 376.81 1030.49 372.755C1028.33 372.363 1027.12 370.734 1026.05 366.774C1024.61 361.422 1024.69 361.208 1030.96 353.732C1038.36 344.91 1066.39 316.994 1091.02 293.911L1108.17 277.843L1141.81 278.025C1160.31 278.125 1195.03 279.49 1218.98 281.059C1242.92 282.629 1272.46 284.557 1284.61 285.344C1296.77 286.133 1306.95 287.01 1307.24 287.294C1309.32 289.358 1290.33 313.044 1260.06 346.132L1252.72 354.166L1247.88 348.57C1245.22 345.492 1240.93 341.668 1238.34 340.07L1233.64 337.166L1222.62 340.792C1198 348.898 1140.08 372.786 1128.27 379.706L1122.15 383.292L1123.03 398.937C1124.71 428.64 1129.47 449.586 1135.43 453.489C1142.62 458.199 1158.87 453.978 1199.24 436.92C1227.06 425.164 1223.2 424.662 1241.57 442.421C1270.33 470.231 1313.85 525.986 1333.12 559.703C1342.65 576.375 1352.45 598.12 1351.07 599.506C1350.76 599.81 1348.07 598.813 1345.08 597.289C1338.89 594.133 1329.34 593.701 1325.75 596.418C1313.77 605.503 1328.84 646.01 1345.78 650.261C1353.59 652.219 1360.72 641.742 1362.13 626.25L1363.01 616.611L1369.51 625.314C1407.82 676.674 1431.09 814.475 1436.65 1023L1437.46 1053.13L1430.03 1035.05C1416.69 1002.56 1402.18 976.838 1382.22 950.251C1363.69 925.571 1342.82 905.166 1336.12 905.166C1334.31 905.166 1332.84 904.843 1332.84 904.449C1332.84 904.056 1325.84 880.126 1317.28 851.273C1295.01 776.149 1295.38 777.806 1293.95 747.163C1292.11 707.86 1289.93 690.902 1284.45 673.518C1277.72 652.157 1268.61 648.243 1268.47 666.652L1268.4 675.527L1263.3 661.264C1255.65 639.857 1250.72 633.289 1247.22 639.827C1246.33 641.486 1246.51 646.84 1247.74 656.23C1251.75 686.585 1251.77 686.533 1244.68 665.484C1237.69 644.747 1232.19 631.54 1229.96 630.168C1226.96 628.312 1224.33 630.961 1224.35 635.835C1224.35 640.352 1226.11 653.614 1227.73 661.467C1228.12 663.335 1226.63 661.558 1224.36 657.45C1219.51 648.66 1213.38 642.721 1209.18 642.721C1199.18 642.721 1200.33 653.568 1215.17 698.959C1223.06 723.109 1228.35 741.748 1228.35 745.369C1228.35 748.573 1225.36 747.293 1215.72 739.965C1204.25 731.245 1198.9 728.417 1193.86 728.417C1185.28 728.417 1184.35 736.106 1191.89 744.808C1194.67 748.022 1205.3 758.754 1215.51 768.657C1225.73 778.56 1235.61 789.074 1237.47 792.02C1245.42 804.552 1250.74 822.817 1260.45 870.788C1266.29 899.619 1269.03 909.567 1281.14 945.772C1289.85 971.798 1297.99 999.362 1302.78 1018.98C1316.89 1076.9 1320.57 1087.87 1325 1085.14C1329.13 1082.59 1323.27 1055.16 1309.27 1011.46C1299.48 980.941 1291.18 950.692 1292.59 950.692C1293.08 950.692 1295.38 954.759 1297.71 959.73C1300.95 966.638 1320.85 995.117 1331.17 1007.6C1331.78 1008.34 1342.16 1021.89 1354.26 1037.73C1366.35 1053.56 1382.84 1074.95 1390.91 1085.26C1398.98 1095.57 1406.12 1104.7 1406.77 1105.55C1407.63 1106.66 1400.94 1108.79 1382.79 1113.18C1348.11 1121.56 1335.28 1123.84 1322.79 1123.82C1301.09 1123.78 1277.02 1114.53 1263.87 1101.17C1256.4 1093.59 1253.46 1092.12 1249.64 1094.08C1247.74 1095.06 1247.4 1093.28 1246.7 1078.84C1245.18 1047.59 1234.76 1001.05 1224.82 981.203C1219.86 971.296 1214.8 966.496 1196.21 954.04C1185.71 947.008 1177.86 940.756 1176.32 938.191C1172.93 932.568 1160.96 896.035 1156.72 878.385C1152.15 859.353 1152.33 847.501 1158.01 792.02C1162.56 747.62 1163.84 720.216 1161.53 716.57C1158.37 711.59 1152.18 717.931 1147.45 730.987L1144.41 739.396L1142.95 720.45C1141.5 701.462 1140.33 697.62 1135.99 697.62C1133.24 697.62 1131.29 701.032 1128.04 711.544L1125.6 719.442L1124.92 706.551C1124.23 693.406 1122.8 689.586 1118.56 689.586C1113.32 689.586 1108.52 699.816 1102.6 723.547L1098.98 738.094L1097.28 720.974C1095.31 701.122 1093.29 694.783 1089.25 695.838C1084.98 696.956 1083.09 709.432 1078.96 763.689L1078.06 775.53L1072.89 767.706C1065.85 757.066 1062.11 752.904 1058.71 751.919C1047.84 748.779 1049.49 774.028 1061.74 798.359C1064.24 803.317 1069.89 813.408 1074.29 820.782C1090.96 848.68 1092.37 852.94 1106.43 917.886C1110.89 938.507 1115.2 957.38 1115.99 959.826C1118.83 968.519 1144.19 992.389 1160.15 1001.38C1167.67 1005.62 1174.41 1006.76 1176.94 1004.22C1177.88 1003.29 1179.08 1007.23 1180.71 1016.56C1182.03 1024.1 1183.46 1031.19 1183.88 1032.32C1184.31 1033.45 1181.42 1030.46 1177.47 1025.68C1169.68 1016.23 1157.8 1004.69 1139.94 989.211C1133.68 983.782 1124.57 974.392 1119.7 968.344L1110.84 957.348L1109.51 943.879C1108.13 929.938 1106.23 925.734 1102.03 927.343C1100.81 927.812 1099.22 930.347 1098.49 932.978C1097.4 936.94 1097.76 939.384 1100.61 947.238C1103.51 955.22 1104.15 959.678 1104.67 975.463C1105.03 986.126 1106.42 999.83 1107.91 1007.25C1111.28 1024.08 1122.66 1060.93 1134.69 1093.96C1139.91 1108.33 1144.49 1121.07 1144.87 1122.29C1145.71 1125.04 1143.91 1125.44 1118.51 1128.13C1094.82 1130.63 1059.11 1132.17 1052.68 1130.97L1047.96 1130.08L1048.57 1116.36C1049.29 1100.04 1046.14 1081.32 1038.71 1057.86C1030.29 1031.28 1024.7 1022.45 1019.56 1027.61C1017.75 1029.44 1017.44 1032.45 1017.73 1045.49C1018.68 1086.79 1025.9 1118.27 1036.65 1127.98C1038.21 1129.39 1039.48 1131.23 1039.48 1132.08C1039.48 1133.96 1033.28 1139.9 1029.04 1142.09C1019.36 1147.07 999.791 1146.36 971.163 1140C949.287 1135.13 941.56 1131.86 938.778 1126.29C937.543 1123.82 935.202 1120.38 933.574 1118.65L930.616 1115.5L939.416 1106.39C954.787 1090.47 954.301 1085.29 936.545 1075.8C921.345 1067.68 902.655 1048.79 891.345 1030.12L886.627 1022.33L887.035 992.201C887.258 975.631 887.743 958.157 888.112 953.37L888.781 944.666L890.725 949.353C898.539 968.19 915.686 987.817 935.665 1000.79C949.969 1010.08 958.268 1018.41 968.067 1033.33C977.037 1046.99 983.363 1060.65 989.942 1080.57C993.901 1092.57 995.554 1095.97 997.418 1095.97C999.534 1095.97 999.829 1094.51 999.974 1083.25C1000.1 1073.4 1001.23 1066.3 1004.96 1051.79C1011.06 1028.07 1012.69 1017.19 1012.69 1000.26C1012.69 974.135 1004.14 947.833 984.136 912.38C971.811 890.541 951.312 863.835 944.589 860.859C940.727 859.151 940.512 858.575 938.372 844.301C937.153 836.167 933.459 818.148 930.162 804.26C922.865 773.518 920.96 759.869 922.942 752.511C923.73 749.588 927.911 738.904 932.235 728.768C947.647 692.638 948.349 680.85 935.068 681.142C927.983 681.299 922.745 685.285 915.56 695.992C911.796 701.6 909.402 704.106 908.974 702.885C908.602 701.83 907.334 685.301 906.154 666.154C903.122 616.969 900.659 605.229 893.372 605.229C889.641 605.229 885.414 613.614 882.732 626.329C881.374 632.767 880.191 638.336 880.104 638.704C880.015 639.072 878.218 634.733 876.108 629.059C872.067 618.192 866.121 606.152 862.852 602.216C861.782 600.928 859.503 599.873 857.79 599.873C853.416 599.873 852.614 603.853 852.614 625.538C852.614 635.603 852.524 643.737 852.414 643.614C852.305 643.491 850.011 637.666 847.317 630.67C841.584 615.779 836.483 606.568 833.968 606.568C830.193 606.568 828.881 610.522 829.041 621.424C829.128 627.411 829.591 632.995 830.07 633.833C830.561 634.692 830.415 634.876 829.735 634.253C829.07 633.647 826.411 629.128 823.826 624.211C820.418 617.73 818.389 615.272 816.447 615.272C810.057 615.272 812.313 624.231 832.408 678.693C838.758 695.901 845.737 716.689 847.916 724.889C851.303 737.63 865.992 808.036 870.994 835.496C872.103 841.59 872.604 868.397 872.647 923.912L872.707 1003.58L876.55 1012.96C878.908 1018.71 880.873 1026.72 881.638 1033.71C887.102 1083.67 893.166 1103.84 905.176 1112L909.855 1115.18L896.639 1119.21C889.371 1121.42 880.711 1123.94 877.395 1124.8C874.08 1125.65 865.807 1128.13 859.01 1130.3C847.384 1134.01 846.417 1134.12 842.637 1132.16C837.764 1129.64 827.023 1116.98 821.435 1107.18C818.475 1101.98 816.574 1095.73 814.567 1084.59C810.125 1059.94 808.524 1056.18 803.729 1059.15C800.791 1060.96 803.007 1077.25 808.373 1093.28C812.348 1105.15 813.362 1110.45 814.025 1122.82L814.832 1137.88L811.192 1141.52L807.552 1145.16L791.906 1144.27C744.564 1141.6 731.588 1139.93 699.237 1132.35C693.231 1130.94 692.411 1130.44 694.801 1129.64C698.7 1128.33 701.059 1120.91 699.876 1113.69C699.366 1110.57 696.637 1099.29 693.812 1088.61C685.368 1056.68 683.985 1045.9 684.977 1019.65C685.842 996.727 688.846 959.467 690.569 950.286C691.079 947.564 692.01 945.336 692.637 945.336C694.308 945.336 695.708 951.474 703.324 992.201C716.868 1064.63 726.959 1093.71 742.539 1105.23C751.346 1111.73 770.328 1106.32 781.087 1094.22C797.005 1076.33 804.233 1040.95 796.43 1019.12C793.964 1012.22 784.47 993.315 775.853 978.141C766.767 962.141 757.299 942.683 755.656 936.632C753.981 930.467 750.409 876.227 749.214 838.841C748.615 820.065 748.846 811.958 750.091 808.044C751.021 805.122 757.202 791.585 763.827 777.96C784.002 736.466 787.062 727.282 782.562 721.728C780.134 718.73 779.603 718.622 774.62 720.114C768.388 721.981 759.009 729.827 753.483 737.798L749.6 743.399L747.227 726.871C744.594 708.526 737.931 675.253 734.766 664.641C732.245 656.185 729.489 653.417 726.534 656.37C725.117 657.788 724.257 662.426 723.708 671.618L722.92 684.827L719.353 673.391C712.772 652.288 708.046 645.655 703.496 651.135C702.681 652.117 701.892 660.997 701.658 671.808C701.431 682.232 700.894 690.345 700.463 689.839C700.033 689.332 698.593 685.904 697.264 682.222C693.353 671.384 682.748 650.511 680.765 649.751C679.759 649.365 678.101 649.886 677.077 650.908C675.569 652.417 675.456 655.159 676.481 665.485C677.175 672.48 678.082 680.314 678.497 682.891L679.25 687.578L675.748 681.552C669.321 670.492 664.567 667.201 660.659 671.108C658.036 673.73 658.793 689.987 662.353 707.494C664.169 716.424 670.151 739.397 675.647 758.545C681.143 777.693 686.387 797.275 687.301 802.062C689.487 813.503 689.499 854.945 687.33 893.784C685.482 926.871 683.87 937.166 672.447 988.853C663.419 1029.7 659.469 1050.76 657.757 1067.18C655.288 1090.87 649.246 1106.81 637.423 1120.82C630.283 1129.29 630.693 1132.83 638.473 1129.89C642.407 1128.41 664.105 1129.53 662.499 1131.14C661.641 1131.99 629.352 1135.29 620.707 1135.4C615.633 1135.47 615.117 1135.15 614.387 1131.51C613.701 1128.07 612.635 1127.26 606.453 1125.46C597.214 1122.78 561.115 1120.8 520.744 1120.77L488.93 1120.74V1116.21C488.93 1108.53 485.121 1090.48 477.59 1062.5C473.627 1047.77 468.718 1028.29 466.681 1019.2C463.404 1004.59 463.183 1002.2 464.761 998.447C465.742 996.116 471.303 980.049 477.121 962.743C482.937 945.436 489.439 926.734 491.569 921.184C493.699 915.634 497.914 902.076 500.939 891.056C509.171 861.055 513.813 849.713 521.435 840.982C523.643 838.452 533.866 830.463 544.155 823.227C576.474 800.494 602.816 779.497 612.601 768.672C616.319 764.56 617.574 762.081 617.271 759.457C616.915 756.373 616.155 755.809 611.886 755.454C607.225 755.067 601.641 756.157 595.423 758.667C593.865 759.295 595.442 756.895 599.194 752.929C608.385 743.211 612.167 737.734 612.167 734.14C612.167 727.221 604.63 729.486 590.925 740.524C586.4 744.171 582.698 746.94 582.698 746.679C582.698 746.419 584.807 742.159 587.386 737.213C592.539 727.333 593.08 724.223 590.083 721.737C587.691 719.753 580.119 723.353 566.134 733.125C561.246 736.541 557.247 739.097 557.247 738.805C557.247 738.513 559.655 735.048 562.598 731.105C565.541 727.161 569.237 721.278 570.809 718.029C573.314 712.858 573.427 711.881 571.718 710.173C570.165 708.62 568.97 708.525 565.866 709.705C561.893 711.214 541.894 730.862 529.786 745.151C515.272 762.278 510.98 766.893 509.709 766.739C508.98 766.651 506.797 763.223 504.856 759.121C501.017 751.006 493.66 741.807 491.008 741.807C490.094 741.807 488.262 743.004 486.937 744.467C484.829 746.796 484.403 751.087 483.516 778.946C482.62 807.105 482.166 811.613 479.57 818.13C475.982 827.135 456.288 868.636 449.071 882.404C446.175 887.926 436.779 906.083 428.192 922.752C412.733 952.759 408.697 958.383 403.93 956.555C400.858 955.377 395.632 959.347 394.563 963.671C394.051 965.738 391.397 970.141 388.666 973.455C380.692 983.128 376.803 990.878 374.546 1001.6C373.839 1004.96 363.006 1020.58 363.023 1018.22C363.029 1017.53 364.541 1000.1 366.386 979.48C368.229 958.86 370.62 932.046 371.699 919.895C374.967 883.097 377.564 840.594 378.551 807.75L379.489 776.617L384.981 775.218C425.174 764.979 450.752 725.209 461.743 655.873C463.661 643.766 464.111 633.431 463.977 604.56C463.795 565.462 461.87 546.762 454.71 514.549C451.863 501.739 441.471 468.299 437.515 459.222C436.783 457.544 438.407 456.85 446.196 455.515C470.017 451.431 502.705 431.838 513.142 415.385C516.738 409.72 517.058 408.21 517.036 397.086C517.023 390.418 516.124 378.722 515.039 371.092C512.775 355.169 512.631 355.575 524.794 343.699L531.4 337.249L528.67 350.394C524.85 368.781 524.597 412.804 528.236 425.803C538.125 461.123 558.09 476.09 597.433 477.676C617.575 478.488 665.032 476.057 684.502 473.215C692.238 472.087 704.294 469.689 711.293 467.885L724.019 464.607L731.745 472.989L739.473 481.371L751.72 481.848C758.994 482.131 770.127 481.393 779.135 480.031C795.745 477.522 799.635 475.721 819.76 461.223C840.531 446.26 877.809 412.462 879.97 406.636C881.923 401.367 876.249 390.274 860.828 369.221C859.183 366.975 858.619 365.088 859.388 364.403C860.083 363.784 865.473 359.384 871.367 354.627C914.358 319.924 912.618 321.477 911.142 319.12C910.304 317.784 836.766 320.442 796.045 323.282L785.021 324.051L784.278 320.362C783.868 318.333 780.799 308.145 777.455 297.72C770.472 275.946 767.278 271.248 753.547 262.581C748.795 259.58 733.724 252.347 720.055 246.506C680.48 229.595 669.106 222.035 662.294 208.117C659.197 201.79 658.791 199.613 659.419 192.69C660.322 182.727 665.275 172.28 673.139 163.739C678.035 158.421 679.046 157.811 679.091 160.146C679.178 164.712 681.855 171.118 684.025 171.951C685.219 172.409 688.593 170.608 692.304 167.533C698.011 162.805 699.48 162.266 708.834 161.466C729.031 159.742 768.454 148.28 788.588 138.28C805.614 129.824 810.228 122.112 801.943 115.958C796.57 111.967 780.88 112.159 768.914 116.361C754.944 121.267 732.009 133.298 713.791 145.275L696.865 156.404L690.613 155.071C686.935 154.287 684.565 153.1 684.857 152.188C686.344 147.538 718.699 127.94 733.395 122.788C736.342 121.754 755.538 114.466 776.053 106.593C803.33 96.1216 813.81 92.6536 815.053 93.686C815.988 94.4613 819.66 101.567 823.213 109.477C826.765 117.386 830.414 124.689 831.319 125.707C832.7 127.256 836.202 126.233 852.97 119.387C884.54 106.496 903.909 99.5468 916.683 96.526C923.187 94.9888 929.034 93.7302 929.675 93.7302C930.316 93.7302 928.358 98.098 925.324 103.438C915.997 119.854 872.037 214.388 872.037 218.031C872.037 220.871 875.635 221.221 880.289 218.834C888.169 214.793 923.206 190.615 935.656 180.626L947.703 170.96L955.946 172.371C963.004 173.58 965.506 174.87 973.364 181.348C983.772 189.931 987.774 191.515 990.972 188.319C992.97 186.321 992.926 185.86 990.421 182.454C988.925 180.42 983.442 176.605 978.238 173.977C968.117 168.864 967.017 167.987 961.4 160.55L957.762 155.734L961.979 149.838C969.948 138.697 995.825 109.726 1021.95 82.6968L1034.56 69.6482L1039.37 73.2434C1042.01 75.2198 1048.39 80.2611 1053.54 84.4442ZM796.611 119.862L801.469 121.891L798.388 125.17C789.889 134.214 741.95 151.523 716.379 154.781L709.284 155.684L712.633 153.027C718.916 148.04 744.088 133.44 755.498 128.164C766.683 122.991 782.672 118.052 788.694 117.906C790.375 117.866 793.938 118.745 796.611 119.862ZM688.332 162.915C687.053 164.458 686.536 164.491 685.646 163.086C683.882 160.308 684.312 159.542 687.21 160.3C689.382 160.868 689.603 161.385 688.332 162.915ZM437.363 298.646C485.241 304.011 530.311 309.904 537.613 311.755C541.373 312.707 541.193 312.941 523.883 329.74C508.432 344.734 506.344 347.282 506.344 351.143C506.344 355.086 502.927 358.938 472.217 389.619L438.088 423.714L424.328 419.244C411.311 415.016 410.061 414.278 401.191 405.561C385.032 389.683 372.539 382.044 352.298 375.662C334.455 370.037 307.723 368.601 302.707 372.996C300.987 374.503 299.468 374.239 292.995 371.311C288.774 369.403 285.321 367.458 285.321 366.99C285.321 363.644 324.162 331.004 350.367 312.329C370.681 297.853 378.898 293.241 384.374 293.241C386.998 293.241 410.845 295.673 437.363 298.646ZM854.606 342.45C854.016 345.212 853.159 350.744 852.701 354.743C852.244 358.743 851.245 362.768 850.481 363.686C849.116 365.331 839.958 372.798 776.54 423.971L744.67 449.686L734.575 450.632C718.293 452.157 645.172 449.318 624.279 446.348L618.308 445.501L622.403 442.011C689.297 385.014 735.638 347.345 746.517 341.126C749.45 339.449 776.078 338.386 832.044 337.712L855.677 337.429L854.606 342.45ZM1031.2 345.38C1027.28 349.754 1023.83 352.645 1023.54 351.807C1023.07 350.476 1035.88 337.429 1037.66 337.429C1038.03 337.429 1035.12 341.006 1031.2 345.38ZM510.187 378.359C512.64 398.018 512.227 405.257 508.265 412.014C504.324 418.737 488.991 431.425 476.098 438.633C465.245 444.7 451.833 449.349 441.799 450.523C434.794 451.343 434.032 451.166 432.299 448.317C428.979 442.856 418.619 425.165 418.189 424.223C417.96 423.722 422.649 424.91 428.607 426.862L439.438 430.412L473.191 396.673C494.422 375.45 507.264 363.543 507.807 364.575C508.283 365.478 509.354 371.68 510.187 378.359ZM1260.5 371.846C1263.82 375.977 1268.18 381.583 1270.18 384.306L1273.84 389.253L1263.49 393.331C1257.79 395.572 1249.97 398.667 1246.1 400.206L1239.06 403.005L1242.36 397.772C1246.5 391.219 1250.78 378.61 1251.25 371.573C1251.9 361.977 1252.6 361.997 1260.5 371.846ZM1021.45 377.185C1020.96 379.149 1020.01 379.918 1018.7 379.417C1016.28 378.486 1016.12 374.489 1018.36 370.902C1019.98 368.307 1020.03 368.314 1021.11 371.224C1021.71 372.855 1021.86 375.537 1021.45 377.185ZM348.05 380.2C364.106 384.816 384.069 396.065 393.056 405.562L396.977 409.707L379.66 403.819C343.023 391.362 308.464 378.48 306.753 376.641C304.928 374.68 339.079 377.623 348.05 380.2ZM1048.72 382.315C1063.56 385.908 1093.11 394.612 1094.21 395.713C1094.58 396.076 1093.11 396.062 1090.95 395.683C1088.8 395.306 1079.52 393.755 1070.33 392.239C1047.22 388.43 1032.64 384.885 1031.29 382.75C1028.23 377.923 1030.37 377.87 1048.72 382.315ZM309.718 384.446C313.613 386.002 318.307 387.77 320.149 388.372C321.991 388.976 329.224 391.67 336.223 394.36C343.222 397.05 361.791 403.713 377.488 409.164C409.434 420.261 408.341 419.516 419.427 437.737C423.7 444.762 425.056 448.027 423.817 448.322C418.271 449.641 379.214 435.565 366.698 427.736C357.782 422.159 357.065 419.472 363.214 414.664C365.779 412.656 367.136 410.597 366.679 409.404C366.265 408.326 360.599 405.856 354.089 403.913C347.579 401.97 332.992 397.369 321.677 393.687C310.361 390.006 300.561 387.329 299.899 387.738C299.237 388.147 299.399 386.937 300.261 385.049C301.121 383.161 302.008 381.616 302.23 381.616C302.454 381.616 305.823 382.889 309.718 384.446ZM1029.99 400.193C1031.68 407.389 1032.78 416.616 1032.78 423.592V435.109L1028.89 434.329C1025.82 433.716 1024.67 434.153 1023.47 436.39C1021.62 439.844 1022.06 442.453 1029.59 473.223C1032.82 486.417 1035.2 497.475 1034.88 497.798C1033.63 499.047 1024.12 463.958 1021.48 448.366C1020.81 444.399 1020.17 443.605 1018.11 444.146C1015.49 444.83 1015.03 446.555 1013.37 461.968C1012.93 466.024 1012.04 470.211 1011.38 471.271C1009.16 474.872 1012.9 446.186 1018.2 419.108C1023.19 393.539 1024.52 388.311 1026.02 388.311C1026.67 388.311 1028.46 393.657 1029.99 400.193ZM297.501 395.88C296.731 398.713 294.6 407.961 292.765 416.43C290.928 424.899 287.691 438.758 285.569 447.227L281.711 462.625L280.461 456.61C279.593 452.426 278.458 450.45 276.734 450.119C274.01 449.594 271.978 451.936 271.946 455.638C271.923 458.413 263.867 479.787 263.125 479.045C262.85 478.771 263.256 472.906 264.026 466.012C265.292 454.672 265.971 452.635 271.141 444.661C280.398 430.381 286.055 419.357 292.031 403.957C297.548 389.733 300.261 385.729 297.501 395.88ZM1345.74 603.984C1350.04 606.244 1353.96 608.747 1354.45 609.545C1356.38 612.663 1356.98 625.013 1355.54 631.756C1354.7 635.656 1352.64 640.443 1350.97 642.392C1347.98 645.858 1347.84 645.884 1344.37 643.61C1339.4 640.356 1333.41 631.692 1330.2 623.114C1327.18 615.041 1326.61 603.957 1329.09 601.48C1331.77 598.796 1337.52 599.66 1345.74 603.984ZM863.156 612.928C867.988 622.475 874.659 642.036 877.196 654.103C878.736 661.427 880.052 664.815 881.356 664.815C882.808 664.815 883.848 660.17 885.699 645.399C888.031 626.803 891.044 614.092 893.474 612.591C896.026 611.015 898.252 628.844 900.856 671.724C902.845 704.473 903.839 710.448 907.532 711.865C910.377 712.956 912.989 710.456 919.801 700.12C923.039 695.207 927.158 690.225 928.955 689.048C933.056 686.362 937.523 686.294 938.524 688.901C939.812 692.257 936.289 704.146 928.599 722.392C918.672 745.947 916.24 753.301 916.246 759.759C916.253 767.33 919.41 784.659 924.818 806.806C934.263 845.481 934.99 852.927 935.474 915.878C935.866 967.006 936.488 973.455 941.023 973.455C945.236 973.455 946.164 966.741 946.109 936.632C946.076 918.649 945.207 899.611 943.876 887.758C942.679 877.08 941.697 867.886 941.696 867.328C941.69 865.034 947.548 870.181 953.465 877.668C982.079 913.873 1002.7 956.606 1006.28 987.111C1008.3 1004.27 1006.38 1022.95 1000.03 1048.17C997.415 1058.55 995.274 1068.28 995.274 1069.79C995.274 1074.63 993.297 1072.75 990.759 1065.51C989.403 1061.64 985.879 1053.66 982.927 1047.77C970.295 1022.56 958.122 1008.31 938.344 995.579C917.425 982.11 902.347 963.691 893.088 940.294C889.505 931.243 888.863 927.575 887.99 911.191C886.685 886.707 884.52 874.229 881.437 873.423C879.44 872.901 878.983 870.302 878.184 854.899C877.437 840.502 875.29 827.178 867.251 787.052C861.748 759.591 855.739 731.568 853.897 724.782C850.591 712.61 839.848 681.343 829.202 652.911C826.198 644.892 823.951 638.122 824.204 637.867C824.807 637.265 835.389 662.337 836.613 667.266C837.665 671.504 840.641 673.301 842.889 671.054C843.971 669.972 843.926 668.597 842.72 665.954C840.246 660.526 835.88 638.048 835.086 626.653C834.431 617.239 834.513 616.827 836.399 620.081C839.189 624.891 844.515 638.913 851.356 659.459C855.936 673.21 857.66 676.866 859.571 676.866C861.194 676.866 861.896 675.983 861.703 674.188C857.693 636.841 856.314 606.568 858.619 606.568C859.344 606.568 861.385 609.431 863.156 612.928ZM715.385 679.774C717.009 685.538 719.377 695.377 720.65 701.637C722.573 711.099 723.392 713.019 725.5 713.019C727.86 713.019 728.084 711.476 728.707 690.925C729.075 678.774 729.788 669.735 730.292 670.84C732.677 676.08 740.807 719.599 742.798 737.79C744.653 754.734 746.775 755.402 757.084 742.291C764.064 733.41 773.046 725.739 776.461 725.739C781.353 725.739 777.951 735.245 759.416 773.361C743.077 806.963 743.442 805.694 743.442 828.907C743.442 859.226 748.458 933.52 751.017 941.079C753.768 949.212 758.238 958.11 774.453 987.731C791.599 1019.05 793.436 1024.13 793.51 1040.4C793.634 1067.94 781.896 1091.87 764.617 1099.3C751.535 1104.93 745.312 1102.95 737.103 1090.56C727.634 1076.27 718.875 1045.03 708.54 988.706C700.612 945.484 699.043 940.179 693.582 938.118C690.029 936.778 689.714 936.175 690.347 931.946C692.139 919.957 694.401 869.169 694.462 839.554C694.539 802.005 695.087 805.398 680.983 756.125C670.275 718.719 664.392 692.377 664.439 682.053L664.468 675.527L667.056 678.874C671.057 684.049 677.894 698.517 681.902 710.288C685.558 721.027 686.608 722.496 689.346 720.697C690.426 719.987 690.166 716.364 688.412 707.663C685.771 694.561 681.557 663.966 682.291 663.231C683.009 662.514 694.577 690.406 698.775 702.976C700.866 709.236 702.644 714.522 702.724 714.725C702.806 714.925 703.863 714.71 705.074 714.247C707.012 713.502 707.285 710.11 707.37 685.761L707.463 658.12L709.948 663.706C711.316 666.779 713.762 674.01 715.385 679.774ZM344.539 685.42C352.832 688.573 361.216 702.248 365.804 720.106C368.314 729.881 372.391 759.376 372.391 767.773V771.662L360.67 770.872C327.428 768.63 309.072 751.127 311.151 723.646C312.045 711.84 316.208 701.847 323.678 693.574C331.057 685.404 337.682 682.815 344.539 685.42ZM1118.48 727.078C1117.69 739.23 1116.7 751.369 1116.29 754.055C1115.64 758.246 1115.95 759.071 1118.46 759.869C1120.07 760.379 1121.53 760.592 1121.71 760.34C1121.88 760.09 1123.71 752.397 1125.77 743.247C1131.14 719.324 1134.8 707.706 1136.18 710.167C1136.79 711.27 1137.32 725.042 1137.35 740.771C1137.4 767.397 1137.58 769.478 1139.95 770.959C1143.01 772.867 1143.39 772.345 1144.58 764.57C1146.22 753.86 1151.86 733.909 1154.71 728.751L1157.48 723.731L1156.7 740.468C1156.27 749.674 1154.46 770.763 1152.67 787.333C1145.68 852.204 1145.69 858.528 1152.81 886.359C1157.19 903.48 1169.27 938.428 1172.36 942.905C1173.72 944.882 1182.69 951.753 1192.29 958.175C1211.08 970.742 1215.65 975.273 1221.07 986.716C1230.51 1006.66 1240.59 1056.2 1240.89 1084.14C1240.99 1093.83 1240.69 1102.16 1240.2 1102.64C1237.78 1105.09 1228.44 1094.45 1206.66 1064.43C1194.09 1047.1 1192.29 1043.91 1190.42 1035.64C1186.29 1017.38 1182.77 993.541 1182.34 980.869C1181.88 967.433 1180.85 964.714 1176.84 966.253C1174.69 967.077 1174.53 968.352 1175.34 978.297C1175.9 985.186 1175.68 991.523 1174.75 994.951C1173.38 1000.06 1172.99 1000.41 1169.69 999.585C1158.74 996.838 1122.57 965.102 1120.81 956.694C1115.87 933.061 1101.75 869.986 1099.54 861.648C1095.8 847.56 1091.55 838.357 1079.43 818.13C1068.18 799.356 1063.79 790.491 1059.7 778.338C1056.77 769.654 1055.93 757.875 1058.22 757.875C1060.28 757.875 1067.31 768.159 1073.15 779.721C1077.04 787.403 1079.05 790.069 1080.73 789.747C1082.63 789.383 1083.18 786.968 1083.99 775.268C1085.58 752.296 1089.24 710.373 1089.69 709.92C1090.41 709.189 1092.04 723.059 1093.58 743.146C1094.94 760.923 1095.29 762.562 1097.66 762.562C1099.92 762.562 1100.78 759.944 1104.52 741.807C1109.65 716.946 1111.07 711.583 1114.72 703.286L1117.51 696.951L1118.71 700.968C1119.44 703.394 1119.34 713.736 1118.48 727.078ZM557.774 728.021C554.203 733.026 548.059 740.921 544.118 745.567C538.486 752.206 537.279 754.405 538.476 755.845C539.715 757.338 544.029 754.97 561.785 743.047C573.768 735.001 583.988 728.417 584.494 728.417C586.162 728.417 577.787 743.58 568.84 756.76C561.418 767.694 560.353 769.953 561.986 771.308C563.573 772.624 566.401 770.548 577.795 759.703C593.163 745.073 606.405 734.745 602.379 740.526C597.032 748.206 576.252 767.532 568.414 772.113C562.889 775.343 559.926 777.931 559.926 779.527C559.926 783.497 565.619 782.494 572.84 777.252C583.483 769.526 608.169 758.789 610.328 760.947C613.187 763.804 577.369 793.195 536.03 821.914C511.665 838.841 506.926 846.732 495.439 889.487C492.43 900.688 488.159 914.371 485.947 919.895C483.734 925.418 477.761 942.591 472.671 958.056C467.582 973.522 462.624 987.983 461.655 990.192C459.943 994.094 459.864 994.123 458.917 991.196C457.087 985.549 453.212 987.616 447.619 997.222C440.927 1008.72 425.493 1039.56 423.249 1045.93C421.1 1052.02 422.27 1055.47 426.294 1054.89C430.169 1054.34 444.884 1036.08 452.944 1021.81L458.982 1011.12L462.011 1024.76C463.676 1032.26 467.385 1046.83 470.253 1057.14C477.326 1082.58 481.832 1102.33 482.854 1112.38L483.705 1120.74H473.708H463.709L457.106 1112.38C440.489 1091.32 421.905 1059.24 411.932 1034.4C406.274 1020.31 400.758 999.793 399.428 987.892C398.537 979.922 398.733 979.054 403.146 971.38C405.71 966.926 409.935 961.748 412.537 959.876C416.311 957.156 420.697 949.883 434.295 923.788C454.156 885.672 478.96 834.873 484.216 821.552C488.523 810.635 490.151 795.947 490.222 767.375C490.268 748.692 490.347 748.158 492.749 750.33C495.515 752.833 502.796 767.248 504.167 772.939C505.996 780.523 507.957 779.01 532.166 751.333C549.298 731.747 562.866 717.52 563.658 718.312C563.992 718.647 561.346 723.016 557.774 728.021ZM881.671 968.099C880.941 1006.91 880.81 1008.54 879.031 1000.9C877.521 994.425 877.35 984.966 878.141 952.031C879.04 914.676 879.267 911.877 880.783 919.225C881.995 925.105 882.234 938.211 881.671 968.099ZM679.817 1003.76C676.945 1038.32 678.04 1049.69 687.952 1088.23C693.99 1111.71 695.2 1122.02 692.205 1124.46C688.253 1127.68 680.79 1128.51 672.231 1126.69C667.561 1125.7 659.37 1124.47 654.028 1123.97C648.686 1123.46 644.316 1122.83 644.316 1122.55C644.316 1122.27 646.409 1118.89 648.967 1115.03C655.725 1104.85 661.268 1087.6 663.062 1071.16C665.383 1049.9 679.975 975.177 681.506 976.708C681.788 976.991 681.029 989.164 679.817 1003.76ZM402.69 1026.31C406.948 1039.27 419.001 1064.53 429.222 1081.91L436.702 1094.63L424.612 1081.91C394.79 1050.54 382.163 1031.42 379.809 1014.09C378.889 1007.31 378.999 1007.01 385.908 997.518L392.942 987.849L396.051 1001.7C397.76 1009.32 400.747 1020.39 402.69 1026.31ZM452.041 1011.23C444.227 1026.56 433.223 1042.74 431.672 1041.19C431.301 1040.82 436.32 1030.52 442.827 1018.29C452.76 999.633 454.83 996.534 455.733 998.973C456.526 1001.12 455.557 1004.33 452.041 1011.23ZM375.762 1022.61C380.555 1039.08 390.859 1053.94 416.716 1081.66C425.858 1091.46 437.819 1104.3 443.295 1110.19L453.25 1120.9L435.928 1120.04C415.817 1119.05 389.505 1116.25 379.473 1114.05C375.631 1113.2 370.507 1111.18 368.087 1109.55C361.003 1104.79 360.044 1098.58 360.792 1062.35L361.431 1031.4L367.246 1023.25C370.444 1018.77 373.169 1015.08 373.3 1015.04C373.433 1015 374.541 1018.4 375.762 1022.61ZM1034.77 1064.51C1042.15 1090.2 1045.69 1117.9 1042.28 1123.27C1040.81 1125.59 1035.28 1117.69 1032.08 1108.69C1027.22 1095.01 1023.31 1066.02 1023.51 1045.28L1023.62 1034.38L1026.99 1041.74C1028.84 1045.79 1032.34 1056.04 1034.77 1064.51ZM1212.36 1081.66C1225.03 1098.6 1231.56 1106.07 1235.66 1108.33C1237.98 1109.61 1238.06 1110.04 1236.33 1112.12C1235.26 1113.41 1232.59 1115.21 1230.39 1116.14C1222.95 1119.27 1215.84 1112.92 1208.44 1096.55C1205.08 1089.12 1198.86 1070.94 1196.79 1062.5C1196.21 1060.13 1196.39 1060.18 1198.39 1062.91C1199.64 1064.62 1205.92 1073.05 1212.36 1081.66ZM482.436 1130.12C482.18 1131.96 481.784 1133.66 481.556 1133.9C480.866 1134.62 473.444 1130.43 471.709 1128.34C470.323 1126.67 471.021 1126.42 476.495 1126.58C482.521 1126.76 482.874 1126.97 482.436 1130.12ZM591.168 1128.81C604.809 1130.18 610.025 1131.85 609.128 1134.56C608.481 1136.52 584.45 1137.76 542.512 1138.02C508.415 1138.22 490.838 1139.7 480.31 1143.25C473.116 1145.68 473.071 1145.68 472.467 1142.93C472.134 1141.41 471.408 1139.08 470.853 1137.76C469.894 1135.47 470.07 1135.47 474.558 1137.61C481.74 1141.03 485.93 1139.39 487.792 1132.43L489.307 1126.77L533.657 1127.13C558.052 1127.33 583.93 1128.09 591.168 1128.81ZM1245.47 1142.35C1253.04 1143.19 1258.96 1144.16 1258.62 1144.5C1257.71 1145.41 1199.16 1142.13 1192.19 1140.78C1183.59 1139.1 1228.15 1140.42 1245.47 1142.35ZM457.451 1164.39C453.542 1167.67 438.028 1176.25 438.028 1175.12C438.028 1174.81 441.493 1172.61 445.73 1170.23C449.967 1167.85 454.87 1164.78 456.627 1163.41C461.403 1159.68 462.086 1160.49 457.451 1164.39Z" fill="black"/>
</svg>
