<svg width="413" height="318" viewBox="0 0 413 318" fill="none" xmlns="http://www.w3.org/2000/svg">
<path d="M215.104 280.538C287.333 280.538 345.887 221.47 345.887 148.607C345.887 75.7434 287.333 16.6764 215.104 16.6764C142.875 16.6764 84.3208 75.7434 84.3208 148.607C84.3208 221.47 142.875 280.538 215.104 280.538Z" stroke="#FE5000" stroke-width="2" stroke-miterlimit="10" stroke-dasharray="12 12"/>
<path d="M242.636 0L70.0391 78.5308L179.193 317.223L351.79 238.69L242.636 0Z" fill="white"/>
<path d="M196.494 13.3778L110.871 52.3363L120.332 73.0242L205.955 34.0668L196.494 13.3778Z" fill="#F9F6FD"/>
<path d="M153.251 31.9146C151.859 32.5869 150.298 32.8301 148.767 32.6145C147.237 32.3988 145.806 31.7345 144.657 30.7032C143.507 29.673 142.694 28.3227 142.316 26.8279C141.939 25.3319 142.017 23.7602 142.54 22.3101C143.064 20.8589 144.008 19.5958 145.256 18.6837C146.501 17.7717 147.993 17.2509 149.537 17.1878C151.081 17.1235 152.608 17.5216 153.925 18.3281C155.242 19.1357 156.289 20.3151 156.931 21.7181C157.36 22.629 157.604 23.6156 157.652 24.6206C157.699 25.6256 157.548 26.6305 157.207 27.5781C156.865 28.5246 156.341 29.3965 155.662 30.141C154.983 30.8856 154.163 31.489 153.251 31.9169V31.9146ZM144.434 12.6379C137.826 15.647 134.968 23.556 138.057 30.3074C141.144 37.0576 149.006 40.0943 155.615 37.0863C162.224 34.0772 165.08 26.1671 161.992 19.4157C158.904 12.6643 151.043 9.62985 144.434 12.6379Z" fill="#F9F6FD"/>
<path d="M195.597 13.8037L111.776 51.942L120.821 71.7201L204.641 33.583L195.597 13.8037Z" fill="#141B4D"/>
<path d="M153.271 31.9709C151.935 32.5789 150.447 32.7786 148.997 32.5422C147.546 32.307 146.2 31.6474 145.125 30.6482C144.05 29.6489 143.297 28.356 142.96 26.9289C142.623 25.5029 142.716 24.0092 143.231 22.636C143.745 21.2627 144.654 20.0731 145.846 19.2161C147.038 18.3591 148.46 17.875 149.928 17.8222C151.397 17.7706 152.846 18.1538 154.096 18.9247C155.345 19.6956 156.338 20.8165 156.948 22.1495C157.766 23.9381 157.837 25.9778 157.148 27.8191C156.458 29.6593 155.064 31.1518 153.271 31.9675V31.9709ZM144.844 13.5396C142.525 14.5939 140.574 16.309 139.234 18.4704C137.894 20.6306 137.226 23.1407 137.316 25.6807C137.405 28.2195 138.247 30.6745 139.736 32.7361C141.225 34.7988 143.294 36.3728 145.68 37.263C148.066 38.1521 150.663 38.3162 153.143 37.7334C155.622 37.1495 157.873 35.8462 159.61 33.9877C161.346 32.1281 162.491 29.7981 162.9 27.2891C163.308 24.7813 162.963 22.2092 161.906 19.8975C160.488 16.7977 157.894 14.3851 154.695 13.1932C151.495 12.0012 147.951 12.1263 144.844 13.5396Z" fill="#141B4D"/>
<path d="M132.785 96.6843L95.8309 113.499L112.686 150.361L149.64 133.547L132.785 96.6843Z" fill="#F9F6FD"/>
<path d="M166.315 169.674L129.361 186.49L146.218 223.35L183.172 206.536L166.315 169.674Z" fill="#F9F6FD"/>
<path d="M132.045 98.6501L97.7983 114.233L113.419 148.396L147.668 132.812L132.045 98.6501Z" fill="#2C9900"/>
<path d="M165.143 171.019L130.893 186.601L146.516 220.763L180.765 205.181L165.143 171.019Z" fill="#141B4D"/>
<path d="M206.345 77.5832L159.401 98.9433L160.895 102.212L207.84 80.8516L206.345 77.5832Z" fill="#FE5000"/>
<path d="M239.159 68.5774L161.646 103.845L163.141 107.113L240.653 71.8447L239.159 68.5774Z" fill="#FE5000"/>
<path d="M235.935 75.9609L163.882 108.746L165.378 112.014L237.43 79.2282L235.935 75.9609Z" fill="#FE5000"/>
<path d="M239.444 149.956L192.499 171.316L193.993 174.583L240.937 153.224L239.444 149.956Z" fill="#FE5000"/>
<path d="M272.254 140.947L194.742 176.214L196.236 179.482L273.749 144.214L272.254 140.947Z" fill="#FE5000"/>
<path d="M269.034 148.332L196.979 181.118L198.475 184.384L270.528 151.601L269.034 148.332Z" fill="#FE5000"/>
<path d="M114.03 125.022L122.849 127.879L125.752 110.947L130.043 112.118L125.216 133.049L111.915 127.234L114.03 125.022Z" fill="#F9F6FD"/>
<path d="M115.155 124.798L122.823 127.279L125.345 112.556L129.075 113.575L124.877 131.777L113.312 126.722L115.155 124.798Z" fill="white"/>
<path d="M148.455 197.618L156.124 200.099L158.646 185.376L162.376 186.396L158.179 204.597L146.615 199.542L148.455 197.618Z" fill="white"/>
<path d="M295.685 199.326L186.175 249.151L202.825 285.561L312.335 235.736L295.685 199.326Z" fill="#FE5000"/>
<path d="M233.729 239.931C235.439 238.348 237.819 238.696 238.838 240.871C239.855 243.046 239.407 246.114 237.979 248.031C237.789 248.283 237.581 248.518 237.352 248.736C236.358 248.404 235.436 247.88 234.645 247.194C232.623 245.376 231.481 242.016 233.744 239.921L233.729 239.931ZM230.812 260.39C229.98 261.211 229.099 260.56 228.655 259.7C228.115 258.654 228.347 257.624 229.035 256.704C229.147 256.553 229.268 256.41 229.395 256.272C231.04 257.334 232.385 258.851 230.827 260.39H230.812ZM279.809 228.342C275.599 227.146 271.293 227.373 269.952 232.173C269.5 233.79 269.447 236.302 267.708 237.136C265.147 238.363 262.059 235.908 259.838 234.908C255.697 233.043 251.447 234.313 249.05 238.23C247.836 240.216 247.315 242.5 246.901 244.762C246.723 245.743 246.7 246.956 246.286 247.879C245.492 249.65 243.008 249.49 241.379 249.421C241.021 249.421 240.656 249.38 240.293 249.342C241.58 247.572 242.223 245.416 242.115 243.231C242.009 239.643 239.673 235.719 235.59 236.158C231.933 236.537 229.357 240.06 229.768 243.625C230.117 246.656 232.096 249.005 234.633 250.445C233.387 250.994 232.058 251.422 230.881 251.99C230.33 252.256 229.797 252.553 229.282 252.881C225.723 251.168 221.047 250.846 217.845 252.593C216.295 253.438 217.427 255.949 218.984 255.097C221.423 253.767 224.112 254.101 226.66 254.945L226.873 255.022C226.621 255.344 226.399 255.686 226.208 256.048C224.769 258.836 226.208 263.246 229.711 263.549C234.648 263.97 234.88 257.461 232.198 254.869C232.084 254.759 231.971 254.654 231.849 254.552C232.958 254.017 234.158 253.615 235.217 253.165C236.141 252.775 237.02 252.287 237.839 251.71L238.028 251.759C241.8 252.612 247.688 252.877 249.044 248.319C250.206 244.364 250.316 235.964 256.582 236.741C259.138 237.056 261.235 239.016 263.666 239.724C265.842 240.372 268.36 240.398 270.146 238.8C271.62 237.481 271.95 235.533 272.402 233.715C272.634 232.775 272.861 231.654 273.629 230.984C275.014 229.775 277.305 230.486 278.851 230.926C280.541 231.403 281.521 228.827 279.809 228.342Z" fill="#141B4D"/>
<path d="M302.586 81.1691L271.927 93.091C266.161 92.6631 254.031 91.1029 241.99 85.4391C228.586 79.1339 213.231 79.15 200.21 85.7534C170.205 86.4693 153.691 82.6353 144.879 79.0055L147.203 74.2468L116.126 62.1619L5.16248 10.2628V152.622L65.6234 181.872L80.208 146.973L112.237 161.748L118.386 146.162L139.417 161.729L140.849 162.929L138.878 164.971C137.07 166.876 136.063 169.399 136.063 172.02C136.063 174.642 137.07 177.165 138.878 179.068C139.752 179.991 140.807 180.726 141.976 181.228C143.145 181.73 144.404 181.989 145.677 181.989C146.949 181.989 148.208 181.73 149.377 181.228C150.546 180.726 151.601 179.991 152.475 179.068L151.397 180.205C149.589 182.11 148.581 184.632 148.581 187.254C148.581 189.876 149.589 192.399 151.397 194.302C152.271 195.225 153.325 195.96 154.494 196.462C155.663 196.964 156.923 197.223 158.195 197.223C159.467 197.223 160.727 196.964 161.896 196.462C163.065 195.96 164.119 195.225 164.993 194.302L171.223 187.844L166.946 192.276C165.139 194.18 164.132 196.702 164.132 199.325C164.132 201.946 165.139 204.469 166.946 206.374C167.82 207.296 168.875 208.03 170.044 208.533C171.213 209.034 172.472 209.293 173.744 209.293C175.018 209.293 176.276 209.034 177.445 208.533C178.614 208.03 179.669 207.296 180.543 206.374L186.693 199.997L184.106 202.679C182.842 204.009 182.139 205.772 182.139 207.604C182.139 209.437 182.842 211.2 184.106 212.529C184.717 213.173 185.453 213.686 186.27 214.037C187.086 214.387 187.965 214.568 188.853 214.568C189.742 214.568 190.622 214.387 191.438 214.037C192.255 213.686 192.99 213.173 193.602 212.529L197.703 208.279C204.749 213.413 210.45 217.16 213.242 218.129C224.875 222.152 224.875 214.094 224.875 214.094C240.414 222.149 248.184 206.04 248.184 206.04C267.608 214.094 267.608 193.955 267.608 193.955C272.463 197.31 275.964 195.773 278.41 192.818C281.742 188.81 282.148 183.153 279.861 178.614L298.427 161.501L306.456 177.875L338.486 163.1L353.07 195.352L412.426 164.971L408.985 24.1017L302.586 81.1691Z" fill="#F9F6FD"/>
<path d="M297.428 155.717L263.617 185.692L237.322 136.978L297.428 121.991V155.717Z" fill="#BD7B5E"/>
<path d="M135.892 77.0246C135.892 77.0246 146.743 92.0119 211.024 88.2651L248.592 144.472L273.765 172.724C277.72 177.163 277.943 183.896 274.061 188.397C271.702 191.128 268.311 192.564 263.617 189.439C263.617 189.439 263.617 208.173 244.834 200.679C244.834 200.679 237.322 215.666 222.296 208.173C222.296 208.173 222.296 215.666 211.027 211.92C199.758 208.173 139.649 159.464 139.649 159.464L113.355 140.729L135.892 77.0246Z" fill="#FCA47C"/>
<path d="M271.129 95.7635C271.129 95.7635 254.896 95.7635 238.845 88.4924C224.249 81.889 207.253 82.7299 193.784 91.3983C182.808 98.464 173.297 110.163 173.475 129.485C173.475 129.485 188.082 144.472 203.526 114.498H214.796C214.796 114.498 225.646 151.97 256.118 148.216C286.591 144.461 293.687 140.722 293.687 140.722L271.129 95.7635Z" fill="#BD7B5E"/>
<path d="M172.505 169.751L171.286 168.535C167.991 165.249 162.65 165.249 159.356 168.534L150.626 177.244C147.332 180.53 147.332 185.857 150.626 189.144L151.845 190.36C155.14 193.646 160.479 193.646 163.774 190.36L172.505 181.651C175.799 178.366 175.799 173.037 172.505 169.751Z" fill="#BD7B5E"/>
<path d="M160.398 155.597L159.178 154.38C155.883 151.095 150.544 151.095 147.249 154.38L138.518 163.089C135.224 166.376 135.224 171.704 138.518 174.989L139.736 176.205C143.031 179.491 148.371 179.492 151.666 176.205L160.398 167.497C163.691 164.21 163.691 158.882 160.398 155.597Z" fill="#BD7B5E"/>
<path d="M189.409 179.117L188.189 177.899C184.894 174.614 179.554 174.614 176.259 177.899L165.651 188.481C162.356 191.767 162.356 197.095 165.651 200.382L166.87 201.599C170.164 204.884 175.505 204.884 178.8 201.599L189.409 191.016C192.702 187.73 192.702 182.402 189.409 179.117Z" fill="#BD7B5E"/>
<path d="M198.303 192.154L197.452 191.304C195.152 189.009 191.422 189.009 189.121 191.304L182.426 197.983C180.125 200.277 180.125 203.998 182.426 206.293L183.277 207.142C185.578 209.437 189.308 209.437 191.608 207.142L198.303 200.463C200.604 198.169 200.604 194.448 198.303 192.154Z" fill="#BD7B5E"/>
<path d="M334.991 163.21L301.183 178.197L267.373 95.7606L297.428 84.5213L334.991 163.21Z" fill="white"/>
<path d="M79.5461 144.475L113.355 159.464L147.166 77.0279L117.111 65.7839L79.5461 144.475Z" fill="white"/>
<path d="M0 12.5643L117.111 65.784L68.2781 178.198L0 147.459V12.5643Z" fill="#FE5000"/>
<path d="M413 24.7065L297.428 84.5215L346.264 196.932L413 159.601V24.7065Z" fill="#141B4D"/>
</svg>
