<svg width="1730" height="753" viewBox="0 0 1730 753" fill="none" xmlns="http://www.w3.org/2000/svg">
<path opacity="0.05" fill-rule="evenodd" clip-rule="evenodd" d="M844.636 21.3306C817.424 39.8894 808.563 49.4317 808.492 60.2365C808.45 68.1078 804.911 76.8615 800.641 79.6824C795.326 83.1933 795.127 87.5772 800.009 93.6039C805.139 99.9356 804.208 105.662 796.691 114.054C786.48 125.45 786.331 125.3 789.962 107.342C792.008 97.2415 791.014 90.905 787.759 93.2612C777.357 100.799 772.881 132.74 782.21 132.904C786.85 132.984 785.052 135.856 778.21 139.287C767.126 144.845 765.776 155.326 765.776 235.752C765.776 305.829 763.794 325.547 756.894 324.049C752.013 322.989 747.018 314.371 745.81 304.904C744.07 291.278 740.069 287.096 726.676 284.876C717.361 283.332 706.582 283.355 702.724 284.932C698.866 286.509 693.836 285.796 691.548 283.351C686.546 278.004 662.921 280.44 628.994 289.804L604.005 296.704L597.852 518.645C594.47 640.713 590.789 720.182 589.674 695.249L587.649 649.913L561.253 645.796L534.857 641.68L532.875 576.452C531.702 538.142 527.681 508.675 523.119 505.042C514.906 498.499 488.609 497.115 462.029 501.818C446.497 504.568 446.042 506.375 446.042 565.121C446.042 602.305 443.306 625.59 438.937 625.59C434.581 625.59 431.832 648.275 431.832 684.261C431.832 720.247 429.082 742.932 424.726 742.932C420.222 742.932 417.621 707.729 417.621 646.712V550.491H339.464H261.307V589.74V628.993L224.005 631.847C203.492 633.419 155.631 636.127 117.647 637.869L48.5985 641.037L46.5948 692.771L44.5982 744.504L23.4105 746.372C-8.74048 749.203 -7.56812 752.319 25.6487 752.319H55.256V701.06V649.805L74.7953 647.331C85.5384 645.97 121.512 643.473 154.729 641.783C187.946 640.089 223.919 638.019 234.662 637.183L254.202 635.663V691.921C254.202 728.231 256.724 747.152 261.307 745.279C265.52 743.561 268.44 714.286 268.476 673.423C268.504 635.498 270.572 593.269 273.059 579.583C277.315 556.161 278.679 554.776 296.087 556.114L314.596 557.532L318.148 656.099C321.246 742.078 322.376 749.574 326.987 714.77C329.893 692.827 332.295 651.283 332.316 622.455C332.337 593.621 334.298 566.694 336.672 562.61C339.4 557.907 349.61 555.185 364.51 555.185C412.363 555.185 410.516 551.111 410.516 656.601C410.516 749.189 410.978 752.319 424.726 752.319C438.212 752.319 438.937 749.189 438.937 691.025C438.937 651.358 441.445 630.753 446.042 632.631C450.646 634.508 453.147 613.302 453.147 572.425V509.314L474.463 507.248L495.778 505.178V541.639C495.778 591.566 508.76 594.114 511.801 544.784C513.399 518.912 514.685 528.285 515.644 572.786L517.094 639.671H495.778H474.463L474.385 678.394C474.342 699.689 472.324 725.04 469.901 734.718L465.496 752.319H494.201H522.906L525.329 703.416C526.665 676.516 529.919 653.086 532.569 651.34C535.226 649.594 547.213 649.589 559.214 651.33L581.041 654.498V703.406C581.041 741.928 583.13 752.319 590.874 752.319C598.974 752.319 601.518 722.801 605.348 584.52C607.898 492.233 612.268 390.465 615.053 358.379L620.119 300.037L643.211 293.827L666.303 287.617V520.311C666.303 739.398 667.028 752.915 678.737 751.428C690.34 749.954 691.299 734.798 693.139 524.657C695.193 289.157 696.06 282.876 725.433 290.321C733.383 292.334 737.355 298.704 737.355 309.414C737.355 319.374 741.412 326.518 748.013 328.189C755.48 330.085 758.671 337.774 758.671 353.859C758.671 376.248 758.138 376.825 737.355 376.825H716.039L716.018 413.201C716.011 433.206 713.908 492.346 711.343 544.624C708.245 607.763 709.098 639.671 713.887 639.671C717.844 639.671 724.054 632.804 727.671 624.417C733.611 610.669 737.22 609.021 764.227 607.721L794.197 606.276V679.3V752.319H836.828H879.459V682.201V612.086L847.486 608.918C822.376 606.43 815.512 603.816 815.512 596.747C815.512 591.796 810.716 586.529 804.854 585.046C796.136 582.835 794.182 571.12 794.111 520.654C794.062 486.723 789.301 424.114 783.539 381.519C777.777 338.924 773.016 270.077 772.966 228.528C772.888 157.292 773.748 152.472 788.036 144.042L803.199 135.101L798.758 286.472C795.447 399.364 796.399 437.843 802.51 437.843C807.014 437.843 830.17 430.324 853.966 421.133L897.222 404.419L892.163 243.947C889.378 155.682 886.181 78.2274 885.058 71.8205C883.012 60.1708 882.997 60.1755 853.731 77.6876C837.624 87.319 822.028 95.2044 819.079 95.2044C816.123 95.2044 815.271 84.4371 817.182 71.276C820.138 50.9712 825.118 44.4094 850.065 27.9299L879.459 8.50748V31.5159C879.459 57.3077 886.578 57.2232 893.002 31.3516L897.222 14.3323L916.761 27.2446C939.086 42.0016 943.683 54.1347 922.048 41.199C914.203 36.5147 905.414 34.3227 902.508 36.3269C899.602 38.3311 906.665 44.4798 918.204 49.9855C958.554 69.2484 971.827 80.3865 971.827 94.9932C971.827 102.855 969.937 109.285 967.627 109.285C965.318 109.285 950.355 101.893 934.375 92.8576C884.433 64.6157 887.609 75.1202 938.077 105.089L986.037 133.571L986.797 195.353C987.216 229.336 989.611 292.517 992.126 335.765C994.641 379.008 996.013 414.389 995.181 414.384C994.35 414.379 977.56 410.183 957.879 405.058C911.262 392.915 912.072 398.951 959.4 416.351C979.912 423.889 999.047 432.337 1001.92 435.125C1009.45 442.433 1008.57 494.167 1000.91 494.167C997.363 494.167 973.255 487.882 947.335 480.199C889.818 463.151 885.299 466.667 911.013 508.469C925.664 532.289 929.195 545.905 929.195 578.592V619.16L954.064 626.993L978.932 634.827L980.012 685.359C980.609 713.151 981.411 739.06 981.788 742.932C982.172 746.804 989.753 750.653 998.627 751.484L1014.78 753L1009.97 668.443L1005.16 583.887L1022.24 581.413C1031.64 580.047 1047.32 578.344 1057.09 577.621C1073.72 576.391 1074.99 574.396 1077 546.178C1078.46 525.624 1083.54 511.97 1092.98 503.212C1100.73 496.03 1106.83 482.691 1106.83 472.947C1106.83 457.167 1108.33 455.792 1122.81 458.354C1131.61 459.908 1141.34 461.213 1144.44 461.246C1147.54 461.283 1149.56 463.954 1148.92 467.178C1148.29 470.408 1148.15 535.88 1148.62 612.682L1149.46 752.319H1171.59H1193.72L1189.57 727.678C1186.15 707.326 1181.52 497.321 1184.18 482.719C1184.62 480.297 1191.22 482.409 1198.85 487.413C1206.48 492.421 1217.87 499.363 1224.17 502.841C1233.08 507.774 1235.17 516.382 1233.59 541.888C1231.64 573.49 1230.89 574.701 1211.83 577.217C1177.59 581.742 1190.21 588.984 1229.39 587.299L1266.69 585.694L1271.08 658.446C1273.49 698.459 1276.41 736.478 1277.56 742.932C1280.49 759.383 1289.51 692.142 1290.63 645.538C1291.55 607.529 1291.89 606.815 1309.32 606.815C1322.17 606.815 1327.09 609.336 1327.09 615.926C1327.09 620.939 1330.28 626.341 1334.19 627.937C1338.1 629.533 1341.3 635.006 1341.3 640.094C1341.3 645.186 1346.09 650.57 1351.95 652.053C1360.48 654.217 1362.61 664.505 1362.61 703.538V752.319H1394.59H1426.56V671.222V590.125L1463.86 592.603L1501.16 595.081L1504.72 674.874C1508.25 754.3 1508.29 754.464 1513.6 710.527C1516.53 686.251 1518.93 651.931 1518.93 634.255C1518.93 607.979 1521.62 600.343 1533.68 592.373C1541.81 587.008 1553.26 583.84 1559.14 585.332C1565.02 586.82 1572.76 588.041 1576.35 588.041C1579.94 588.041 1582.87 600.714 1582.87 616.203C1582.87 631.847 1586.03 644.365 1589.98 644.365C1594.31 644.365 1597.08 665.486 1597.08 698.342V752.319H1665.77C1703.54 752.319 1732.38 750.949 1729.84 749.278C1727.31 747.602 1699.6 746.682 1668.26 747.227L1611.29 748.222L1610.41 698.642C1609.32 637.939 1609.14 637.043 1598.54 638.498C1592.67 639.3 1589.98 631.434 1589.98 613.523C1589.98 597.114 1586.2 584.872 1579.83 580.667C1566.23 571.683 1535.72 572.134 1530.34 581.399C1526.68 587.698 1517.85 588.336 1472.91 585.553L1419.8 582.267L1417.85 663.773L1415.9 745.279L1392.81 746.748L1369.72 748.222V698.915C1369.72 671.109 1366.62 648.35 1362.61 646.712C1358.7 645.116 1355.51 639.939 1355.51 635.203C1355.51 630.467 1350.71 625.379 1344.85 623.891C1338.99 622.408 1334.19 615.846 1334.19 609.308C1334.19 598.897 1331.16 597.428 1309.71 597.428C1285.62 597.428 1285.19 597.78 1282.57 619.723C1280.36 638.23 1279.69 636.634 1278.63 610.336C1277.4 579.897 1276.65 578.653 1259.59 578.653C1241.96 578.653 1241.82 578.339 1241.82 536.41C1241.82 511.379 1238.93 494.167 1234.72 494.167C1230.81 494.167 1221.53 490.149 1214.11 485.244C1206.67 480.335 1193.64 474.862 1185.15 473.083L1169.71 469.844L1174.85 608.857C1179.59 736.905 1179.07 747.635 1168.28 744.899C1157.75 742.228 1156.56 727.523 1156.56 600.014V458.106L1129.09 452.666C1091.36 445.198 1092.64 444.611 1092.46 469.525C1092.36 483.771 1087.62 495.838 1079.34 502.949C1067.34 513.256 1064.58 513.641 1041.77 508.192L1017.14 502.311L1008.7 405.541C1004.05 352.315 998.194 266.988 995.679 215.931C993.171 164.868 988.375 121.972 985.021 120.607C981.674 119.236 978.932 108.009 978.932 95.655C978.932 79.152 975.159 70.9381 964.721 64.6955C956.906 60.0253 950.511 52.3746 950.511 47.7044C950.511 38.4297 913.5 8.34321 893.307 1.20412C883.111 -2.40062 873.761 1.46698 844.636 21.3306ZM885.584 314.01L886.564 399.045L859.92 410.559C803.867 434.778 808.407 446.939 808.407 272.611V117.063L842.157 95.6785L875.906 74.2941L880.255 151.632C882.642 194.171 885.044 267.242 885.584 314.01ZM680.648 515.551C680.428 638.986 678.709 740.994 676.826 742.237C674.95 743.481 673.408 641.351 673.408 515.289C673.408 389.226 675.128 287.218 677.231 288.603C679.334 289.992 680.869 392.122 680.648 515.551ZM782.082 486.76C786.672 566.647 789.763 585.952 798.645 590.242C807.405 594.471 801.025 596.447 766.351 600.235L723.145 604.957V495.303V385.645L749.789 387.104L776.434 388.559L782.082 486.76ZM1015.79 536.41L1018.01 566.919L1039.33 547.07C1051.05 536.157 1063.04 527.178 1065.97 527.121C1075.05 526.952 1071.83 563.803 1062.42 567.651C1057.54 569.651 1040.84 572.415 1025.32 573.795L997.107 576.306L999.359 656.099C1000.6 699.985 1003.09 737.478 1004.9 739.412C1006.71 741.346 1004.8 742.932 1000.67 742.932C995.8 742.932 993.135 723.463 993.121 687.781L993.107 632.631L966.476 623.243L939.853 613.856L936.066 566.919C933.537 535.612 928.215 514.979 920.079 504.963C897.421 477.054 903.062 475.144 960.721 491.191L1013.57 505.901L1015.79 536.41ZM1047.92 516.692C1054.18 519.32 1051.8 524.094 1039.21 534.223L1021.91 548.144L1023.51 530.552C1025.1 513.158 1031.22 509.68 1047.92 516.692ZM837.915 613.307C852.196 615.039 865.782 619.742 868.112 623.755C874.18 634.203 873.157 734.882 866.918 741.069C864.048 743.913 848.907 746.025 833.275 745.762L804.854 745.279L803.071 672.527C802.098 632.513 803.696 602.112 806.624 604.966C809.558 607.82 823.641 611.575 837.915 613.307ZM516.987 690.128C516.874 738.426 511.545 750.827 492.943 746.11C483.564 743.735 481.568 735.018 481.568 696.535C481.568 663.571 484.183 649.143 490.449 647.472C515.183 640.882 517.094 643.952 516.987 690.128Z" fill="black"/>
</svg>
