<svg width="201" height="78" viewBox="0 0 201 78" fill="none" xmlns="http://www.w3.org/2000/svg">
<path d="M101.316 25.3965H105.404C105.322 26.7363 104.953 27.9258 104.297 28.9648C103.65 30.0039 102.743 30.8151 101.576 31.3984C100.419 31.9818 99.0241 32.2734 97.3926 32.2734C96.1165 32.2734 94.9727 32.0547 93.9609 31.6172C92.9492 31.1706 92.0833 30.5326 91.3633 29.7031C90.6523 28.8737 90.11 27.8711 89.7363 26.6953C89.3626 25.5195 89.1758 24.2025 89.1758 22.7441V21.3633C89.1758 19.9049 89.3672 18.5879 89.75 17.4121C90.1419 16.2272 90.6979 15.2201 91.418 14.3906C92.1471 13.5612 93.0176 12.9232 94.0293 12.4766C95.041 12.0299 96.1712 11.8066 97.4199 11.8066C99.0788 11.8066 100.478 12.1074 101.617 12.709C102.766 13.3105 103.654 14.14 104.283 15.1973C104.921 16.2546 105.304 17.4577 105.432 18.8066H101.33C101.285 18.0046 101.125 17.3255 100.852 16.7695C100.578 16.2044 100.163 15.7806 99.6074 15.498C99.0605 15.2064 98.3314 15.0605 97.4199 15.0605C96.7363 15.0605 96.1393 15.1882 95.6289 15.4434C95.1185 15.6986 94.6901 16.0859 94.3438 16.6055C93.9974 17.125 93.7376 17.7812 93.5645 18.5742C93.4004 19.3581 93.3184 20.2786 93.3184 21.3359V22.7441C93.3184 23.7741 93.3958 24.681 93.5508 25.4648C93.7057 26.2396 93.9427 26.8958 94.2617 27.4336C94.5898 27.9622 95.0091 28.3633 95.5195 28.6367C96.0391 28.901 96.6634 29.0332 97.3926 29.0332C98.2493 29.0332 98.9557 28.8965 99.5117 28.623C100.068 28.3496 100.492 27.944 100.783 27.4062C101.084 26.8685 101.262 26.1986 101.316 25.3965ZM107.223 24.7539V24.4668C107.223 23.3822 107.378 22.3841 107.688 21.4727C107.997 20.5521 108.449 19.7546 109.041 19.0801C109.633 18.4056 110.363 17.8815 111.229 17.5078C112.094 17.125 113.088 16.9336 114.209 16.9336C115.33 16.9336 116.328 17.125 117.203 17.5078C118.078 17.8815 118.812 18.4056 119.404 19.0801C120.006 19.7546 120.462 20.5521 120.771 21.4727C121.081 22.3841 121.236 23.3822 121.236 24.4668V24.7539C121.236 25.8294 121.081 26.8275 120.771 27.748C120.462 28.6595 120.006 29.457 119.404 30.1406C118.812 30.8151 118.083 31.3392 117.217 31.7129C116.351 32.0866 115.357 32.2734 114.236 32.2734C113.115 32.2734 112.117 32.0866 111.242 31.7129C110.376 31.3392 109.643 30.8151 109.041 30.1406C108.449 29.457 107.997 28.6595 107.688 27.748C107.378 26.8275 107.223 25.8294 107.223 24.7539ZM111.16 24.4668V24.7539C111.16 25.3737 111.215 25.9525 111.324 26.4902C111.434 27.028 111.607 27.502 111.844 27.9121C112.09 28.3132 112.409 28.6276 112.801 28.8555C113.193 29.0833 113.671 29.1973 114.236 29.1973C114.783 29.1973 115.253 29.0833 115.645 28.8555C116.036 28.6276 116.351 28.3132 116.588 27.9121C116.825 27.502 116.998 27.028 117.107 26.4902C117.226 25.9525 117.285 25.3737 117.285 24.7539V24.4668C117.285 23.8652 117.226 23.3001 117.107 22.7715C116.998 22.2337 116.82 21.7598 116.574 21.3496C116.337 20.9303 116.023 20.6022 115.631 20.3652C115.239 20.1283 114.765 20.0098 114.209 20.0098C113.653 20.0098 113.179 20.1283 112.787 20.3652C112.404 20.6022 112.09 20.9303 111.844 21.3496C111.607 21.7598 111.434 22.2337 111.324 22.7715C111.215 23.3001 111.16 23.8652 111.16 24.4668ZM127.594 20.2695V32H123.643V17.207H127.348L127.594 20.2695ZM127.047 24.084H125.953C125.953 23.054 126.076 22.1061 126.322 21.2402C126.577 20.3652 126.947 19.6087 127.43 18.9707C127.922 18.3236 128.528 17.8223 129.248 17.4668C129.968 17.1113 130.802 16.9336 131.75 16.9336C132.406 16.9336 133.008 17.0339 133.555 17.2344C134.102 17.4258 134.571 17.7311 134.963 18.1504C135.364 18.5605 135.674 19.0983 135.893 19.7637C136.111 20.4199 136.221 21.2083 136.221 22.1289V32H132.283V22.5664C132.283 21.8919 132.192 21.3724 132.01 21.0078C131.827 20.6432 131.568 20.388 131.23 20.2422C130.902 20.0964 130.506 20.0234 130.041 20.0234C129.531 20.0234 129.084 20.1283 128.701 20.3379C128.327 20.5475 128.018 20.8392 127.771 21.2129C127.525 21.5775 127.343 22.0059 127.225 22.498C127.106 22.9902 127.047 23.5189 127.047 24.084ZM135.852 23.6328L134.443 23.8105C134.443 22.8444 134.562 21.9466 134.799 21.1172C135.045 20.2878 135.405 19.5586 135.879 18.9297C136.362 18.3008 136.959 17.8132 137.67 17.4668C138.381 17.1113 139.201 16.9336 140.131 16.9336C140.842 16.9336 141.489 17.0384 142.072 17.248C142.656 17.4486 143.152 17.7721 143.562 18.2188C143.982 18.6562 144.301 19.2305 144.52 19.9414C144.747 20.6523 144.861 21.5228 144.861 22.5527V32H140.91V22.5527C140.91 21.8691 140.819 21.3496 140.637 20.9941C140.464 20.6296 140.208 20.3789 139.871 20.2422C139.543 20.0964 139.151 20.0234 138.695 20.0234C138.221 20.0234 137.807 20.1191 137.451 20.3105C137.096 20.4928 136.799 20.748 136.562 21.0762C136.326 21.4043 136.148 21.7871 136.029 22.2246C135.911 22.653 135.852 23.1224 135.852 23.6328ZM152.066 17.207V32H148.115V17.207H152.066ZM147.869 13.3516C147.869 12.7773 148.07 12.3034 148.471 11.9297C148.872 11.556 149.41 11.3691 150.084 11.3691C150.749 11.3691 151.283 11.556 151.684 11.9297C152.094 12.3034 152.299 12.7773 152.299 13.3516C152.299 13.9258 152.094 14.3997 151.684 14.7734C151.283 15.1471 150.749 15.334 150.084 15.334C149.41 15.334 148.872 15.1471 148.471 14.7734C148.07 14.3997 147.869 13.9258 147.869 13.3516ZM159.176 20.3652V32H155.238V17.207H158.93L159.176 20.3652ZM158.602 24.084H157.535C157.535 22.9902 157.676 22.0059 157.959 21.1309C158.242 20.2467 158.638 19.4948 159.148 18.875C159.659 18.2461 160.265 17.7676 160.967 17.4395C161.678 17.1022 162.471 16.9336 163.346 16.9336C164.038 16.9336 164.672 17.0339 165.246 17.2344C165.82 17.4349 166.312 17.7539 166.723 18.1914C167.142 18.6289 167.461 19.2077 167.68 19.9277C167.908 20.6478 168.021 21.5273 168.021 22.5664V32H164.057V22.5527C164.057 21.8965 163.965 21.3861 163.783 21.0215C163.601 20.6569 163.332 20.4017 162.977 20.2559C162.63 20.1009 162.202 20.0234 161.691 20.0234C161.163 20.0234 160.702 20.1283 160.311 20.3379C159.928 20.5475 159.609 20.8392 159.354 21.2129C159.107 21.5775 158.921 22.0059 158.793 22.498C158.665 22.9902 158.602 23.5189 158.602 24.084ZM180.381 17.207H183.949V31.5078C183.949 32.8568 183.648 34.0007 183.047 34.9395C182.454 35.8874 181.625 36.6029 180.559 37.0859C179.492 37.5781 178.253 37.8242 176.84 37.8242C176.22 37.8242 175.564 37.7422 174.871 37.5781C174.188 37.4141 173.531 37.1589 172.902 36.8125C172.283 36.4661 171.763 36.0286 171.344 35.5L173.08 33.1758C173.536 33.7044 174.064 34.1146 174.666 34.4062C175.268 34.707 175.933 34.8574 176.662 34.8574C177.373 34.8574 177.975 34.7253 178.467 34.4609C178.959 34.2057 179.337 33.8275 179.602 33.3262C179.866 32.834 179.998 32.237 179.998 31.5352V20.625L180.381 17.207ZM170.428 24.7812V24.4941C170.428 23.3639 170.564 22.3385 170.838 21.418C171.12 20.4883 171.517 19.6908 172.027 19.0254C172.547 18.36 173.176 17.8451 173.914 17.4805C174.652 17.1159 175.486 16.9336 176.416 16.9336C177.4 16.9336 178.225 17.1159 178.891 17.4805C179.556 17.8451 180.103 18.3646 180.531 19.0391C180.96 19.7044 181.292 20.4928 181.529 21.4043C181.775 22.3066 181.967 23.2956 182.104 24.3711V25C181.967 26.0299 181.762 26.987 181.488 27.8711C181.215 28.7552 180.855 29.5299 180.408 30.1953C179.962 30.8516 179.406 31.362 178.74 31.7266C178.084 32.0911 177.3 32.2734 176.389 32.2734C175.477 32.2734 174.652 32.0866 173.914 31.7129C173.185 31.3392 172.561 30.8151 172.041 30.1406C171.521 29.4661 171.12 28.6732 170.838 27.7617C170.564 26.8503 170.428 25.8568 170.428 24.7812ZM174.365 24.4941V24.7812C174.365 25.3919 174.424 25.9616 174.543 26.4902C174.661 27.0189 174.844 27.4883 175.09 27.8984C175.345 28.2995 175.66 28.6139 176.033 28.8418C176.416 29.0605 176.867 29.1699 177.387 29.1699C178.107 29.1699 178.695 29.0195 179.15 28.7188C179.606 28.4089 179.948 27.985 180.176 27.4473C180.404 26.9095 180.536 26.2897 180.572 25.5879V23.7969C180.554 23.2227 180.477 22.7077 180.34 22.252C180.203 21.7871 180.012 21.3906 179.766 21.0625C179.52 20.7344 179.201 20.4792 178.809 20.2969C178.417 20.1146 177.952 20.0234 177.414 20.0234C176.895 20.0234 176.443 20.1419 176.061 20.3789C175.687 20.6068 175.372 20.9212 175.117 21.3223C174.871 21.7233 174.684 22.1973 174.557 22.7441C174.429 23.2819 174.365 23.8652 174.365 24.4941ZM100.141 59.791C100.141 59.4355 100.086 59.1165 99.9766 58.834C99.8763 58.5423 99.6849 58.278 99.4023 58.041C99.1198 57.7949 98.7233 57.5534 98.2129 57.3164C97.7025 57.0794 97.0417 56.8333 96.2305 56.5781C95.3281 56.2865 94.4714 55.9583 93.6602 55.5938C92.8581 55.2292 92.1471 54.8053 91.5273 54.3223C90.9167 53.8301 90.4336 53.2604 90.0781 52.6133C89.7318 51.9661 89.5586 51.2142 89.5586 50.3574C89.5586 49.528 89.7409 48.776 90.1055 48.1016C90.4701 47.418 90.9805 46.8346 91.6367 46.3516C92.293 45.8594 93.0677 45.4811 93.9609 45.2168C94.8633 44.9525 95.8522 44.8203 96.9277 44.8203C98.3952 44.8203 99.6758 45.0846 100.77 45.6133C101.863 46.1419 102.711 46.8665 103.312 47.7871C103.923 48.7077 104.229 49.7604 104.229 50.9453H100.154C100.154 50.362 100.031 49.8516 99.7852 49.4141C99.5482 48.9674 99.1836 48.6165 98.6914 48.3613C98.2083 48.1061 97.5977 47.9785 96.8594 47.9785C96.1484 47.9785 95.556 48.0879 95.082 48.3066C94.6081 48.5163 94.2526 48.8034 94.0156 49.168C93.7786 49.5234 93.6602 49.9245 93.6602 50.3711C93.6602 50.7083 93.7422 51.0137 93.9062 51.2871C94.0794 51.5605 94.3346 51.8158 94.6719 52.0527C95.0091 52.2897 95.4238 52.513 95.916 52.7227C96.4082 52.9323 96.9779 53.1374 97.625 53.3379C98.7096 53.666 99.6621 54.0352 100.482 54.4453C101.312 54.8555 102.005 55.3158 102.561 55.8262C103.117 56.3366 103.536 56.9154 103.818 57.5625C104.101 58.2096 104.242 58.9434 104.242 59.7637C104.242 60.6296 104.074 61.4043 103.736 62.0879C103.399 62.7715 102.911 63.3503 102.273 63.8242C101.635 64.2982 100.874 64.6582 99.9902 64.9043C99.1061 65.1504 98.1172 65.2734 97.0234 65.2734C96.0391 65.2734 95.0684 65.1458 94.1113 64.8906C93.1543 64.6263 92.2839 64.2298 91.5 63.7012C90.7253 63.1725 90.1055 62.498 89.6406 61.6777C89.1758 60.8574 88.9434 59.8867 88.9434 58.7656H93.0586C93.0586 59.3854 93.1543 59.9095 93.3457 60.3379C93.5371 60.7663 93.806 61.1126 94.1523 61.377C94.5078 61.6413 94.9271 61.8327 95.4102 61.9512C95.9023 62.0697 96.4401 62.1289 97.0234 62.1289C97.7344 62.1289 98.3177 62.0286 98.7734 61.8281C99.2383 61.6276 99.5801 61.3496 99.7988 60.9941C100.027 60.6387 100.141 60.2376 100.141 59.791ZM106.156 57.7539V57.4668C106.156 56.3822 106.311 55.3841 106.621 54.4727C106.931 53.5521 107.382 52.7546 107.975 52.0801C108.567 51.4056 109.296 50.8815 110.162 50.5078C111.028 50.125 112.021 49.9336 113.143 49.9336C114.264 49.9336 115.262 50.125 116.137 50.5078C117.012 50.8815 117.745 51.4056 118.338 52.0801C118.939 52.7546 119.395 53.5521 119.705 54.4727C120.015 55.3841 120.17 56.3822 120.17 57.4668V57.7539C120.17 58.8294 120.015 59.8275 119.705 60.748C119.395 61.6595 118.939 62.457 118.338 63.1406C117.745 63.8151 117.016 64.3392 116.15 64.7129C115.285 65.0866 114.291 65.2734 113.17 65.2734C112.049 65.2734 111.051 65.0866 110.176 64.7129C109.31 64.3392 108.576 63.8151 107.975 63.1406C107.382 62.457 106.931 61.6595 106.621 60.748C106.311 59.8275 106.156 58.8294 106.156 57.7539ZM110.094 57.4668V57.7539C110.094 58.3737 110.148 58.9525 110.258 59.4902C110.367 60.028 110.54 60.502 110.777 60.9121C111.023 61.3132 111.342 61.6276 111.734 61.8555C112.126 62.0833 112.605 62.1973 113.17 62.1973C113.717 62.1973 114.186 62.0833 114.578 61.8555C114.97 61.6276 115.285 61.3132 115.521 60.9121C115.758 60.502 115.932 60.028 116.041 59.4902C116.16 58.9525 116.219 58.3737 116.219 57.7539V57.4668C116.219 56.8652 116.16 56.3001 116.041 55.7715C115.932 55.2337 115.754 54.7598 115.508 54.3496C115.271 53.9303 114.956 53.6022 114.564 53.3652C114.173 53.1283 113.699 53.0098 113.143 53.0098C112.587 53.0098 112.113 53.1283 111.721 53.3652C111.338 53.6022 111.023 53.9303 110.777 54.3496C110.54 54.7598 110.367 55.2337 110.258 55.7715C110.148 56.3001 110.094 56.8652 110.094 57.4668ZM121.961 57.7539V57.4668C121.961 56.3822 122.116 55.3841 122.426 54.4727C122.736 53.5521 123.187 52.7546 123.779 52.0801C124.372 51.4056 125.101 50.8815 125.967 50.5078C126.833 50.125 127.826 49.9336 128.947 49.9336C130.068 49.9336 131.066 50.125 131.941 50.5078C132.816 50.8815 133.55 51.4056 134.143 52.0801C134.744 52.7546 135.2 53.5521 135.51 54.4727C135.82 55.3841 135.975 56.3822 135.975 57.4668V57.7539C135.975 58.8294 135.82 59.8275 135.51 60.748C135.2 61.6595 134.744 62.457 134.143 63.1406C133.55 63.8151 132.821 64.3392 131.955 64.7129C131.089 65.0866 130.096 65.2734 128.975 65.2734C127.854 65.2734 126.855 65.0866 125.98 64.7129C125.115 64.3392 124.381 63.8151 123.779 63.1406C123.187 62.457 122.736 61.6595 122.426 60.748C122.116 59.8275 121.961 58.8294 121.961 57.7539ZM125.898 57.4668V57.7539C125.898 58.3737 125.953 58.9525 126.062 59.4902C126.172 60.028 126.345 60.502 126.582 60.9121C126.828 61.3132 127.147 61.6276 127.539 61.8555C127.931 62.0833 128.41 62.1973 128.975 62.1973C129.521 62.1973 129.991 62.0833 130.383 61.8555C130.775 61.6276 131.089 61.3132 131.326 60.9121C131.563 60.502 131.736 60.028 131.846 59.4902C131.964 58.9525 132.023 58.3737 132.023 57.7539V57.4668C132.023 56.8652 131.964 56.3001 131.846 55.7715C131.736 55.2337 131.559 54.7598 131.312 54.3496C131.076 53.9303 130.761 53.6022 130.369 53.3652C129.977 53.1283 129.503 53.0098 128.947 53.0098C128.391 53.0098 127.917 53.1283 127.525 53.3652C127.143 53.6022 126.828 53.9303 126.582 54.3496C126.345 54.7598 126.172 55.2337 126.062 55.7715C125.953 56.3001 125.898 56.8652 125.898 57.4668ZM142.25 53.3652V65H138.312V50.207H142.004L142.25 53.3652ZM141.676 57.084H140.609C140.609 55.9902 140.751 55.0059 141.033 54.1309C141.316 53.2467 141.712 52.4948 142.223 51.875C142.733 51.2461 143.339 50.7676 144.041 50.4395C144.752 50.1022 145.545 49.9336 146.42 49.9336C147.113 49.9336 147.746 50.0339 148.32 50.2344C148.895 50.4349 149.387 50.7539 149.797 51.1914C150.216 51.6289 150.535 52.2077 150.754 52.9277C150.982 53.6478 151.096 54.5273 151.096 55.5664V65H147.131V55.5527C147.131 54.8965 147.04 54.3861 146.857 54.0215C146.675 53.6569 146.406 53.4017 146.051 53.2559C145.704 53.1009 145.276 53.0234 144.766 53.0234C144.237 53.0234 143.777 53.1283 143.385 53.3379C143.002 53.5475 142.683 53.8392 142.428 54.2129C142.182 54.5775 141.995 55.0059 141.867 55.498C141.74 55.9902 141.676 56.5189 141.676 57.084Z" fill="#90B999"/>
<rect x="1" y="1" width="199" height="76" rx="9" stroke="#90B999" stroke-width="2"/>
<path d="M48.7778 18H26.2222C25.3676 18 24.5481 18.3085 23.9438 18.8578C23.3395 19.407 23 20.1519 23 20.9286V56.0714C23 56.8481 23.3395 57.593 23.9438 58.1422C24.5481 58.6915 25.3676 59 26.2222 59H48.7778C49.6324 59 50.4519 58.6915 51.0562 58.1422C51.6605 57.593 52 56.8481 52 56.0714V20.9286C52 20.1519 51.6605 19.407 51.0562 18.8578C50.4519 18.3085 49.6324 18 48.7778 18ZM39.1111 56.0714H35.8889V53.1429H39.1111V56.0714ZM26.2222 50.2143V20.9286H48.7778V50.2143H26.2222Z" fill="#90B999"/>
</svg>
