<svg width="443" height="444" viewBox="0 0 443 444" fill="none" xmlns="http://www.w3.org/2000/svg">
<path fill-rule="evenodd" clip-rule="evenodd" d="M186.857 2.08632C45.1822 27.1702 -37.1356 173.7 16.5267 305.282C39.8759 362.54 87.7653 409.373 144.436 430.368C202.307 451.81 267.736 447.8 322.654 419.447C417.513 370.47 463.719 262.705 434.117 159.488C412.21 83.1088 350.083 24.1725 271.334 5.06836C249.683 -0.183386 207.989 -1.65684 186.857 2.08632ZM243.026 117.344V132.956L177.625 134.067C135.737 134.779 109.767 136.001 105.39 137.467C87.9781 143.296 80.0109 152.96 80.0109 168.249C80.0109 176.266 79.4076 176.214 99.5336 169.939C108.098 167.27 120.445 166.409 160.542 165.683L210.813 164.773V180.579V196.383L170.304 196.417C127.332 196.454 110.384 198.616 96.1347 205.884C70.5833 218.915 76.7291 249.541 106.755 258.813C118.098 262.314 124.89 262.738 169.759 262.738H220.052L224.487 250.579C227.88 241.274 231.722 235.636 240.855 226.563C251.249 216.235 254.925 213.981 269.382 209.075C285.929 203.46 286.14 203.44 344.056 202.648L402.137 201.852V217.525V233.2L345.033 233.819L287.928 234.44L276.683 239.707C264.644 245.347 253.764 255.56 253.764 261.221C253.764 264.467 257.514 264.689 312.332 264.689H370.9V279.299V293.909L308.915 294.424L246.931 294.939L246.407 341.131L245.884 387.322L232.084 387.97C224.491 388.325 217.918 388.251 217.475 387.802C217.033 387.355 216.67 366.592 216.67 341.66V296.331L164.447 295.417C108.743 294.443 99.561 293.134 80.3876 283.421C75.2629 280.823 67.4284 274.752 62.9811 269.927C50.4085 256.294 48.7744 248.06 48.7744 198.335C48.7744 148.61 50.4085 140.376 62.9811 126.743C72.5571 116.356 85.1707 109.555 101.956 105.726C120.525 101.491 123.595 101.337 185.434 101.542L243.026 101.731V117.344Z" fill="url(#paint0_linear_864_617)"/>
<defs>
<linearGradient id="paint0_linear_864_617" x1="221.5" y1="0" x2="221.5" y2="444" gradientUnits="userSpaceOnUse">
<stop stop-color="#F00068"/>
<stop offset="1" stop-color="#1D6ACF"/>
</linearGradient>
</defs>
</svg>
