<svg width="80" height="56" viewBox="0 0 80 56" fill="none" xmlns="http://www.w3.org/2000/svg">
<path fill-rule="evenodd" clip-rule="evenodd" d="M70.8918 3.44386C66.1664 5.33583 59.0701 8.16902 55.1223 9.74017C46.8272 13.0411 46.5306 13.1681 46.5306 13.4158C46.5306 13.518 47.338 14.2413 48.325 15.0234C49.3121 15.8055 50.7575 17.0302 51.5374 17.745L52.9552 19.0446L53.2262 21.3219C53.5098 23.7053 54.0066 25.7173 54.3662 25.9392C54.4826 26.011 55.611 25.3802 56.8737 24.5376C58.1363 23.6949 59.2711 23.0055 59.3951 23.0055C59.5193 23.0055 60.8637 23.7869 62.3828 24.742C63.9017 25.6971 65.2877 26.4782 65.4625 26.4777C65.8806 26.4766 69.1955 21.6627 71.957 17.0465C74.3679 13.0168 77.4672 6.90351 79.0287 3.09829C80.0747 0.549459 80.205 -0.0064558 79.7554 5.62756e-05C79.606 0.00222697 75.6173 1.55189 70.8918 3.44386ZM77.4172 1.95976C74.5715 4.23291 53.9803 18.23 53.4818 18.23C53.3835 18.23 52.4386 17.4728 51.3819 16.5477C50.3253 15.6225 49.0848 14.568 48.6252 14.2044L47.7897 13.5432L51.9997 11.8768C54.3153 10.9603 61.0549 8.25802 66.9766 5.87156C72.8984 3.48532 77.7924 1.53126 77.8522 1.52909C77.912 1.52692 77.7163 1.72076 77.4172 1.95976ZM77.4133 4.78035C74.9288 10.4148 71.1357 17.1941 67.4095 22.6599C65.5454 25.3941 65.3727 25.5825 64.9403 25.3557C63.8549 24.7868 60.8493 22.8121 58.9676 21.4317L56.9404 19.9446L57.4451 19.5612C60.9748 16.8813 72.1053 8.19854 73.5635 6.98773C74.6143 6.11511 76.0825 4.79403 76.8262 4.05187C77.5699 3.30993 78.2065 2.71603 78.2409 2.73231C78.2753 2.74859 77.9029 3.67026 77.4133 4.78035ZM72.8494 6.50822C72.8494 6.62761 72.7457 6.72529 72.6191 6.72529C72.4925 6.72529 72.4492 6.62761 72.5232 6.50822C72.5971 6.38884 72.7007 6.29116 72.7535 6.29116C72.8064 6.29116 72.8494 6.38884 72.8494 6.50822ZM69.5178 9.15386C69.4484 9.32687 69.3969 9.27542 69.3864 9.02254C69.3771 8.79375 69.4284 8.66567 69.5006 8.73774C69.5728 8.80981 69.5807 8.99714 69.5178 9.15386ZM68.4992 9.80768C68.4992 10.1582 68.4348 10.221 68.2571 10.0436C68.124 9.91078 68.0809 9.69589 68.1612 9.56608C68.3863 9.20271 68.4992 9.28345 68.4992 9.80768ZM67.3732 10.5603C67.3344 10.7593 67.1883 10.9603 67.0482 11.0068C66.8861 11.0606 66.8359 10.9291 66.9103 10.6449C67.0493 10.1144 67.4749 10.0365 67.3732 10.5603ZM66.1066 11.488C66.1066 11.7198 66.0087 11.9697 65.8891 12.0435C65.7657 12.1197 65.6716 11.9371 65.6716 11.6222C65.6716 11.3167 65.7694 11.0667 65.8891 11.0667C66.0087 11.0667 66.1066 11.2562 66.1066 11.488ZM64.8015 12.4776C64.8015 12.7761 64.7036 13.0203 64.584 13.0203C64.4644 13.0203 64.3665 12.7761 64.3665 12.4776C64.3665 12.1792 64.4644 11.935 64.584 11.935C64.7036 11.935 64.8015 12.1792 64.8015 12.4776ZM63.4964 13.0025C63.4964 13.1121 63.551 13.3437 63.6176 13.5172C63.6844 13.6906 63.5865 13.891 63.4001 13.9624C63.1404 14.0618 63.0614 13.9418 63.0614 13.4477C63.0614 13.0932 63.1593 12.8032 63.2789 12.8032C63.3986 12.8032 63.4964 12.8929 63.4964 13.0025ZM62.3077 14.13C62.4008 14.4226 62.3275 14.7139 62.105 14.9362C61.7851 15.2552 61.7564 15.2175 61.7564 14.4777C61.7564 13.5992 62.075 13.398 62.3077 14.13ZM61.0007 15.6134C60.9768 15.786 60.8432 15.9651 60.7043 16.0113C60.4265 16.1038 60.3667 15.4463 60.5981 14.8448C60.734 14.4909 60.7558 14.4935 60.8946 14.8812C60.977 15.1113 61.0246 15.4408 61.0007 15.6134ZM59.7731 15.8965C59.6967 16.8149 59.5706 17.0428 59.3398 16.6794C58.9385 16.0473 59.1353 15.3597 59.7607 15.2081C59.7996 15.1988 59.8053 15.5086 59.7731 15.8965ZM58.3962 17.778C58.2174 18.0185 58.1522 17.9311 58.0978 17.3775C57.9925 16.3082 58.3155 15.7562 58.4878 16.7105C58.5642 17.1327 58.5235 17.607 58.3962 17.778ZM57.2241 17.7776C57.2689 18.2452 57.2302 18.5812 57.1382 18.5245C56.9709 18.4214 56.895 16.9275 57.057 16.9275C57.1042 16.9275 57.1795 17.31 57.2241 17.7776ZM56.2546 18.9354C56.2026 19.2042 56.1602 18.9843 56.1602 18.447C56.1602 17.9098 56.2026 17.6899 56.2546 17.9586C56.3064 18.2274 56.3064 18.6667 56.2546 18.9354ZM55.5146 21.1018C55.4468 21.4408 55.3574 21.6844 55.3161 21.6432C55.1414 21.4688 54.8306 18.5671 54.9637 18.3543C55.1808 18.0079 55.6578 20.3872 55.5146 21.1018ZM54.6685 23.1173C54.7394 23.3992 54.7133 23.6821 54.61 23.7457C54.3703 23.8935 53.9175 21.1834 53.9534 19.8161C53.9764 18.943 54.0264 19.0852 54.2603 20.6885C54.4138 21.7421 54.5976 22.8351 54.6685 23.1173ZM58.6931 22.3543C58.6934 22.4504 55.8335 24.3103 55.4163 24.4852C55.3258 24.5232 55.5497 23.6682 55.9136 22.5855L56.5752 20.6169L57.6339 21.4313C58.2161 21.8793 58.6929 22.2946 58.6931 22.3543ZM51.2614 28.9831C50.1573 30.4679 50.0016 30.8953 50.608 30.7787C51.0696 30.6902 53.1118 28.0471 52.9371 27.7647C52.6742 27.3401 52.2585 27.6425 51.2614 28.9831ZM33.0844 28.4387C31.9673 29.1186 31.0929 31.4712 31.9573 31.4712C32.0845 31.4712 32.2405 31.3003 32.3042 31.0913C32.6244 30.0411 33.2119 29.2141 33.8549 28.908C34.6161 28.5457 34.8163 27.9976 34.1868 27.9989C33.9773 27.9994 33.4814 28.1973 33.0844 28.4387ZM36.09 28.3109C36.09 28.483 36.1981 28.6903 36.3301 28.7717C36.7499 29.0307 37.3853 30.6813 37.3903 31.5254C37.3938 32.1096 37.489 32.3395 37.7281 32.3395C37.9114 32.3395 38.1209 32.1845 38.1936 31.9952C38.4163 31.416 37.8299 29.3337 37.2509 28.6467C36.6705 27.9586 36.09 27.7906 36.09 28.3109ZM47.8126 32.8348C47.5009 33.0996 47.0676 33.42 46.8501 33.5468C46.4205 33.7969 46.5732 34.2931 47.0795 34.2931C47.498 34.2931 48.9232 33.0171 48.9232 32.6425C48.9232 32.2027 48.4629 32.2824 47.8126 32.8348ZM32.1111 33.5609C31.7709 33.9004 33.844 36.4638 34.4587 36.4638C35.0573 36.4638 34.9261 36.1158 33.909 35.0051C33.3141 34.3554 32.8273 33.7341 32.8273 33.6243C32.8273 33.3988 32.3186 33.3536 32.1111 33.5609ZM37.0357 33.8047C36.6614 34.9145 36.0141 36.0296 35.7444 36.0296C35.5756 36.0296 35.4375 36.144 35.4375 36.2838C35.4375 36.4236 35.2735 36.719 35.0729 36.9402C34.7956 37.2459 34.7688 37.4028 34.9611 37.5947C35.1536 37.7868 35.3322 37.7388 35.7065 37.3952C36.1109 37.024 36.4752 36.9446 37.7492 36.9498C39.4142 36.957 39.7877 36.8423 39.7877 36.3251C39.7877 36.0481 39.5604 36.0194 38.3739 36.1462C37.5963 36.2293 36.96 36.2478 36.96 36.1872C36.96 36.1267 37.1536 35.6513 37.3903 35.1307C37.9093 33.9892 37.9447 33.4248 37.4971 33.4248C37.3137 33.4248 37.1062 33.5956 37.0357 33.8047ZM43.4502 35.0517C43.3908 35.111 42.7143 35.2862 41.9467 35.4412C40.9007 35.6526 40.532 35.8228 40.4744 36.1212C40.4052 36.4794 40.5022 36.5037 41.4412 36.3633C43.0443 36.1234 44.0157 35.7433 44.0966 35.3242C44.1636 34.9768 43.7146 34.7878 43.4502 35.0517ZM30.6522 39.0625C30.1139 39.2876 28.9639 39.6432 28.0965 39.8527C26.816 40.1618 26.5195 40.312 26.5195 40.6519C26.5195 41.0146 26.6237 41.0511 27.2984 40.9248C28.9924 40.6076 32.2836 39.3801 32.2836 39.0656C32.2836 38.6012 31.758 38.6004 30.6522 39.0625ZM22.6587 41.9133C21.6029 42.5274 21.1478 43.1957 21.7886 43.191C22.2993 43.1871 24.3444 41.8825 24.3444 41.5606C24.3444 41.0858 23.9329 41.172 22.6587 41.9133ZM16.335 43.751C16.3915 44.0256 16.8081 44.1068 18.4716 44.1669C19.8469 44.2168 20.9699 44.394 21.8297 44.6966C22.62 44.9748 23.1994 45.0736 23.3225 44.9507C23.6777 44.5963 23.2714 44.3002 21.8108 43.85C19.9515 43.2769 16.2232 43.2094 16.335 43.751ZM12.2447 44.026C10.6588 44.573 9.89902 45.1027 10.1931 45.4563C10.3808 45.6823 10.6236 45.6378 11.4316 45.2295C11.9843 44.9503 12.7667 44.6599 13.1702 44.5843C13.6959 44.486 13.9038 44.3308 13.9038 44.0371C13.9038 43.5354 13.6711 43.5339 12.2447 44.026ZM18.8137 45.3093C18.221 46.2123 18.0068 47.3316 18.4002 47.4696C18.6099 47.5434 19.9942 45.0749 19.9942 44.6271C19.9942 44.1975 19.2677 44.6173 18.8137 45.3093ZM24.4457 45.5926C24.3677 45.7185 24.7925 46.3372 25.3895 46.9673C25.9868 47.5972 26.7316 48.6177 27.0448 49.2346C27.6097 50.3469 27.8853 50.5681 28.158 50.1276C28.4014 49.7343 27.1836 47.5749 26.0808 46.445C25.0067 45.3447 24.6987 45.1841 24.4457 45.5926ZM5.7265 47.0669C4.09864 48.1254 3.51375 48.7568 3.85046 49.0929C4.03382 49.2758 4.3353 49.1441 5.03068 48.5762C5.54444 48.1568 6.38056 47.6022 6.8891 47.3439C7.83484 46.8633 8.13196 46.2319 7.41221 46.2319C7.19144 46.2319 6.43298 46.6076 5.7265 47.0669ZM17.6015 49.6998C17.6015 50.1921 17.7588 50.9073 17.9513 51.2896C18.3796 52.1407 20.1997 54.0464 20.5841 54.0464C21.1067 54.0464 20.8673 53.4861 19.9763 52.6252C18.8885 51.5742 18.5018 50.8683 18.4183 49.7825C18.3733 49.1979 18.2419 48.9279 17.9778 48.8773C17.6703 48.818 17.6015 48.9683 17.6015 49.6998ZM1.42304 51.2151C0.223025 53.4156 -0.396012 56 0.277186 56C0.45598 56 0.726347 55.4258 0.967349 54.5348C1.18551 53.729 1.68949 52.4453 2.08732 51.6821C2.48514 50.9188 2.81076 50.2596 2.81076 50.2168C2.81076 50.1741 2.63066 50.1391 2.41032 50.1391C2.15409 50.1391 1.79846 50.5268 1.42304 51.2151ZM26.6633 52.5772C26.1517 53.7318 25.0248 54.9146 24.4364 54.9146C24.2661 54.9146 24.1269 55.11 24.1269 55.3488C24.1269 56.0931 25.0143 55.7897 26.2661 54.6173C27.1344 53.8041 27.6071 52.9608 27.6071 52.2249C27.6071 51.2431 27.1847 51.401 26.6633 52.5772Z" fill="white"/>
</svg>
