<svg width="33" height="19" viewBox="0 0 33 19" fill="none" xmlns="http://www.w3.org/2000/svg">
<path d="M0.726381 18.2734C1.19162 18.7387 1.82254 19 2.48039 19C3.13825 19 3.76916 18.7387 4.23441 18.2734L16.515 5.98988L28.7956 18.2734C29.2635 18.7255 29.8901 18.9756 30.5406 18.9699C31.1911 18.9643 31.8134 18.7033 32.2734 18.2432C32.7333 17.7831 32.9943 17.1607 32.9999 16.5101C33.0056 15.8594 32.7555 15.2326 32.3036 14.7646L18.269 0.726558C17.8037 0.261343 17.1728 0 16.515 0C15.8571 0 15.2262 0.261343 14.761 0.726558L0.726381 14.7646C0.26128 15.2299 0 15.861 0 16.519C0 17.177 0.26128 17.8081 0.726381 18.2734Z" fill="white"/>
</svg>
