<svg width="539" height="497" viewBox="0 0 539 497" fill="none" xmlns="http://www.w3.org/2000/svg">
<path d="M197.085 392.895C226.303 396.652 255.773 397.214 285.175 398.341C298.655 398.858 311.871 398.235 324.316 403.071C335.969 407.6 345.273 416.689 357.297 420.585C366.628 423.608 376.695 423.501 386.441 422.392C427.666 417.702 466.473 394.745 490.435 360.873C512.381 329.852 521.544 290.159 515.796 252.63C512.309 229.868 501.833 208.64 499.323 185.704C496.669 161.458 505.929 140.319 511.781 117.262C515.861 101.183 517.644 84.5243 517.059 67.9461C516.721 58.3949 515.52 48.6052 511.002 40.1845C498.728 17.3097 467.78 12.995 441.949 15.5724C409.975 18.764 378.075 28.6279 349.945 44.1607C327.735 56.4253 305.735 74.2774 280.245 79.1173C251.502 84.5749 229.27 64.8769 203.402 55.8928C145.201 35.6782 74.9312 75.387 49.2726 128.201C17.5978 193.399 21.2033 300.055 80.4902 348.44C112.799 374.808 154.431 387.272 195.776 392.726C196.212 392.784 196.648 392.839 197.085 392.895Z" fill="#F4F9FF"/>
<path d="M100.893 454.052L102.407 457.053L143.174 425.136L124.883 396.272L84.3401 431.282L100.893 454.052Z" fill="#F97A5D"/>
<path d="M141.441 424.482L125.354 397.404L124.35 397.864L138.692 423.192L141.441 424.482Z" fill="#D5D3D3"/>
<path d="M101.714 454.64L141.442 424.482C141.442 424.482 141.266 423.848 140.267 423.467C139.268 423.086 138.692 423.193 138.692 423.193L96.8959 452.528C96.8959 452.528 99.3316 453.064 100.22 453.712C101.109 454.36 101.714 454.64 101.714 454.64Z" fill="#F4F3F3"/>
<path d="M95.8792 453.703L139.452 423.85L124.87 396.985L122.528 393.268L78.99 426.293C78.99 426.293 83.6985 433.143 86.5251 437.278C89.3518 441.414 94.9202 451.181 95.2241 451.806C95.5281 452.432 95.8792 453.703 95.8792 453.703Z" fill="#F97A5D"/>
<path d="M518.244 361.853L521.028 362.313L505.671 402.988L477.953 395.568L495.846 354.297L518.244 361.853Z" fill="#DF416B"/>
<path d="M504.714 401.764L478.979 395.661L479.097 394.741L502.991 399.884L504.714 401.764Z" fill="#D5D3D3"/>
<path d="M518.922 362.362L504.714 401.763C504.714 401.763 504.161 401.782 503.605 401.077C503.049 400.372 502.991 399.884 502.991 399.884L516.02 359.031C516.02 359.031 517.06 360.848 517.803 361.398C518.546 361.948 518.922 362.362 518.922 362.362Z" fill="#F4F3F3"/>
<path d="M516.707 357.921L503.708 400.327L478.522 395.377L474.955 394.432L490.506 351.259C490.506 351.259 497.175 353.314 501.198 354.543C505.221 355.772 514.445 357.784 515.023 357.871C515.602 357.959 516.707 357.921 516.707 357.921Z" fill="#DF416B"/>
<path d="M71.7656 111.636C71.7656 111.636 68.7131 112.495 68.967 115.766C69.2209 119.036 71.7249 129.339 79.128 131.566C79.4323 131.657 75.2756 112.843 75.2756 112.843L71.7656 111.636Z" fill="#F97A5D"/>
<path d="M88.5733 289.716C88.5733 289.716 76.283 285.623 74.0567 288.268C71.3369 291.5 59.8831 319.528 64.6181 328.357C66.5568 331.973 69.5374 326.871 73.8364 315.431C78.1354 303.991 89.4365 303.217 89.4365 303.217L88.5733 289.716Z" fill="#6E5395"/>
<path d="M153.631 294.295L140.995 299.321C140.995 299.321 145.185 340.542 151.053 339.081C155.504 337.972 154.738 334.74 152.891 322.659C151.045 310.58 161.585 305.106 161.585 305.106L153.631 294.295Z" fill="#6E5395"/>
<path d="M122.463 219.273C122.463 219.273 163.716 208.859 168.525 205.337C168.525 205.337 198.589 279.301 189.936 293.317C181.321 306.771 154.465 310.043 154.465 310.043L149.813 292.545L164.208 277.482L154.619 247.566L153.398 248.287L122.463 219.273Z" fill="#1D262D"/>
<path d="M88.9173 288.672C88.9173 288.672 80.1817 296.089 86.7335 305.206C86.7335 305.206 130.026 321.145 144.857 309.436C153.168 302.866 154.746 272.768 154.481 247.541L168.525 205.337C168.525 205.337 156.908 209.711 152.966 210.959C145.431 213.343 122.463 219.273 122.463 219.273C122.463 219.273 130.499 284.678 126.781 287.518C123.063 290.358 88.9173 288.672 88.9173 288.672Z" fill="#2C373F"/>
<path d="M107.063 138.788C107.063 138.788 124.542 109.038 126.815 101.233C129.057 93.6076 130.739 73.1928 138.406 60.9795L129.637 50.8184C129.637 50.8184 132.273 48.3996 135.841 52.5653C135.841 52.5653 137.914 35.2626 139.808 35.0133C141.705 34.7633 140.844 47.4271 140.844 47.4271C140.844 47.4271 144.085 35.0233 146.279 34.6836C148.472 34.3431 145.552 47.7898 145.552 47.7898C145.552 47.7898 150.015 36.172 151.585 37.0071C153.153 37.8427 148.557 46.8735 148.557 46.8735C148.557 46.8735 154.529 39.4106 155.916 40.7277C157.304 42.046 150.24 49.1609 150.24 49.1609C150.24 49.1609 151.446 56.3476 146.653 61.0924C146.653 61.0924 145.638 92.6857 139.679 106.387L117.257 150.506L107.063 138.788Z" fill="#FFC5B1"/>
<path d="M98.0233 179.594C98.0233 179.594 65.8736 193.911 60.2602 198.939C54.2726 204.759 41.1959 222.293 28.6467 228.659L31.334 241.281C31.334 241.281 26.9524 241.44 26.1729 236.525C26.1729 236.525 16.8074 248.944 15.2872 248.397C13.6807 247.945 19.3454 237.924 19.3454 237.924C19.3454 237.924 11.8652 246.89 9.79406 246.17C7.76828 245.441 15.2131 235.336 15.2131 235.336C15.2131 235.336 7.20144 243.58 6.07526 242.326C5.09428 241.061 12.2288 234.356 12.2288 234.356C12.2288 234.356 3.49988 237.522 2.61435 235.814C1.971 234.182 12.1691 231.516 12.1691 231.516C12.1691 231.516 15.3161 224.944 21.9688 223.821C21.9688 223.821 40.0946 196.66 52.6177 189.183L89.9496 162.09L98.0233 179.594Z" fill="#FFC5B1"/>
<path d="M87.4969 147.681L79.5276 162.771L86.5813 174.644C86.5813 174.644 106.828 198.445 110.706 204.591C116.735 214.15 118.827 233.388 118.827 233.388C118.827 233.388 134.702 221.955 152.16 215.7C169.616 209.445 176.469 204.997 176.469 204.997C176.469 204.997 162.74 185.998 149.408 171.712C142.12 163.674 133.975 150.597 128.455 146.635C113.322 135.777 108.049 132.551 108.049 132.551L93.5827 140.938L87.4969 147.681Z" fill="white"/>
<path d="M124.554 146.033L134.176 134.422C134.176 134.422 133.371 125.546 115.645 120.455L101.969 136.662L124.554 146.033Z" fill="white"/>
<path d="M81.9712 161.931C76.4135 161.151 62.4071 176.71 61.0434 177.111C61.0434 177.111 64.5572 188.55 77.026 193.345C77.026 193.345 119.253 168.334 81.9712 161.931Z" fill="white"/>
<path d="M101.17 149.297C101.17 149.297 94.0537 138.849 95.3675 136.112C95.6988 135.422 97.4271 134.712 98.1278 133.796C101.9 128.864 97.8841 111.434 93.4242 106.518C89.9155 102.652 91.8846 103.092 80.9181 105.372C69.9516 107.652 71.9205 118.792 74.3235 125.031C76.5946 130.927 80.3218 134.401 84.1707 136.093L85.5007 150.54L101.17 149.297Z" fill="#FFC5B1"/>
<path d="M80.4766 153.287C80.1932 148.222 85.5469 143.806 92.4364 143.419C99.3286 143.032 105.142 146.823 105.43 151.888C105.713 156.951 97.3355 161.537 93.465 161.755C89.5949 161.971 80.7596 158.35 80.4766 153.287Z" fill="#FFC5B1"/>
<path d="M74.3235 125.031C74.3235 125.031 71.2768 123.791 70.2201 125.743C69.1634 127.695 75.2007 129.771 77.9782 128.99L74.3235 125.031Z" fill="#FFC5B1"/>
<path d="M75.2234 127.463C75.9196 123.52 72.8915 119.369 74.3423 115.793C76.2475 116.465 78.2892 114.521 78.1143 112.199C78.0451 111.287 77.6999 110.406 77.6002 109.495C77.5006 108.584 77.7549 107.526 78.4735 107.279C78.8141 107.162 79.1888 107.251 79.5495 107.334C82.483 108.018 87.0419 110.537 89.981 110.467C92.779 110.401 94.9831 110.685 95.7704 107.556C96.455 104.832 94.8563 101.882 93.2664 99.5213C92.3547 98.1677 90.1133 95.5646 88.9584 96.0969C87.1745 96.9293 86.2745 98.3498 85.3498 100.56C84.3977 98.7236 82.234 98.222 80.6251 98.8957C79.0163 99.5693 77.0258 100.382 75.9092 101.881C74.7927 103.38 73.5932 102.922 71.9935 103.622C70.5013 104.276 68.4392 104.448 68.0645 106.301C67.6169 108.511 69.6308 109.79 70.2872 112.03C70.1263 111.48 69.7266 114.324 69.7429 114.866C69.792 116.493 70.823 117.914 71.4268 119.354C72.7118 122.422 72.9232 125.14 75.2234 127.463Z" fill="#F97A5D"/>
<path d="M94.4016 127.952C94.4016 127.952 93.1483 127.238 90.67 127.085C88.1918 126.932 86.1105 129.214 86.1105 129.214C86.1105 129.214 92.2427 137.234 94.4016 127.952Z" fill="white"/>
<path d="M84.2118 126.092C84.3462 126.958 83.4076 127.822 82.1174 128.021C80.8272 128.22 79.6738 127.68 79.5394 126.813C79.4049 125.946 80.3423 125.082 81.6325 124.883C82.9227 124.684 84.0774 125.225 84.2118 126.092Z" fill="#F4B19F"/>
<path d="M96.9718 122.586C97.1062 123.453 96.1676 124.317 94.8774 124.516C93.5872 124.715 92.4334 124.176 92.299 123.309C92.1657 122.443 93.1023 121.577 94.3925 121.378C95.6827 121.179 96.8374 121.72 96.9718 122.586Z" fill="#F4B19F"/>
<path d="M89.5954 126.03C89.5759 125.977 89.7686 125.85 90.1507 125.734C90.5192 125.609 91.111 125.54 91.6283 125.264C92.138 124.997 92.5556 124.224 92.0228 123.911C91.4965 123.504 90.5872 123.956 89.5899 124.337C89.3432 124.431 89.0989 124.522 88.8585 124.613C88.627 124.712 88.1763 124.823 87.8095 124.643C87.1198 124.274 86.9781 123.679 86.8082 123.257C86.4953 122.343 86.4086 121.471 86.4408 120.754C86.5143 119.305 86.9774 118.513 87.0658 118.553C87.1951 118.591 86.9575 119.423 87.0415 120.748C87.0852 121.407 87.2248 122.186 87.5415 122.987C87.6905 123.389 87.9152 123.792 88.1434 123.881C88.2387 123.919 88.3259 123.912 88.562 123.822C88.8001 123.73 89.042 123.639 89.2864 123.544C89.7851 123.362 90.2325 123.159 90.7809 123.016C91.3149 122.873 91.9969 122.9 92.4845 123.279C93.0226 123.637 93.1322 124.447 92.8646 124.89C92.6305 125.355 92.2633 125.632 91.8971 125.8C91.1465 126.087 90.5844 126.027 90.2058 126.06C89.8255 126.072 89.6147 126.088 89.5954 126.03Z" fill="#F97A5D"/>
<path d="M84.1707 136.094C84.1707 136.094 88.6768 137.672 91.6442 137.007C91.6442 137.007 88.6962 138.839 84.3239 138.073L84.1707 136.094Z" fill="#EDA091"/>
<path d="M92.0188 119.637C91.9012 119.846 91.2465 119.698 90.478 119.763C89.7087 119.804 89.0812 120.04 88.9349 119.85C88.7775 119.681 89.3734 118.986 90.4193 118.916C91.4652 118.842 92.1519 119.448 92.0188 119.637Z" fill="#2C373F"/>
<path d="M81.1786 122.396C81.0526 122.212 81.5677 121.576 82.4685 121.073C83.3807 120.556 84.3084 120.598 84.3249 120.835C84.35 121.07 83.6747 121.365 82.8741 121.82C82.0649 122.27 81.3158 122.598 81.1786 122.396Z" fill="#2C373F"/>
<path d="M78.1357 120.097C77.8632 119.7 77.976 118.442 79.9134 117.36C81.8769 116.247 83.359 117.071 83.3952 117.581C83.4487 118.087 82.7095 118.526 80.9864 119.506C79.2462 120.474 78.4294 120.531 78.1357 120.097Z" fill="#F97A5D"/>
<path d="M87.6839 116.493C87.6119 116.045 88.214 115.02 90.2985 114.879C92.4174 114.72 93.3468 116.018 93.173 116.467C93.0148 116.919 92.2099 116.995 90.349 117.137C88.4784 117.261 87.7594 116.981 87.6839 116.493Z" fill="#F97A5D"/>
<path d="M499.321 107.171C499.439 107.303 497.231 109.509 492.786 111.79C488.394 114.072 481.571 116.187 473.891 115.789C466.211 115.391 459.643 112.58 455.51 109.856C451.326 107.128 449.357 104.705 449.489 104.585C449.681 104.369 451.921 106.449 456.131 108.829C460.301 111.213 466.646 113.712 473.978 114.094C481.31 114.474 487.882 112.644 492.276 110.703C496.711 108.772 499.153 106.936 499.321 107.171Z" fill="#DF416B"/>
<path d="M452.694 100.876C452.561 101.127 450.327 100.04 446.517 98.9516C444.62 98.3824 442.307 97.8938 439.725 97.4165C437.132 96.9731 434.26 96.574 431.226 96.1763C428.191 95.781 425.289 95.3627 422.659 94.8776C420.031 94.3691 417.674 93.8098 415.745 93.1632C411.868 91.9024 409.712 90.5553 409.799 90.3885C409.917 90.1343 412.213 91.0737 416.071 92.0078C417.994 92.4932 420.324 92.9197 422.922 93.3361C425.528 93.7294 428.41 94.0982 431.45 94.4938C434.491 94.8919 437.394 95.3437 440.02 95.8806C442.64 96.453 444.987 97.0773 446.89 97.8102C450.72 99.2304 452.79 100.72 452.694 100.876Z" fill="#DF416B"/>
<path d="M399.392 53.7157C405.67 49.6208 416.092 53.038 423.433 51.5208C430.773 50.0036 439.691 43.4661 445.718 39.0098C456.599 30.9628 456.595 47.0631 469.255 42.2813C474.468 40.3122 480.731 33.1701 486.249 32.3867C493.101 31.4148 502.045 36.5927 508.819 35.1703C515.592 33.7479 520.769 36.0031 526.441 39.9691C533.17 44.676 535.711 50.2946 528.12 56.2395C521.929 61.2513 528.153 65.2521 521.628 70.2388C517.077 73.7179 505.879 69.8833 502.589 74.5742C499.263 79.3192 495.329 79.5751 490.224 78.578C473.505 74.6821 471.142 83.839 457.15 79.8879C453.634 78.8944 450.191 77.498 446.551 77.1832C431.745 75.9034 419.907 97.2824 404.897 90.3399C389.655 83.2899 383.909 63.8137 399.392 53.7157Z" fill="#DF416B"/>
<path d="M411.492 66.3489C409.179 65.8281 403.311 69.2456 400.124 75.1936C398.34 78.5227 397.046 81.9341 398.532 87.6095C399.23 90.2786 401.001 90.7116 401.33 91.9082C401.746 93.4232 399.797 98.0062 399.797 98.0062L406.303 101.093C406.927 97.9027 407.61 94.6953 410.97 93.4933C412.227 93.0442 413.559 92.7902 414.754 92.1963C417.983 90.5917 419.881 86.7731 421.354 83.6446C422.453 81.3072 417.289 67.6554 411.492 66.3489Z" fill="#FFC5B1"/>
<path d="M402.259 281.645C402.259 281.645 414.244 307.971 415.719 303.132C417.193 298.29 416.829 286.628 416.079 284.957C415.326 283.284 410.395 275.886 410.395 275.886L402.259 281.645Z" fill="#F4B19F"/>
<path d="M407.398 292.346C407.398 292.346 411.035 305.733 414.93 304.677C418.825 303.622 416.079 284.957 416.079 284.957L412.259 278.795C412.259 278.795 415.609 310.026 407.398 292.346Z" fill="#2C373F"/>
<path d="M401.683 156.924L390.498 152.435C390.498 152.435 357.36 213.981 357.497 231.06C357.634 248.137 402.667 282.489 402.667 282.489L410.334 275.863C410.334 275.863 396.449 251.136 389.083 242.49C381.72 233.832 401.683 156.924 401.683 156.924Z" fill="#F4B19F"/>
<path d="M457.205 227.056C457.205 227.056 481.863 215.371 476.91 214.337C471.957 213.306 460.371 214.717 458.775 215.616C457.177 216.516 450.252 222.091 450.252 222.091L457.205 227.056Z" fill="#FFC5B1"/>
<path d="M455.292 218.175C455.292 218.175 458.029 215.192 461.346 214.696C464.662 214.2 476.52 212.796 478.26 214.372C480 215.949 468.647 221.225 468.647 221.225C468.647 221.225 472.604 218.706 470.962 217.768C468.06 216.108 455.292 218.175 455.292 218.175Z" fill="#2C373F"/>
<path d="M412.668 156.39L395.701 162.563C395.701 162.563 378.812 237.141 385.292 248.862C391.769 260.585 409.874 252.881 435.767 238.935C457.374 227.191 457.397 227.126 457.397 227.126L450.213 222.317C450.213 222.317 424.98 227.068 417.907 231.967C417.907 231.967 421.609 221.478 426.546 206.672C431.479 191.864 434.883 176.749 412.668 156.39Z" fill="#FFC5B1"/>
<path d="M391.784 105.532C391.784 100.573 393.381 96.9844 398.34 96.9844C403.3 96.9844 410.155 98.7253 410.155 103.685C410.155 108.647 406.248 116.702 401.286 116.702C396.326 116.702 391.784 110.494 391.784 105.532Z" fill="#FFC5B1"/>
<path d="M365.07 21.8023C363.264 22.1505 364.661 21.5094 362.32 22.2465C358.432 18.6031 358.893 12.8199 358.893 12.8199C358.893 12.8199 352.378 7.43368 353.442 6.36052C354.511 5.28481 360.172 10.9726 360.172 10.9726C360.172 10.9726 355.541 3.39887 356.762 2.70366C357.983 2.00845 362.571 11.6263 362.571 11.6263C362.571 11.6263 359.16 0.524058 360.904 0.742374C362.646 0.960711 366.285 11.2294 366.285 11.2294C366.285 11.2294 364.523 0.700921 366.027 0.854606C367.532 1.00706 370.361 15.1788 370.361 15.1788C373.087 11.799 375.331 13.9603 375.331 13.9603L368.413 21.7015C368.413 21.7015 365.901 21.6431 365.07 21.8023Z" fill="#FFC5B1"/>
<path d="M395.664 96.1908C395.664 96.1908 380.096 79.6341 376.869 63.3121C373.641 46.9901 368.166 20.5084 368.166 20.5084L362.319 22.2461C362.319 22.2461 359.858 58.5253 362.684 64.0537C365.508 69.5821 379.395 106.429 383.611 116.101L395.664 96.1908Z" fill="#FFC5B1"/>
<path d="M493.035 73.1908C494.088 74.6984 493.416 73.1018 494.586 75.2577C499.914 75.3493 503.719 71.0357 503.719 71.0357C503.719 71.0357 512.149 71.7013 512.13 70.1883C512.113 68.673 504.087 68.8191 504.087 68.8191C504.087 68.8191 512.685 66.6032 512.29 65.2525C511.898 63.9032 501.912 67.6216 501.912 67.6216C501.912 67.6216 512.084 62.0198 510.681 60.9629C509.277 59.9071 499.516 64.7521 499.516 64.7521C499.516 64.7521 508.11 58.4146 506.921 57.4764C505.734 56.5396 493.845 64.7515 493.845 64.7515C494.238 60.4279 491.12 60.4172 491.12 60.4172L490.696 71.0048C490.696 71.0048 492.549 72.4973 493.035 73.1908Z" fill="#FFC5B1"/>
<path d="M412.291 108.734C412.291 108.734 413.746 103.611 433.591 97.5816C453.435 91.5523 491.371 70.6334 491.371 70.6334L494.819 75.0191C494.819 75.0191 473.649 97.0367 461.823 100.476C449.996 103.915 424.493 118.575 421.888 119.718C417.949 121.447 417.869 123.88 412.291 108.734Z" fill="#FFC5B1"/>
<path d="M395.701 96.2755C395.701 96.2755 380.031 101.354 380.031 125.196C380.031 125.196 380.041 157.853 383.734 163.794C383.734 163.794 389.738 165.332 397.223 163.794C405.072 162.18 412.668 156.39 412.668 156.39L424.995 119.385L423.519 102.047L406.76 98.8097C406.76 98.8097 411.569 121.278 394.174 111.619C390.793 109.742 399.147 96.9946 399.147 96.9946L395.701 96.2755Z" fill="#2C373F"/>
<path d="M382.442 115.667L374.72 99.5804C374.72 99.5804 375.827 89.8228 390.002 86.3248C390.002 86.3248 391.436 91.2438 393.007 93.1231C394.578 95.0025 399.153 97.0005 399.153 97.0005L382.442 115.667Z" fill="#2C373F"/>
<path d="M411.633 122.133L436.186 117.1C436.186 117.1 440.455 108.257 430.333 97.7357C430.333 97.7357 411.181 98.891 408.702 99.0974C406.262 99.3012 407.937 101.179 407.937 101.179L411.633 122.133Z" fill="#2C373F"/>
<path d="M383.695 155.839C383.695 155.839 360.298 196.898 356.498 207.474C356.498 207.474 377.686 217.934 401.585 219.834C420.784 223.247 439.702 216.549 453.234 202.429C453.234 202.429 437.14 166.551 412.682 153.803L402.131 150.646L384.107 155.633" fill="#2C373F"/>
<path d="M420.48 83.1873C420.48 83.1873 423.277 80.703 424.793 82.6272C426.309 84.5515 418.639 86.7457 418.639 86.7457L420.48 83.1873Z" fill="#FFC5B1"/>
<path d="M470.919 50.0336C470.939 50.1277 469.894 50.5077 467.919 50.8548C465.947 51.207 463.039 51.4604 459.455 51.321C455.872 51.1805 451.636 50.6101 447.016 49.7025C442.391 48.8083 437.382 47.6003 432.089 46.7037C426.804 45.8186 421.696 45.4131 417.124 45.8761C412.551 46.3267 408.54 47.578 405.442 49.1335C402.341 50.7024 400.142 52.5166 398.774 53.9085C397.399 55.3 396.764 56.203 396.638 56.1163C396.569 56.0751 397.018 55.0409 398.283 53.466C399.538 51.8941 401.713 49.8507 404.881 48.0729C408.045 46.3097 412.197 44.8786 416.956 44.3214C421.722 43.751 426.992 44.1302 432.369 45.0295C437.75 45.9413 442.761 47.2013 447.328 48.1701C451.893 49.1536 456.029 49.8332 459.529 50.1236C466.545 50.7349 470.872 49.74 470.919 50.0336Z" fill="#DF416B"/>
<path d="M407.122 80.8917C407.108 80.9949 406.352 81.0218 405.226 80.5738C404.948 80.4571 404.62 80.3065 404.325 80.0019C404.179 79.8509 404.048 79.6512 403.974 79.4178C403.867 79.0909 403.898 78.7276 404.039 78.4587C404.079 78.4054 404.085 78.2733 404.158 78.2751L404.38 78.2821C404.526 78.2697 404.692 78.3278 404.855 78.3685C405.155 78.4432 405.252 78.4415 405.468 78.4679C405.846 78.5002 406.241 78.4828 406.638 78.4197C408.261 78.1767 409.404 77.0735 409.942 76.1436C410.505 75.2066 410.591 74.4839 410.725 74.4992C410.821 74.4938 410.961 75.277 410.475 76.4179C410.23 76.9764 409.823 77.6095 409.193 78.1478C408.567 78.6862 407.718 79.1099 406.774 79.2583C406.303 79.3343 405.833 79.3448 405.386 79.2948C405.189 79.2732 404.884 79.2168 404.794 79.1917C404.712 79.172 404.724 79.1554 404.708 79.1643C404.697 79.1735 404.691 79.1893 404.691 79.2116C404.719 79.3246 404.771 79.4341 404.852 79.5342C405.012 79.738 405.252 79.8984 405.488 80.0336C406.452 80.5785 407.148 80.767 407.122 80.8917Z" fill="#F97A5D"/>
<path d="M401.606 80.8507C401.606 80.8507 403.627 82.8795 405.401 83.3438C407.175 83.8082 410.424 84.9431 410.424 84.9431C410.424 84.9431 402.165 89.9444 401.606 80.8507Z" fill="white"/>
<path d="M414.389 83.3263C414.033 83.9166 413.032 83.9637 412.154 83.4326C411.276 82.9016 410.852 81.9939 411.208 81.4036C411.565 80.8133 412.567 80.7662 413.445 81.2973C414.323 81.8284 414.746 82.7359 414.389 83.3263Z" fill="#F4B19F"/>
<path d="M404.63 77.3852C404.32 78.0005 403.324 78.1247 402.408 77.662C401.492 77.1992 401.002 76.326 401.312 75.7106C401.622 75.0953 402.617 74.971 403.533 75.4338C404.448 75.8965 404.94 76.7698 404.63 77.3852Z" fill="#F4B19F"/>
<path d="M400.483 90.7206C400.483 90.7206 403.491 93.5576 406.843 92.8998C406.843 92.8998 405.605 94.5407 401.258 93.6543C401.258 93.6543 401.735 91.795 400.483 90.7206Z" fill="#EDA091"/>
<path d="M413.86 77.603C413.836 77.9977 413.496 78.2994 413.102 78.276C412.707 78.2526 412.405 77.9129 412.429 77.5182C412.452 77.1235 412.792 76.8231 413.186 76.8465C413.581 76.8699 413.883 77.2083 413.86 77.603Z" fill="#2C373F"/>
<path d="M408.131 75.1488C408.107 75.5435 407.768 75.844 407.373 75.8206C406.978 75.7972 406.678 75.4588 406.701 75.0641C406.724 74.6694 407.063 74.3676 407.458 74.391C407.852 74.4144 408.154 74.7541 408.131 75.1488Z" fill="#2C373F"/>
<path d="M416.27 75.8347C416.044 75.9154 415.648 75.3733 415.026 74.9168C414.419 74.4427 413.79 74.2073 413.805 73.9681C413.798 73.7374 414.704 73.6055 415.539 74.2405C416.376 74.8718 416.494 75.7787 416.27 75.8347Z" fill="#6E5395"/>
<path d="M406.16 71.7523C406.158 71.5282 406.943 71.2913 407.97 71.3806C409.016 71.4649 409.758 72.0188 409.639 72.2247C409.528 72.4335 408.804 72.299 407.887 72.226C406.964 72.1441 406.16 71.9962 406.16 71.7523Z" fill="#6E5395"/>
<path d="M219.393 232.735C218.794 224.33 212.706 220.034 211.008 213.778C208.77 202.354 208.126 193.625 192.963 185.788C189.843 183.408 183.875 173.592 186.201 167.996C188.436 160.378 189.144 150.551 195.352 144.915C202.485 138.44 211.807 136.945 217.152 142.572C226.298 162.215 240.398 164.387 243.067 173.377C245.754 181.98 254.454 189.005 261.379 195.702C266.513 200.667 272.522 204.873 276.496 210.806C287.391 227.073 278.06 255.908 260.552 255.696C242.064 254.291 221.215 246.503 219.393 232.735Z" fill="#2C373F"/>
<path d="M281.263 469.5C281.263 469.5 267.651 497.298 266.059 492.152C264.47 487.002 264.995 474.639 265.849 472.875C266.706 471.108 272.269 463.312 272.269 463.312L281.263 469.5Z" fill="#FFC5B1"/>
<path d="M274.434 333.988L286.881 329.228C286.881 329.228 323.826 398.638 323.673 416.749C323.519 434.858 279.231 472.434 279.231 472.434L270.698 465.407C270.698 465.407 288.377 428.838 296.726 419.688C300.902 415.113 271.012 388.555 266.485 366.981C261.958 345.407 274.434 333.988 274.434 333.988Z" fill="#5D4484"/>
<path d="M266.984 471.388C266.984 471.388 264.357 474.226 263.952 475.529C263.547 476.831 262.822 494.46 264.715 495.644C266.608 496.828 271.783 487.101 271.783 487.101C271.783 487.101 265.599 491.947 266.984 471.429" fill="#DF416B"/>
<path d="M238.914 480.966C238.914 480.966 213.45 499.735 214.509 494.466C215.572 489.195 221.982 478.434 223.588 477.238C225.198 476.042 233.893 471.541 233.893 471.541L238.914 480.966Z" fill="#FFC5B1"/>
<path d="M240.563 357.102L277.394 335.757C277.394 335.757 271.181 409.429 264.573 426.48C258.011 443.404 237.953 481.51 237.953 481.51L233.746 471.541C233.746 471.541 239.152 422.735 244.884 414.727C251.871 404.55 240.563 357.102 240.563 357.102Z" fill="#6E5395"/>
<path d="M262.499 321.156C262.499 321.156 235.379 330.759 240.563 357.102C245.748 383.445 254.388 388.384 254.388 388.384L269.941 362.865L285.555 329.446L269.941 327.466L262.499 321.156Z" fill="#6E5395"/>
<path d="M227.316 475.014C227.316 475.014 223.619 476.62 222.654 477.585C221.689 478.55 212.849 493.819 213.975 495.748C215.101 497.676 223.965 491.129 223.965 491.129C223.965 491.129 216.546 492.534 227.316 475.014Z" fill="#DF416B"/>
<path d="M275.418 260.177C275.418 260.177 295.383 271.367 295.383 296.65C295.383 296.65 292.848 325.475 288.737 331.775C288.737 331.775 282.055 333.406 273.723 331.775C264.987 330.063 256.533 323.925 256.533 323.925L249.71 288.633L244.401 268.026L247.279 267.077L262.296 265.429C262.296 265.429 260.138 287.86 276.905 276.72C280.436 274.373 272.51 262.678 272.51 262.678L275.418 260.177Z" fill="#F97A5D"/>
<path d="M260.127 228.975C263.737 228.23 275.179 234.878 273.067 249.612C272.89 250.849 271.422 253.624 271.077 254.76C270.642 256.197 274.818 261.178 274.818 261.178L264.847 264.907C264.266 261.868 264.774 257.362 261.436 256.193C260.188 255.755 258.863 255.504 257.677 254.929C254.476 253.378 252.628 249.732 251.198 246.745C250.131 244.513 249.284 242.098 249.19 239.623C248.955 233.392 254.326 230.173 260.127 228.975Z" fill="#FFC5B1"/>
<path d="M279.778 269.994C279.778 264.734 278.11 262.726 272.589 262.726C267.068 262.726 259.781 264.734 259.781 269.994C259.781 275.255 263.68 281.838 269.202 281.838C274.722 281.838 279.778 275.255 279.778 269.994Z" fill="#FFC5B1"/>
<path d="M317.938 167.469C319.861 168.163 318.437 167.237 320.881 168.435C325.779 165.332 326.272 159.197 326.272 159.197C326.272 159.197 334.356 154.749 333.374 153.433C332.386 152.112 325.188 157.031 325.188 157.031C325.188 157.031 331.582 149.953 330.361 149.002C329.141 148.053 322.441 157.279 322.441 157.279C322.441 157.279 328.105 146.285 326.153 146.195C324.203 146.107 318.43 156.186 318.43 156.186C318.43 156.186 322.184 145.491 320.507 145.377C318.828 145.264 313.643 159.227 313.643 159.227C310.312 155.388 307.241 156.937 307.241 156.937L314.284 166.754C314.284 166.754 317.054 167.151 317.938 167.469Z" fill="#FFC5B1"/>
<path d="M276 259.489C276 259.489 300.298 228.697 305.089 211.684C309.881 194.672 317.001 157.471 317.001 157.471L323.365 159.769C323.365 159.769 315.029 222.613 314.992 228.085C315.075 234.522 290.765 273.092 290.281 283.553L276 259.489Z" fill="#FFC5B1"/>
<path d="M145.81 295.474C145.05 297.33 145.394 295.455 144.657 298.042C139.128 299.221 134.202 295.291 134.202 295.291C134.202 295.291 125.571 297.725 125.253 296.072C124.933 294.416 133.323 292.95 133.323 292.95C133.323 292.95 123.876 292.278 123.986 290.726C124.093 289.176 135.322 291.203 135.322 291.203C135.322 291.203 123.477 287.16 124.703 285.724C125.93 284.29 137.177 287.592 137.177 287.592C137.177 287.592 126.812 282.426 127.841 281.163C128.868 279.902 143.083 286.441 143.083 286.441C141.709 281.808 144.952 281.165 144.952 281.165L147.758 292.617C147.758 292.617 146.162 294.62 145.81 295.474Z" fill="#FFC5B1"/>
<path d="M250.448 271C250.448 271 240.887 262.845 223.004 275.819C201.525 291.573 143.766 289.54 143.766 289.54L143.361 295.964C143.361 295.964 193.514 305.388 205.385 299.725C217.257 294.061 232.107 287.099 233.991 289.635C235.872 292.172 257.564 287.32 250.448 271Z" fill="#FFC5B1"/>
<path d="M290.776 285.744L298.769 263.682C298.769 263.682 297.536 253.334 281.76 249.625L272.822 262.504L290.776 285.744Z" fill="#F97A5D"/>
<path d="M247.483 267.053C247.483 267.053 238.103 266.033 224.995 277.417C224.995 277.417 229.512 289.483 240.453 293.024C240.453 293.024 267.805 277.108 247.483 267.053Z" fill="#F97A5D"/>
<path d="M263.393 149.25L305.256 173.671L328.804 129.192L289.557 107.388L263.393 149.25Z" fill="white"/>
<path d="M197.42 195.582C197.496 195.508 198.458 196.3 200.003 197.938C201.54 199.579 203.651 202.085 205.811 205.501C207.98 208.901 210.174 213.244 211.836 218.326C213.546 223.369 214.806 229.067 217.321 234.494C218.622 237.172 220.158 239.65 221.949 241.819C223.755 243.973 225.734 245.844 227.755 247.462C231.875 250.6 236.135 252.691 239.895 253.835C243.653 254.998 246.847 255.447 249.056 255.556C251.265 255.692 252.507 255.667 252.517 255.81C252.526 255.9 251.298 256.149 249.039 256.216C246.784 256.308 243.481 256.039 239.556 254.986C235.628 253.953 231.147 251.905 226.802 248.703C224.668 247.054 222.578 245.123 220.67 242.882C218.778 240.627 217.143 238.021 215.783 235.214C213.161 229.541 211.953 223.788 210.347 218.809C208.801 213.81 206.783 209.542 204.785 206.125C202.799 202.7 200.866 200.122 199.5 198.369C198.127 196.618 197.327 195.672 197.42 195.582Z" fill="#2C373F"/>
<path d="M247.402 164.544C247.706 164.482 248.205 168.585 250.805 174.56C252.102 177.536 253.984 180.942 256.61 184.32C257.923 186.011 259.421 187.666 261.105 189.308C262.777 190.958 264.593 192.628 266.324 194.515C269.796 198.326 272.26 202.507 274.569 206.191C276.863 209.913 278.72 213.468 279.734 216.683C280.782 219.883 280.971 222.673 280.778 224.539C280.574 226.414 280.157 227.381 280.079 227.359C279.931 227.328 280.122 226.321 280.118 224.513C280.102 222.709 279.746 220.097 278.6 217.078C277.486 214.046 275.587 210.659 273.244 207.021C270.869 203.386 268.386 199.293 265.071 195.661C263.405 193.843 261.616 192.181 259.931 190.488C258.237 188.805 256.687 187.042 255.366 185.267C252.714 181.712 250.884 178.132 249.696 175.017C248.484 171.904 247.902 169.255 247.6 167.426C247.3 165.591 247.306 164.558 247.402 164.544Z" fill="#2C373F"/>
<path d="M259.872 257.433C259.872 257.433 262.562 257.981 265.991 257.123C265.991 257.123 264.3 258.766 261.539 259.147C261.539 259.147 260.92 258.004 259.872 257.433Z" fill="#EDA091"/>
<path d="M264.152 244.682C264.13 244.564 264.806 244.424 265.412 243.636C265.552 243.456 265.69 243.193 265.68 243.045C265.669 242.886 265.543 242.615 265.345 242.465C265.137 242.297 264.914 242.221 264.623 242.265C264.324 242.302 263.964 242.469 263.488 242.564C262.446 242.755 261.599 242.202 261.037 241.748C260.46 241.27 260.012 240.779 259.675 240.335C259.004 239.441 258.776 238.783 258.87 238.73C258.977 238.666 259.383 239.199 260.127 239.939C260.498 240.307 260.965 240.729 261.513 241.129C262.052 241.517 262.706 241.861 263.333 241.73C263.666 241.672 264.049 241.496 264.525 241.44C265.007 241.369 265.556 241.565 265.869 241.884C266.2 242.208 266.396 242.603 266.383 243.079C266.312 243.571 266.066 243.809 265.863 244.032C264.98 244.884 264.127 244.793 264.152 244.682Z" fill="#F97A5D"/>
<path d="M269.127 245.137L261.24 248.448C261.24 248.448 268.343 254.078 269.127 245.137Z" fill="white"/>
<path d="M260.271 245.07C260.622 245.664 260.19 246.567 259.306 247.089C258.422 247.611 257.422 247.553 257.071 246.959C256.721 246.366 257.153 245.462 258.037 244.94C258.921 244.418 259.921 244.476 260.271 245.07Z" fill="#F4B19F"/>
<path d="M269.554 239.725C269.848 240.349 269.334 241.208 268.405 241.646C267.477 242.083 266.486 241.932 266.192 241.308C265.898 240.684 266.413 239.825 267.342 239.388C268.27 238.95 269.26 239.101 269.554 239.725Z" fill="#F4B19F"/>
<path d="M263.73 238.2C264.043 238.441 264.104 238.891 263.863 239.204C263.622 239.518 263.172 239.578 262.859 239.338C262.545 239.097 262.485 238.647 262.726 238.333C262.966 238.02 263.416 237.959 263.73 238.2Z" fill="#2C373F"/>
<path d="M258.485 241.568C258.799 241.809 258.858 242.259 258.617 242.573C258.376 242.886 257.926 242.946 257.613 242.706C257.299 242.465 257.24 242.015 257.481 241.701C257.722 241.388 258.172 241.327 258.485 241.568Z" fill="#2C373F"/>
<path d="M263.616 235.212C263.556 235.443 262.885 235.469 262.16 235.728C261.426 235.965 260.88 236.354 260.69 236.208C260.494 236.085 260.894 235.26 261.887 234.925C262.878 234.586 263.696 234.995 263.616 235.212Z" fill="#2C373F"/>
<path d="M254.568 241.296C254.382 241.172 254.625 240.39 255.275 239.589C255.931 238.771 256.808 238.466 256.911 238.68C257.021 238.888 256.502 239.412 255.928 240.132C255.343 240.849 254.77 241.432 254.568 241.296Z" fill="#2C373F"/>
<path d="M251.829 247.407C251.829 247.407 249.15 245.369 248.008 247.387C246.867 249.404 253.716 250.104 253.716 250.104L251.829 247.407Z" fill="#FFC5B1"/>
</svg>
